<svg width="305" height="336" viewBox="0 0 305 336" fill="none" xmlns="http://www.w3.org/2000/svg">
<path d="M303.346 229.84L299.957 304.103C299.921 304.917 299.658 305.705 299.197 306.377C297.241 309.241 291.103 317.189 279.521 323.551C278.984 323.843 278.408 324.056 277.81 324.185L251.142 330.055C250.912 330.105 250.686 330.169 250.464 330.246L240.91 333.586C239.923 333.93 238.896 334.148 237.855 334.236L228.251 335.034C227.838 335.059 227.424 335.059 227.011 335.034L46.4916 326.48L37.003 325.081L26.6726 319.779L8.63545 312.925C7.44321 312.472 6.4066 311.685 5.6496 310.659C4.89261 309.632 4.44721 308.41 4.36662 307.137C3.16415 288.083 0.196201 210.338 0.595204 174.788C1.14178 127.153 9.46074 46.9701 18.2279 8.56194V8.52915C18.6488 6.65984 19.0806 4.89439 19.5069 3.23278C19.5499 3.07178 19.6103 2.91599 19.6873 2.7682C19.8564 2.45936 20.1 2.19761 20.3959 2.00671C20.6917 1.81582 21.0306 1.70183 21.3817 1.67504C37.1866 0.621366 53.043 0.588507 68.8522 1.57666C70.2295 1.66047 71.6252 1.75157 73.039 1.84995L74.7662 1.97566L77.4991 2.18883C78.0342 2.23391 78.5329 2.47776 78.8971 2.87232C79.2613 3.26688 79.4646 3.78352 79.4668 4.32047V6.29362L80.0134 126.093L79.4668 219.318C79.4663 220.026 79.7407 220.707 80.2321 221.216C80.7236 221.726 81.3936 222.025 82.1013 222.051L186.668 225.56C187.027 225.571 187.385 225.511 187.721 225.383C188.057 225.255 188.365 225.063 188.626 224.816C188.888 224.569 189.098 224.273 189.245 223.945C189.392 223.617 189.473 223.263 189.482 222.903L189.554 220.171L191.876 127.689C191.876 127.689 191.833 106.853 190.647 94.6648C189.461 82.476 191.226 60.7057 193.74 48.9816C196.255 37.2574 198.392 24.7025 198.392 24.7025C198.392 24.7025 201.015 14.864 210.668 6.66532C211.388 6.05211 212.313 5.73215 213.259 5.76892L214.74 5.82904L266.862 7.85139L275.279 8.46903L276.077 8.52915C276.178 8.53527 276.279 8.54991 276.378 8.57288C276.764 8.65656 277.121 8.84361 277.41 9.11409C277.699 9.38458 277.909 9.72835 278.017 10.1088L278.701 12.4919L278.887 13.1478C278.973 13.4505 279.15 13.7198 279.393 13.92C279.636 14.1201 279.934 14.2415 280.248 14.2682L291.999 15.3013C292.457 15.3403 292.887 15.5371 293.216 15.8581C293.545 16.1791 293.753 16.6044 293.803 17.0613C294.191 20.614 295.191 28.9713 296.208 31.6222C296.208 31.6222 300.345 62.9303 300.996 75.764L300.263 76.5073V79.1036L301.291 79.8907C301.291 79.8907 305.576 199.696 303.346 229.84Z" fill="white" stroke="black" stroke-width="0.54658" stroke-miterlimit="10"/>
<path d="M276.4 8.58398C276.4 8.58398 280.647 69.167 280.084 117.452C279.521 165.737 277.581 296.113 272.273 325.404" fill="white"/>
<path d="M276.4 8.58398C276.4 8.58398 280.647 69.167 280.084 117.452C279.521 165.737 277.581 296.113 272.273 325.404" stroke="black" stroke-width="0.54658" stroke-miterlimit="10"/>
<path d="M266.875 7.85645C266.875 7.85645 268.225 57.3056 268.367 81.0272C268.509 104.749 264.295 287.017 259.004 328.322" fill="white"/>
<path d="M266.875 7.85645C266.875 7.85645 268.225 57.3056 268.367 81.0271C268.509 104.749 264.295 287.017 259.004 328.322" stroke="black" stroke-width="0.54658" stroke-miterlimit="10"/>
<path d="M292.54 115.433C297.039 115.297 300.285 101.898 299.79 85.5046C299.295 69.1116 295.246 55.9325 290.747 56.0684C286.249 56.2043 283.003 69.6036 283.498 85.9966C283.993 102.39 288.042 115.569 292.54 115.433Z" fill="white" stroke="black" stroke-width="0.54658" stroke-miterlimit="10"/>
<path d="M189.566 220.166L189.495 222.898C189.485 223.258 189.404 223.612 189.258 223.94C189.111 224.268 188.9 224.564 188.639 224.811C188.377 225.058 188.07 225.25 187.734 225.378C187.398 225.506 187.04 225.566 186.68 225.555L82.0593 222.062C81.3516 222.037 80.6816 221.737 80.1901 221.228C79.6987 220.718 79.4243 220.037 79.4248 219.329L79.9714 126.104L79.4248 6.30502V4.33187C79.4226 3.79492 79.2193 3.27825 78.8551 2.88369C78.4909 2.48913 77.9921 2.24528 77.457 2.2002L118.073 5.76938L124.086 6.31596C124.591 6.36098 125.062 6.59345 125.405 6.96766C125.748 7.34187 125.938 7.83078 125.939 8.33832V213.486C125.938 214.873 126.481 216.205 127.45 217.197C128.42 218.189 129.739 218.762 131.126 218.794L189.572 220.166H189.566Z" fill="white" stroke="black" stroke-width="0.54658" stroke-miterlimit="10"/>
<path d="M233.989 6.58331C233.989 6.58331 233.054 25.0687 229.425 37.9078C225.796 50.747 223.708 66.3737 223.708 76.4254C223.708 86.477 225.801 110.893 225.522 124.431C225.315 134.478 223.412 204.697 222.45 240.252C222.377 242.936 221.772 245.578 220.67 248.026C219.568 250.475 217.992 252.68 216.031 254.514C214.071 256.348 211.766 257.775 209.25 258.712C206.734 259.649 204.057 260.078 201.374 259.972L59.3782 254.436C54.0447 254.228 49.008 251.926 45.3596 248.03C41.7112 244.134 39.745 238.957 39.8871 233.622L42.8442 121.573C42.8442 121.573 42.9863 104.082 40.7508 94.7303C38.5153 85.3783 36.9247 73.2388 43.9592 44.5652C43.9592 44.5652 49.824 26.8614 50.8461 17.0011C51.8682 7.14082 53.0324 0.986328 53.0324 0.986328" stroke="black" stroke-width="0.54658" stroke-miterlimit="10"/>
<path d="M0.527344 174.564C0.527344 174.564 13.2791 176.002 24.5332 176.395C25.638 176.437 26.6827 176.909 27.4438 177.711C28.2048 178.513 28.6217 179.581 28.6052 180.686L26.6594 319.802" fill="white"/>
<path d="M0.527344 174.564C0.527344 174.564 13.2791 176.002 24.5332 176.395C25.638 176.437 26.6827 176.909 27.4438 177.711C28.2048 178.513 28.6217 179.581 28.6052 180.686L26.6594 319.802" stroke="black" stroke-width="0.54658" stroke-miterlimit="10"/>
<path d="M279.525 72.1727L269.441 71.4895C267.769 71.3772 266.095 71.6658 264.558 72.3313C263.02 72.9968 261.664 74.02 260.602 75.3155L255.727 81.235C253.924 83.4208 252.906 86.1477 252.836 88.9801L249.102 232.867C249.086 233.503 249.321 234.119 249.756 234.582C250.19 235.046 250.79 235.319 251.425 235.343L277.732 236.365C277.732 236.365 296.863 234.633 303.323 230.441" stroke="black" stroke-width="0.54658" stroke-miterlimit="10"/>
</svg>
