<svg width="275" height="114" viewBox="0 0 275 114" fill="none" xmlns="http://www.w3.org/2000/svg">
<path d="M256.992 107.067C257.009 107.229 256.99 107.393 256.935 107.546C256.881 107.7 256.793 107.84 256.678 107.955C256.562 108.07 256.423 108.158 256.269 108.213C256.115 108.267 255.951 108.286 255.789 108.269L253.86 108.121L247.563 107.651L197.278 105.7C197.047 105.693 196.82 105.636 196.612 105.535C196.404 105.434 196.22 105.289 196.072 105.112C195.924 104.934 195.815 104.727 195.752 104.505C195.69 104.282 195.675 104.049 195.709 103.82L196.185 100.54C196.225 100.253 196.327 99.9778 196.482 99.7327C196.638 99.4877 196.844 99.2786 197.086 99.1193L197.715 98.6985C201.27 96.3417 204.231 93.1936 206.365 89.501C208.5 85.8083 209.75 81.6714 210.018 77.4146L212.369 40.034L212.402 39.4874L212.456 38.6402C212.624 35.9735 212.25 33.3005 211.356 30.7826C210.461 28.2648 209.065 25.9546 207.253 23.9916C205.44 22.0286 203.248 20.4537 200.809 19.3621C198.37 18.2704 195.735 17.6848 193.064 17.6406L71.7227 15.6346C66.6794 15.553 61.7823 17.3293 57.9642 20.6253C54.146 23.9213 51.6738 28.5066 51.0183 33.5078L45.7383 73.922C45.2921 77.3518 45.6925 80.8387 46.9044 84.0781C48.1164 87.3175 50.103 90.211 52.6908 92.5057L52.7564 92.5658L55.4128 94.9216C55.5685 95.0595 55.6901 95.2316 55.768 95.4244C55.8412 95.6083 55.8712 95.8065 55.8555 96.0038L55.5549 100.065C55.52 100.522 55.3053 100.946 54.958 101.246C54.6108 101.545 54.1591 101.694 53.702 101.661C52.2845 101.563 50.8889 101.471 49.5152 101.388C33.706 100.399 17.8496 100.432 2.04469 101.486C1.8844 101.499 1.72338 101.473 1.57497 101.411C1.42657 101.349 1.29507 101.253 1.19139 101.13C1.08772 101.007 1.01483 100.861 0.978819 100.704C0.942808 100.548 0.944667 100.385 0.98429 100.229C11.2928 60.9407 21.0493 38.4653 31.5054 19.2257C42.672 -1.28748 72.2584 1.08467 72.2584 1.08467C72.2584 1.08467 171.107 2.89932 202.459 4.47893C213.555 5.02551 221.639 8.36512 227.443 12.4207C238.042 19.8269 241.07 29.6872 241.07 29.6872C252.198 54.491 256.057 94.9926 256.992 107.067Z" fill="white" stroke="black" stroke-width="0.54658" stroke-miterlimit="10"/>
<path d="M273.859 111.455C273.877 111.63 273.856 111.806 273.8 111.972C273.743 112.138 273.652 112.291 273.532 112.418C273.412 112.546 273.266 112.647 273.104 112.714C272.941 112.781 272.767 112.812 272.591 112.805L259.408 112.314L258.725 109.93C258.616 109.55 258.406 109.206 258.117 108.936C257.828 108.665 257.472 108.478 257.085 108.395C256.986 108.372 256.885 108.357 256.784 108.351L255.986 108.291C256.276 108.259 256.543 108.116 256.729 107.892C256.916 107.667 257.008 107.379 256.986 107.088C256.052 95.0143 252.193 54.5127 241.048 29.7089C241.048 29.7089 238.02 19.8704 227.422 12.4424C227.422 12.4424 243.464 16.7822 251.931 34.8522C260.173 52.3537 272.012 94.2764 273.859 111.455Z" fill="white" stroke="black" stroke-width="0.54658" stroke-miterlimit="10"/>
<path d="M212.445 38.6186L212.39 39.4658C212.532 32.6882 201.185 32.7593 201.185 32.7593L198.813 32.6992L85.4962 29.7367C85.4962 29.7367 85.3487 29.7367 85.0918 29.7367C83.8292 29.7367 79.8774 29.9827 77.1226 32.732C73.8103 36.0497 74.335 46.0248 74.335 46.0248L75.1713 74.354C75.7785 81.3473 79.0741 87.8326 84.3648 92.4458C87.759 95.4684 91.3555 98.0756 97.7122 99.8302L55.7731 95.4302C55.6952 95.2373 55.5736 95.0652 55.4179 94.9273L52.7615 92.5716L52.6959 92.5114C50.1081 90.2167 48.1215 87.3233 46.9096 84.0838C45.6976 80.8444 45.2973 77.3575 45.7434 73.9277L51.0234 33.5136C51.6789 28.5124 54.1511 23.927 57.9693 20.631C61.7874 17.335 66.6845 15.5587 71.7279 15.6404L193.069 17.6463C195.736 17.6929 198.367 18.2794 200.802 19.3703C203.237 20.4612 205.426 22.0339 207.236 23.9937C209.047 25.9535 210.442 28.2597 211.337 30.7732C212.232 33.2867 212.609 35.9555 212.445 38.6186Z" fill="white" stroke="black" stroke-width="0.54658" stroke-miterlimit="10"/>
<path d="M98.757 101.12V104.306C98.756 104.466 98.7221 104.623 98.6575 104.769C98.5928 104.915 98.4988 105.045 98.3814 105.153C98.2639 105.261 98.1255 105.343 97.9748 105.395C97.824 105.447 97.6642 105.467 97.5053 105.454L58.1515 101.994L55.4186 101.781L53.6914 101.655C54.1486 101.689 54.6002 101.539 54.9475 101.24C55.2948 100.941 55.5094 100.516 55.5443 100.059L55.8449 95.9983C55.8606 95.801 55.8307 95.6028 55.7575 95.4189L97.5599 99.7916C97.8894 99.823 98.1952 99.9769 98.4169 100.223C98.6385 100.469 98.7599 100.789 98.757 101.12Z" fill="white" stroke="black" stroke-width="0.54658" stroke-miterlimit="10"/>
<path d="M198.813 32.6995C198.813 32.6995 102.735 30.1798 87.2288 29.7808C85.8746 29.7438 84.5875 29.1835 83.6377 28.2176L80.1616 24.6812C79.6626 24.1721 79.3267 23.5258 79.1968 22.8249C79.0669 22.1241 79.1488 21.4004 79.4322 20.7463C79.7155 20.0922 80.1874 19.5374 80.7875 19.1528C81.3877 18.7681 82.0888 18.5711 82.8014 18.5868L182.279 20.9043C184.038 20.9453 185.772 21.3345 187.38 22.0493C188.988 22.7642 190.438 23.7906 191.648 25.0693L198.813 32.6995Z" fill="white" stroke="black" stroke-width="0.54658" stroke-miterlimit="10"/>
<path d="M33.7148 100.755L42.5148 34.5586C43.5101 27.0609 47.2515 20.199 53.0148 15.301C58.7781 10.403 66.1535 7.81721 73.7136 8.04402L194.59 11.646C197.941 11.7459 201.239 12.5181 204.286 13.9168C207.334 15.3155 210.069 17.3122 212.33 19.7883C214.591 22.2644 216.331 25.1695 217.448 28.3311C218.565 31.4928 219.035 34.8466 218.831 38.1934L214.682 106.374" stroke="black" stroke-width="0.54658" stroke-miterlimit="10"/>
</svg>
