<svg width="162" height="217" viewBox="0 0 162 217" fill="none" xmlns="http://www.w3.org/2000/svg">
<path d="M6.27365 48.8623L103.029 51.7482L98.5638 158.271L0.878906 155.014L6.27365 48.8623Z" fill="white" stroke="black" stroke-width="0.54658" stroke-miterlimit="10"/>
<path d="M108.148 52.7266L160.794 74.2618V169.602L103.824 158.736L108.148 52.7266Z" fill="white" stroke="black" stroke-width="0.54658" stroke-miterlimit="10"/>
<path d="M10.3984 155.335V198.127C10.4044 201.076 11.5415 203.91 13.5753 206.046C15.6091 208.181 18.3848 209.455 21.33 209.605L153.745 216.372C154.518 216.412 155.291 216.297 156.019 216.033C156.747 215.769 157.415 215.362 157.982 214.836C158.55 214.309 159.007 213.674 159.325 212.968C159.642 212.262 159.816 211.499 159.833 210.725L160.795 169.579L103.825 158.718L98.5673 158.254L10.3984 155.335Z" fill="white" stroke="black" stroke-width="0.54658" stroke-miterlimit="10"/>
<path d="M92.0558 158.059L90.4161 200.419C90.2837 203.806 91.492 207.108 93.779 209.61C96.0659 212.112 99.247 213.611 102.632 213.782L153.759 216.395C154.533 216.436 155.306 216.32 156.034 216.057C156.762 215.793 157.429 215.386 157.997 214.859C158.565 214.333 159.021 213.698 159.339 212.992C159.657 212.286 159.83 211.523 159.848 210.749L160.81 169.602L103.84 158.742L98.582 158.277L92.0558 158.059Z" fill="white" stroke="black" stroke-width="0.54658" stroke-miterlimit="10"/>
<path d="M98.5666 158.276L96.9815 200.822C96.8564 204.193 98.0633 207.479 100.341 209.967C102.619 212.456 105.785 213.948 109.154 214.12L153.744 216.394C154.517 216.435 155.291 216.32 156.019 216.056C156.746 215.792 157.414 215.385 157.982 214.858C158.55 214.332 159.006 213.697 159.324 212.991C159.642 212.285 159.815 211.522 159.833 210.748L160.795 169.601L103.825 158.741L98.5666 158.276Z" fill="white" stroke="black" stroke-width="0.54658" stroke-miterlimit="10"/>
<path d="M108.134 159.566L106.533 202.801C106.46 204.758 107.16 206.665 108.483 208.11C109.806 209.554 111.644 210.419 113.6 210.519L148.111 212.284C148.904 212.325 149.698 212.205 150.444 211.933C151.191 211.661 151.875 211.242 152.457 210.701C153.039 210.16 153.506 209.507 153.83 208.782C154.155 208.057 154.331 207.274 154.347 206.479L155.14 168.525L108.134 159.566Z" fill="white" stroke="black" stroke-width="0.54658" stroke-miterlimit="10"/>
<path d="M103.986 3.35383C100.706 3.35383 97.8804 5.60574 97.8804 11.5525L96.3227 51.5458L13.7891 49.0862L16.604 12.1811C16.8448 8.98304 18.3136 6.00215 20.7027 3.86261C23.0919 1.72307 26.2161 0.590807 29.4212 0.702908L103.986 3.35383Z" fill="white" stroke="black" stroke-width="0.54658" stroke-miterlimit="10"/>
<path d="M117.828 9.16895L110.4 5.81294C109.628 5.46297 108.781 5.3094 107.935 5.36591C107.089 5.42242 106.27 5.68725 105.551 6.13683C104.832 6.5864 104.235 7.20677 103.814 7.94272C103.392 8.67867 103.16 9.50736 103.136 10.355L101.961 51.7257L96.3203 51.5563L97.8781 11.563C97.8781 5.6107 100.704 3.36426 103.983 3.36426H104.36C104.648 3.38574 104.933 3.42961 105.213 3.49545C105.518 3.56698 105.815 3.66954 106.099 3.80153L117.828 9.16895Z" fill="white" stroke="black" stroke-width="0.54658" stroke-miterlimit="10"/>
<path d="M160.798 74.2616L156.934 72.682L116.525 56.1534L112.453 54.4864L113.24 12.4544C113.251 11.877 113.404 11.3112 113.687 10.8075C113.969 10.3038 114.372 9.87793 114.859 9.56779C115.346 9.25765 115.902 9.07295 116.478 9.03014C117.054 8.98732 117.632 9.08774 118.159 9.32244H118.192L153.501 25.4903H153.545L157.131 27.13C157.621 27.3524 158.041 27.7068 158.342 28.1537C158.643 28.6005 158.814 29.1223 158.836 29.6607L160.798 74.2616Z" fill="white" stroke="black" stroke-width="0.54658" stroke-miterlimit="10"/>
<path d="M156.934 72.682L116.525 56.1534L112.453 54.4864L113.24 12.4544C113.251 11.877 113.404 11.3112 113.687 10.8075C113.969 10.3038 114.372 9.87793 114.859 9.56779C115.346 9.25765 115.902 9.07295 116.478 9.03014C117.054 8.98732 117.632 9.08774 118.159 9.32244H118.192L153.501 25.4903H153.545C154.129 25.7639 154.626 26.1945 154.979 26.7341C155.332 27.2737 155.528 27.9009 155.545 28.5457L156.934 72.682Z" fill="white" stroke="black" stroke-width="0.54658" stroke-miterlimit="10"/>
<path d="M118.164 9.32299C117.636 9.08829 117.059 8.98787 116.483 9.03068C115.907 9.07349 115.351 9.2582 114.864 9.56834C114.376 9.87848 113.974 10.3044 113.691 10.8081C113.409 11.3117 113.255 11.8775 113.245 12.4549L112.458 54.4869L108.151 52.7269L104.614 52.0546L103.035 51.754L101.941 51.7212L103.117 10.356C103.14 9.50836 103.373 8.67966 103.794 7.94371C104.215 7.20776 104.812 6.58739 105.531 6.13782C106.25 5.68824 107.069 5.42341 107.915 5.3669C108.761 5.3104 109.608 5.46396 110.381 5.81393L117.809 9.16995L118.164 9.32299Z" fill="white" stroke="black" stroke-width="0.54658" stroke-miterlimit="10"/>
<path d="M103.024 51.748L108.14 52.7264L103.817 158.736L98.5586 158.271L103.024 51.748Z" fill="white" stroke="black" stroke-width="0.54658" stroke-miterlimit="10"/>
<path d="M5.86328 57.0449L102.69 59.9309L107.828 60.6578L160.797 81.8214" stroke="black" stroke-width="0.54658" stroke-miterlimit="10"/>
<path d="M1.27734 147.049L98.9075 149.853L104.155 150.454L160.786 162.271" stroke="black" stroke-width="0.54658" stroke-miterlimit="10"/>
</svg>
