<svg width="94" height="89" viewBox="0 0 94 89" fill="none" xmlns="http://www.w3.org/2000/svg">
<path d="M83.6955 42.5236C83.6955 65.6057 65.1992 84.3151 42.385 84.3151C39.9403 84.3146 37.5003 84.0988 35.0935 83.6701C33.6839 83.4114 32.2883 83.0812 30.9122 82.6808C29.5037 82.2707 28.1188 81.7835 26.7637 81.2215C19.1356 78.0334 12.6239 72.6556 8.05143 65.7677C3.47895 58.8798 1.05098 50.791 1.07439 42.5236C1.07439 19.436 19.5652 0.726562 42.3795 0.726562C44.5115 0.726646 46.6403 0.891121 48.7471 1.2185H48.8236L51.01 1.62296C52.1578 1.86892 53.2838 2.16953 54.3933 2.50295C55.8811 2.95256 57.3411 3.48914 58.766 4.1099C66.2068 7.39478 72.5283 12.7783 76.9561 19.6011C81.384 26.4239 83.726 34.3899 83.6955 42.5236Z" fill="white" stroke="black" stroke-width="0.54658" stroke-miterlimit="10"/>
<path d="M69.595 42.5244C69.595 57.7303 57.4117 70.0557 42.3808 70.0557C40.7717 70.0555 39.1657 69.9129 37.5818 69.6293C36.66 69.4608 35.7477 69.2437 34.8489 68.9789C33.9205 68.71 33.0081 68.3888 32.116 68.0169C27.086 65.9215 22.7908 62.3806 19.7746 57.8425C16.7583 53.3045 15.1565 47.9734 15.172 42.5244C15.172 27.3186 27.3553 14.9932 42.3808 14.9932C43.7862 14.9926 45.1896 15.1004 46.5785 15.3157H46.6331L48.0542 15.5835C48.814 15.7475 49.5574 15.9333 50.2843 16.1629C51.2589 16.4599 52.2153 16.814 53.1484 17.2232C58.0545 19.3826 62.2238 22.9267 65.1452 27.4209C68.0666 31.9152 69.613 37.1642 69.595 42.5244Z" fill="white" stroke="black" stroke-width="0.54658" stroke-miterlimit="10"/>
<path d="M50.7326 40.6438C50.7624 43.161 50.2359 45.6537 49.1908 47.9439C48.1457 50.234 46.6077 52.2651 44.6867 53.8921C42.7657 55.5191 40.5092 56.7018 38.0783 57.3558C35.6473 58.0097 33.102 58.1188 30.624 57.6752C30.0337 57.5659 29.4598 57.4292 28.8913 57.2653C28.3079 57.0967 27.7348 56.8941 27.175 56.6586C23.2457 55.0708 20.0367 52.0946 18.158 48.2957C16.2793 44.4968 15.8621 40.14 16.9854 36.0535C18.1087 31.9671 20.6943 28.4358 24.2509 26.1309C27.8074 23.8261 32.0868 22.9084 36.2756 23.5522H36.3084L37.2048 23.7162C37.6803 23.82 38.1449 23.9403 38.6041 24.0824C39.2156 24.2684 39.8159 24.4893 40.4023 24.7437C43.4847 26.1012 46.104 28.3286 47.939 31.153C49.774 33.9773 50.7449 37.2757 50.7326 40.6438Z" fill="white" stroke="black" stroke-width="0.54658" stroke-miterlimit="10"/>
<path d="M40.4383 40.5335C40.4485 42.3199 39.7489 44.0373 38.4934 45.3082C37.2379 46.5791 35.5291 47.2995 33.7427 47.311C33.3451 47.3097 32.9483 47.2749 32.5566 47.2072C32.327 47.1635 32.1029 47.1088 31.8788 47.0432C31.6509 46.9764 31.4265 46.8979 31.2065 46.8082C29.7704 46.202 28.5865 45.1204 27.8532 43.7448C27.12 42.3692 26.8821 40.7833 27.1794 39.2532C27.4767 37.723 28.2913 36.3416 29.4862 35.3407C30.6812 34.3397 32.1841 33.7802 33.7427 33.7559C34.0886 33.7556 34.4341 33.783 34.7757 33.8379L35.1255 33.9034C35.3103 33.9401 35.4929 33.9875 35.6721 34.0456C35.9105 34.1164 36.1442 34.2022 36.3717 34.3024C37.583 34.8318 38.6132 35.7036 39.3356 36.8106C40.0581 37.9176 40.4413 39.2116 40.4383 40.5335Z" fill="white" stroke="black" stroke-width="0.54658" stroke-miterlimit="10"/>
<path d="M54.8593 41.7581C54.8855 46.425 53.0581 50.9115 49.7786 54.232C46.4991 57.5525 42.0356 59.4355 37.3687 59.4673C35.2634 59.4705 33.1755 59.087 31.2087 58.3358L30.2522 57.9368L27.2188 56.6688C27.7785 56.9043 28.3515 57.1069 28.935 57.2755C29.4815 57.4395 30.0773 57.5761 30.6676 57.6854C33.1456 58.129 35.691 58.0199 38.1219 57.366C40.5529 56.712 42.8094 55.5293 44.7304 53.9023C46.6514 52.2753 48.1893 50.2442 49.2344 47.9541C50.2796 45.6639 50.8061 43.1712 50.7763 40.654C50.7865 37.2877 49.8145 33.9917 47.9797 31.1695C46.1448 28.3473 43.5267 26.1215 40.446 24.7649C39.8596 24.5104 39.2592 24.2896 38.6477 24.1035C39.1068 24.1363 39.5605 24.1855 40.0087 24.2565L41.1729 24.4697C45.0762 25.3731 48.5566 27.576 51.0434 30.7173C53.5302 33.8586 54.8757 37.7516 54.8593 41.7581Z" fill="white" stroke="black" stroke-width="0.54658" stroke-miterlimit="10"/>
<path d="M93.6507 45.2074C93.6507 68.8416 74.7171 88.0047 51.3563 88.0047C46.2681 88.0098 41.222 87.0836 36.4674 85.2718H36.4073L34.1008 84.3098L26.7656 81.2435C28.1207 81.8055 29.5056 82.2927 30.9142 82.7028C32.2903 83.1032 33.6859 83.4334 35.0955 83.6922C37.5023 84.1208 39.9422 84.3367 42.3869 84.3372C65.2012 84.3372 83.6974 65.6277 83.6974 42.5456C83.7276 34.4092 81.3836 26.4407 76.9527 19.6166C72.5217 12.7926 66.1963 7.40928 58.7515 4.12648C57.3267 3.50572 55.8666 2.96915 54.3789 2.51953C55.472 2.59605 56.5652 2.72176 57.6584 2.88573L60.4733 3.43231C79.456 7.63005 93.6507 24.7435 93.6507 45.2074Z" fill="white" stroke="black" stroke-width="0.54658" stroke-miterlimit="10"/>
</svg>
