<svg width="562" height="584" viewBox="0 0 562 584" fill="none" xmlns="http://www.w3.org/2000/svg">
<rect x="0.567462" y="0.493243" width="560.324" height="583.014" rx="29.1014" fill="white"/>
<rect x="0.567462" y="0.493243" width="560.324" height="583.014" rx="29.1014" stroke="#BEBEBE" stroke-width="0.986487"/>
<path d="M76.9044 80.3937V109.988H71.7352V82.6429L74.1028 85.0104H50.6244L52.992 82.6429V109.988H47.7833V80.3937H76.9044ZM94.9941 110.541C92.2846 110.541 89.9039 110.054 87.852 109.081C85.8264 108.081 84.2348 106.7 83.0774 104.937C81.9462 103.175 81.3806 101.136 81.3806 98.8213C81.3806 96.48 81.9462 94.4413 83.0774 92.705C84.2348 90.9425 85.8264 89.5746 87.852 88.6013C89.9039 87.6016 92.2846 87.1018 94.9941 87.1018C97.7037 87.1018 100.071 87.6016 102.097 88.6013C104.149 89.5746 105.74 90.9425 106.871 92.705C108.029 94.4413 108.608 96.48 108.608 98.8213C108.608 101.136 108.029 103.175 106.871 104.937C105.74 106.7 104.149 108.081 102.097 109.081C100.071 110.054 97.7037 110.541 94.9941 110.541ZM94.9941 106.516C96.7303 106.516 98.2166 106.2 99.453 105.569C100.716 104.937 101.689 104.056 102.373 102.925C103.057 101.768 103.399 100.4 103.399 98.8213C103.399 97.2429 103.057 95.8881 102.373 94.7569C101.689 93.5995 100.716 92.705 99.453 92.0737C98.2166 91.4423 96.7303 91.1267 94.9941 91.1267C93.2842 91.1267 91.7979 91.4423 90.5352 92.0737C89.2725 92.705 88.2992 93.5995 87.6152 94.7569C86.9312 95.8881 86.5893 97.2429 86.5893 98.8213C86.5893 100.4 86.9312 101.768 87.6152 102.925C88.2992 104.056 89.2725 104.937 90.5352 105.569C91.7979 106.2 93.2842 106.516 94.9941 106.516ZM112.777 87.6542H117.907V95.4277L117.67 96.2169V100.715L117.907 102.096V116.499H112.777V87.6542ZM115.934 98.8213C116.434 96.4537 117.263 94.4018 118.42 92.6656C119.578 90.9031 120.998 89.5351 122.682 88.5618C124.392 87.5885 126.286 87.1018 128.364 87.1018C130.547 87.1018 132.481 87.6016 134.164 88.6013C135.848 89.5746 137.163 90.9425 138.11 92.705C139.057 94.4413 139.531 96.48 139.531 98.8213C139.531 101.136 139.057 103.175 138.11 104.937C137.163 106.7 135.848 108.081 134.164 109.081C132.481 110.054 130.547 110.541 128.364 110.541C126.286 110.541 124.405 110.054 122.721 109.081C121.038 108.107 119.604 106.739 118.42 104.977C117.263 103.214 116.434 101.163 115.934 98.8213ZM134.322 98.8213C134.322 97.3218 134.007 96.0065 133.375 94.8753C132.77 93.7178 131.928 92.8234 130.85 92.1921C129.771 91.5344 128.535 91.2056 127.141 91.2056C125.746 91.2056 124.431 91.5344 123.195 92.1921C121.985 92.8234 120.919 93.7178 119.998 94.8753C119.078 96.0065 118.328 97.3218 117.749 98.8213C118.328 100.321 119.078 101.649 119.998 102.807C120.919 103.938 121.985 104.832 123.195 105.49C124.431 106.121 125.746 106.437 127.141 106.437C128.535 106.437 129.771 106.121 130.85 105.49C131.928 104.832 132.77 103.938 133.375 102.807C134.007 101.649 134.322 100.321 134.322 98.8213ZM155.991 110.541C153.386 110.541 151.071 110.054 149.046 109.081C147.02 108.081 145.429 106.7 144.271 104.937C143.114 103.175 142.535 101.123 142.535 98.7818C142.535 96.4668 143.074 94.4413 144.153 92.705C145.258 90.9425 146.77 89.5746 148.691 88.6013C150.637 87.6016 152.86 87.1018 155.359 87.1018C157.858 87.1018 160.016 87.6674 161.831 88.7986C163.672 89.9034 165.093 91.4686 166.092 93.4942C167.092 95.5198 167.592 97.9005 167.592 100.636H146.56V96.7299H165.027L162.462 98.1899C162.383 96.7167 162.028 95.454 161.397 94.4018C160.792 93.3495 159.963 92.5472 158.911 91.9948C157.885 91.416 156.662 91.1267 155.241 91.1267C153.742 91.1267 152.426 91.4292 151.295 92.0342C150.19 92.6393 149.322 93.4942 148.691 94.5991C148.059 95.6776 147.744 96.9667 147.744 98.4661C147.744 100.123 148.112 101.557 148.849 102.767C149.611 103.977 150.677 104.911 152.045 105.569C153.439 106.2 155.083 106.516 156.977 106.516C158.687 106.516 160.437 106.253 162.225 105.727C164.014 105.174 165.593 104.411 166.96 103.438V107.147C165.593 108.199 163.922 109.028 161.949 109.633C160.002 110.238 158.016 110.541 155.991 110.541ZM171.812 109.988V87.6542H176.942V105.648L175.403 105.095L189.648 87.6542H195.488L176.548 109.988H171.812ZM190.201 109.988L183.256 98.9396L186.847 95.704L196.198 109.988H190.201ZM209.981 110.541C207.272 110.541 204.891 110.054 202.839 109.081C200.814 108.081 199.222 106.7 198.065 104.937C196.934 103.175 196.368 101.136 196.368 98.8213C196.368 96.48 196.934 94.4413 198.065 92.705C199.222 90.9425 200.814 89.5746 202.839 88.6013C204.891 87.6016 207.272 87.1018 209.981 87.1018C212.691 87.1018 215.059 87.6016 217.084 88.6013C219.136 89.5746 220.728 90.9425 221.859 92.705C223.016 94.4413 223.595 96.48 223.595 98.8213C223.595 101.136 223.016 103.175 221.859 104.937C220.728 106.7 219.136 108.081 217.084 109.081C215.059 110.054 212.691 110.541 209.981 110.541ZM209.981 106.516C211.718 106.516 213.204 106.2 214.44 105.569C215.703 104.937 216.676 104.056 217.36 102.925C218.044 101.768 218.386 100.4 218.386 98.8213C218.386 97.2429 218.044 95.8881 217.36 94.7569C216.676 93.5995 215.703 92.705 214.44 92.0737C213.204 91.4423 211.718 91.1267 209.981 91.1267C208.272 91.1267 206.785 91.4423 205.523 92.0737C204.26 92.705 203.287 93.5995 202.603 94.7569C201.919 95.8881 201.577 97.2429 201.577 98.8213C201.577 100.4 201.919 101.768 202.603 102.925C203.287 104.056 204.26 104.937 205.523 105.569C206.785 106.2 208.272 106.516 209.981 106.516ZM227.765 109.988V87.6542H235.38L244.772 107.542H242.759L252.072 87.6542H259.687V109.988H254.873V89.351H256.215L246.232 109.988H241.22L231.237 89.4299L232.579 89.3904V109.988H227.765ZM277.336 110.541C274.732 110.541 272.417 110.054 270.391 109.081C268.366 108.081 266.774 106.7 265.617 104.937C264.459 103.175 263.881 101.123 263.881 98.7818C263.881 96.4668 264.42 94.4413 265.498 92.705C266.603 90.9425 268.116 89.5746 270.036 88.6013C271.983 87.6016 274.206 87.1018 276.705 87.1018C279.204 87.1018 281.361 87.6674 283.176 88.7986C285.018 89.9034 286.438 91.4686 287.438 93.4942C288.438 95.5198 288.937 97.9005 288.937 100.636H267.905V96.7299H286.373L283.808 98.1899C283.729 96.7167 283.374 95.454 282.742 94.4018C282.137 93.3495 281.309 92.5472 280.256 91.9948C279.23 91.416 278.007 91.1267 276.587 91.1267C275.087 91.1267 273.772 91.4292 272.641 92.0342C271.536 92.6393 270.668 93.4942 270.036 94.5991C269.405 95.6776 269.089 96.9667 269.089 98.4661C269.089 100.123 269.458 101.557 270.194 102.767C270.957 103.977 272.022 104.911 273.39 105.569C274.785 106.2 276.429 106.516 278.323 106.516C280.033 106.516 281.782 106.253 283.571 105.727C285.36 105.174 286.938 104.411 288.306 103.438V107.147C286.938 108.199 285.268 109.028 283.295 109.633C281.348 110.238 279.362 110.541 277.336 110.541ZM293.158 87.6542H298.248V109.988H293.158V87.6542ZM312.138 87.6542H317.228V109.988H312.138V87.6542ZM296.039 96.6904H314.269V100.636H296.039V96.6904ZM351.599 106.042V115.631H347.14V109.988H324.806V115.631H320.347V106.042H326.108L327.529 106.121H343.826L345.088 106.042H351.599ZM325.319 87.6542H347.456V108.489H342.326V89.2326L344.694 91.6002H328.003L330.212 89.864C330.344 91.0214 330.423 92.1395 330.449 93.218C330.502 94.2703 330.528 95.2567 330.528 96.1775C330.528 100.018 330.002 103.03 328.95 105.214C327.924 107.397 326.477 108.489 324.609 108.489L322.518 106.713C324.675 105.135 325.753 101.294 325.753 95.191C325.753 94.0072 325.714 92.784 325.635 91.5213C325.556 90.2322 325.451 88.9432 325.319 87.6542ZM359.371 117.052C358.055 117.052 356.858 116.881 355.78 116.539C354.728 116.223 353.741 115.776 352.82 115.197V111.29C353.82 111.922 354.767 112.382 355.661 112.672C356.582 112.961 357.608 113.106 358.739 113.106C359.818 113.106 360.778 112.856 361.62 112.356C362.462 111.882 363.159 111.041 363.711 109.83L373.773 87.6542H379.219L367.657 111.567C367.026 112.882 366.276 113.934 365.408 114.723C364.566 115.539 363.632 116.131 362.606 116.499C361.607 116.867 360.528 117.052 359.371 117.052ZM361.936 109.278L351.676 87.6542H357.319L367.026 109.278H361.936ZM393.248 110.541C390.644 110.541 388.329 110.054 386.304 109.081C384.278 108.081 382.686 106.7 381.529 104.937C380.372 103.175 379.793 101.123 379.793 98.7818C379.793 96.4668 380.332 94.4413 381.411 92.705C382.515 90.9425 384.028 89.5746 385.948 88.6013C387.895 87.6016 390.118 87.1018 392.617 87.1018C395.116 87.1018 397.273 87.6674 399.088 88.7986C400.93 89.9034 402.35 91.4686 403.35 93.4942C404.35 95.5198 404.85 97.9005 404.85 100.636H383.818V96.7299H402.285L399.72 98.1899C399.641 96.7167 399.286 95.454 398.654 94.4018C398.049 93.3495 397.221 92.5472 396.168 91.9948C395.143 91.416 393.919 91.1267 392.499 91.1267C390.999 91.1267 389.684 91.4292 388.553 92.0342C387.448 92.6393 386.58 93.4942 385.948 94.5991C385.317 95.6776 385.001 96.9667 385.001 98.4661C385.001 100.123 385.37 101.557 386.106 102.767C386.869 103.977 387.935 104.911 389.303 105.569C390.697 106.2 392.341 106.516 394.235 106.516C395.945 106.516 397.694 106.253 399.483 105.727C401.272 105.174 402.85 104.411 404.218 103.438V107.147C402.85 108.199 401.18 109.028 399.207 109.633C397.26 110.238 395.274 110.541 393.248 110.541ZM409.07 109.988V87.6542H416.686L426.077 107.542H424.065L433.377 87.6542H440.993V109.988H436.179V89.351H437.52L427.537 109.988H422.526L412.543 89.4299L413.884 89.3904V109.988H409.07ZM47.1915 152.988V130.654H52.2423V150.423L50.7033 150.068L65.9742 130.654H72.6033V152.988H67.5525V132.943L69.1309 133.337L53.6628 152.988H47.1915ZM81.9642 130.654H103.943V152.988H98.8134V132.233L101.181 134.6H84.529L86.7388 132.785C86.8703 134.416 86.9755 135.968 87.0545 137.441C87.1597 138.888 87.2123 140.19 87.2123 141.348C87.2123 145.557 86.6204 148.621 85.4366 150.542C84.2528 152.462 82.3456 153.422 79.715 153.422C79.0047 153.422 78.3208 153.343 77.6631 153.186C77.0054 153.028 76.3741 152.778 75.769 152.436V148.608C76.2426 148.792 76.7029 148.937 77.1501 149.042C77.6236 149.148 78.0577 149.2 78.4523 149.2C79.8991 149.2 80.9382 148.529 81.5696 147.188C82.2272 145.846 82.5561 143.663 82.5561 140.637C82.5561 139.322 82.5035 137.823 82.3982 136.139C82.3193 134.455 82.1746 132.627 81.9642 130.654ZM109.386 152.988V130.654H114.437V150.423L112.898 150.068L128.169 130.654H134.798V152.988H129.747V132.943L131.326 133.337L115.858 152.988H109.386ZM163.046 153.541C160.337 153.541 157.956 153.054 155.904 152.081C153.879 151.081 152.287 149.7 151.13 147.937C149.998 146.175 149.433 144.136 149.433 141.821C149.433 139.48 149.998 137.441 151.13 135.705C152.287 133.943 153.879 132.575 155.904 131.601C157.956 130.602 160.337 130.102 163.046 130.102C165.756 130.102 168.123 130.602 170.149 131.601C172.201 132.575 173.792 133.943 174.924 135.705C176.081 137.441 176.66 139.48 176.66 141.821C176.66 144.136 176.081 146.175 174.924 147.937C173.792 149.7 172.201 151.081 170.149 152.081C168.123 153.054 165.756 153.541 163.046 153.541ZM163.046 149.516C164.782 149.516 166.269 149.2 167.505 148.569C168.768 147.937 169.741 147.056 170.425 145.925C171.109 144.768 171.451 143.4 171.451 141.821C171.451 140.243 171.109 138.888 170.425 137.757C169.741 136.599 168.768 135.705 167.505 135.074C166.269 134.442 164.782 134.127 163.046 134.127C161.336 134.127 159.85 134.442 158.587 135.074C157.325 135.705 156.351 136.599 155.667 137.757C154.983 138.888 154.641 140.243 154.641 141.821C154.641 143.4 154.983 144.768 155.667 145.925C156.351 147.056 157.325 147.937 158.587 148.569C159.85 149.2 161.336 149.516 163.046 149.516ZM205.492 144.189C205.229 146.03 204.505 147.661 203.321 149.082C202.138 150.476 200.625 151.568 198.784 152.357C196.942 153.146 194.89 153.541 192.628 153.541C190.05 153.541 187.774 153.054 185.801 152.081C183.855 151.081 182.329 149.7 181.224 147.937C180.119 146.175 179.567 144.136 179.567 141.821C179.567 139.506 180.119 137.468 181.224 135.705C182.329 133.943 183.855 132.575 185.801 131.601C187.774 130.602 190.05 130.102 192.628 130.102C194.89 130.102 196.942 130.496 198.784 131.286C200.625 132.075 202.138 133.18 203.321 134.6C204.505 135.994 205.229 137.625 205.492 139.493H200.323C199.954 137.81 199.073 136.494 197.679 135.547C196.285 134.6 194.601 134.127 192.628 134.127C191.05 134.127 189.668 134.442 188.485 135.074C187.301 135.679 186.38 136.56 185.723 137.717C185.091 138.849 184.775 140.217 184.775 141.821C184.775 143.4 185.091 144.768 185.723 145.925C186.38 147.083 187.301 147.977 188.485 148.608C189.668 149.213 191.05 149.516 192.628 149.516C194.627 149.516 196.324 149.029 197.718 148.056C199.112 147.083 199.981 145.794 200.323 144.189H205.492ZM213.71 160.052C212.394 160.052 211.198 159.881 210.119 159.539C209.067 159.223 208.08 158.776 207.159 158.197V154.29C208.159 154.922 209.106 155.382 210.001 155.672C210.921 155.961 211.947 156.106 213.078 156.106C214.157 156.106 215.117 155.856 215.959 155.356C216.801 154.882 217.498 154.041 218.05 152.83L228.112 130.654H233.558L221.996 154.567C221.365 155.882 220.615 156.934 219.747 157.723C218.905 158.539 217.971 159.131 216.945 159.499C215.946 159.867 214.867 160.052 213.71 160.052ZM216.275 152.278L206.015 130.654H211.658L221.365 152.278H216.275ZM275.458 130.654V150.621L273.879 149.042H279.404V158.631H274.945V151.726L275.813 152.988H236.551V130.654H241.68V150.621L240.102 149.042H255.018L253.439 150.621V130.654H258.569V150.621L256.991 149.042H271.906L270.328 150.621V130.654H275.458ZM294.792 153.541C292.188 153.541 289.873 153.054 287.848 152.081C285.822 151.081 284.23 149.7 283.073 147.937C281.916 146.175 281.337 144.123 281.337 141.782C281.337 139.467 281.876 137.441 282.955 135.705C284.06 133.943 285.572 132.575 287.492 131.601C289.439 130.602 291.662 130.102 294.161 130.102C296.66 130.102 298.817 130.667 300.632 131.799C302.474 132.903 303.894 134.469 304.894 136.494C305.894 138.52 306.394 140.901 306.394 143.636H285.362V139.73H303.829L301.264 141.19C301.185 139.717 300.83 138.454 300.198 137.402C299.593 136.35 298.765 135.547 297.712 134.995C296.687 134.416 295.463 134.127 294.043 134.127C292.543 134.127 291.228 134.429 290.097 135.034C288.992 135.639 288.124 136.494 287.492 137.599C286.861 138.678 286.545 139.967 286.545 141.466C286.545 143.123 286.914 144.557 287.65 145.767C288.413 146.977 289.479 147.911 290.847 148.569C292.241 149.2 293.885 149.516 295.779 149.516C297.489 149.516 299.238 149.253 301.027 148.727C302.816 148.174 304.394 147.411 305.762 146.438V150.147C304.394 151.199 302.724 152.028 300.751 152.633C298.804 153.238 296.818 153.541 294.792 153.541ZM335.276 144.189C335.013 146.03 334.29 147.661 333.106 149.082C331.922 150.476 330.41 151.568 328.568 152.357C326.727 153.146 324.675 153.541 322.413 153.541C319.835 153.541 317.559 153.054 315.586 152.081C313.639 151.081 312.114 149.7 311.009 147.937C309.904 146.175 309.351 144.136 309.351 141.821C309.351 139.506 309.904 137.468 311.009 135.705C312.114 133.943 313.639 132.575 315.586 131.601C317.559 130.602 319.835 130.102 322.413 130.102C324.675 130.102 326.727 130.496 328.568 131.286C330.41 132.075 331.922 133.18 333.106 134.6C334.29 135.994 335.013 137.625 335.276 139.493H330.107C329.739 137.81 328.858 136.494 327.463 135.547C326.069 134.6 324.386 134.127 322.413 134.127C320.834 134.127 319.453 134.442 318.269 135.074C317.086 135.679 316.165 136.56 315.507 137.717C314.876 138.849 314.56 140.217 314.56 141.821C314.56 143.4 314.876 144.768 315.507 145.925C316.165 147.083 317.086 147.977 318.269 148.608C319.453 149.213 320.834 149.516 322.413 149.516C324.412 149.516 326.109 149.029 327.503 148.056C328.897 147.083 329.765 145.794 330.107 144.189H335.276ZM345.268 132.43H350.398V152.988H345.268V132.43ZM335.995 130.654H359.671V134.679H335.995V130.654ZM362.393 152.988L363.537 141.821L362.393 130.654H378.571C380.728 130.654 382.412 131.154 383.622 132.154C384.858 133.153 385.476 134.534 385.476 136.297C385.476 137.928 384.858 139.243 383.622 140.243C382.412 141.216 380.715 141.795 378.532 141.979L378.926 141.032C381.504 141.085 383.477 141.611 384.845 142.61C386.213 143.61 386.897 145.017 386.897 146.833C386.897 148.753 386.2 150.266 384.806 151.37C383.438 152.449 381.531 152.988 379.084 152.988H362.393ZM367.365 151.726L365.392 149.437H377.782C379.176 149.437 380.176 149.174 380.781 148.648C381.412 148.095 381.728 147.332 381.728 146.359C381.728 145.491 381.373 144.768 380.662 144.189C379.978 143.61 378.821 143.321 377.19 143.321H366.496V140.006H376.44C377.782 140.006 378.755 139.743 379.36 139.217C379.992 138.664 380.307 137.954 380.307 137.086C380.307 136.244 380.031 135.56 379.479 135.034C378.953 134.482 378.058 134.206 376.795 134.206H365.431L367.365 131.956L368.469 141.821L367.365 151.726ZM391.036 152.988V130.654H396.087V150.423L394.548 150.068L409.819 130.654H416.448V152.988H411.397V132.943L412.975 133.337L397.507 152.988H391.036ZM421.902 152.988V130.654H429.518L438.909 150.542H436.897L446.209 130.654H453.825V152.988H449.011V132.351H450.352L440.369 152.988H435.358L425.375 132.43L426.716 132.39V152.988H421.902ZM54.2547 175.43H59.3844V195.988H54.2547V175.43ZM44.9817 173.654H68.6574V177.679H44.9817V173.654ZM83.1218 196.541C80.5174 196.541 78.2025 196.054 76.1769 195.081C74.1513 194.081 72.5598 192.7 71.4023 190.937C70.2448 189.175 69.6661 187.123 69.6661 184.782C69.6661 182.467 70.2054 180.441 71.2839 178.705C72.3888 176.943 73.9014 175.575 75.8218 174.601C77.7684 173.602 79.9913 173.102 82.4904 173.102C84.9895 173.102 87.1466 173.667 88.9618 174.799C90.8032 175.903 92.2237 177.469 93.2234 179.494C94.223 181.52 94.7228 183.901 94.7228 186.636H73.6909V182.73H92.158L89.5931 184.19C89.5142 182.717 89.1591 181.454 88.5277 180.402C87.9227 179.35 87.094 178.547 86.0418 177.995C85.0158 177.416 83.7926 177.127 82.372 177.127C80.8726 177.127 79.5573 177.429 78.4261 178.034C77.3212 178.639 76.4531 179.494 75.8218 180.599C75.1904 181.678 74.8747 182.967 74.8747 184.466C74.8747 186.123 75.243 187.557 75.9796 188.767C76.7425 189.977 77.8079 190.911 79.1758 191.569C80.57 192.2 82.2142 192.516 84.1082 192.516C85.8182 192.516 87.5675 192.253 89.3564 191.727C91.1452 191.174 92.7236 190.411 94.0915 189.438V193.147C92.7236 194.199 91.0531 195.028 89.0801 195.633C87.1335 196.238 85.1473 196.541 83.1218 196.541ZM95.1362 195.988L105.909 183.243L105.869 185.768L95.7676 173.654H101.647L109.302 182.73H107.132L114.827 173.654H120.509L110.21 185.847L110.012 182.888L121.14 195.988H115.261L106.895 186.202H109.144L100.858 195.988H95.1362ZM125.973 196.304C125.368 196.304 124.816 196.159 124.316 195.87C123.842 195.581 123.461 195.199 123.172 194.726C122.882 194.226 122.738 193.673 122.738 193.068C122.738 192.463 122.882 191.924 123.172 191.45C123.461 190.951 123.842 190.556 124.316 190.267C124.816 189.977 125.368 189.833 125.973 189.833C126.578 189.833 127.118 189.977 127.591 190.267C128.091 190.556 128.485 190.951 128.775 191.45C129.064 191.924 129.209 192.463 129.209 193.068C129.209 193.673 129.064 194.226 128.775 194.726C128.485 195.199 128.091 195.581 127.591 195.87C127.118 196.159 126.578 196.304 125.973 196.304ZM133.779 173.654H138.869V195.988H133.779V173.654ZM152.759 173.654H157.849V195.988H152.759V173.654ZM136.659 182.69H154.89V186.636H136.659V182.69ZM184.131 195.988L183.263 187.702L184.289 184.821L183.263 181.98L184.131 173.654H189.418L188.235 184.821L189.418 195.988H184.131ZM185.709 184.821C185.209 187.163 184.381 189.214 183.223 190.977C182.066 192.739 180.632 194.107 178.922 195.081C177.239 196.054 175.358 196.541 173.28 196.541C171.096 196.541 169.163 196.054 167.479 195.081C165.795 194.081 164.48 192.7 163.533 190.937C162.586 189.175 162.113 187.136 162.113 184.821C162.113 182.48 162.586 180.441 163.533 178.705C164.48 176.943 165.795 175.575 167.479 174.601C169.163 173.602 171.096 173.102 173.28 173.102C175.358 173.102 177.239 173.588 178.922 174.562C180.632 175.535 182.066 176.903 183.223 178.666C184.407 180.402 185.236 182.454 185.709 184.821ZM167.321 184.821C167.321 186.321 167.624 187.649 168.229 188.807C168.86 189.938 169.715 190.832 170.794 191.49C171.872 192.121 173.109 192.437 174.503 192.437C175.923 192.437 177.239 192.121 178.449 191.49C179.659 190.832 180.724 189.938 181.645 188.807C182.592 187.649 183.342 186.321 183.894 184.821C183.342 183.322 182.592 182.006 181.645 180.875C180.724 179.718 179.659 178.823 178.449 178.192C177.239 177.534 175.923 177.206 174.503 177.206C173.109 177.206 171.872 177.534 170.794 178.192C169.715 178.823 168.86 179.718 168.229 180.875C167.624 182.006 167.321 183.322 167.321 184.821ZM223.279 192.042V201.631H218.82V195.988H196.486V201.631H192.027V192.042H197.788L199.209 192.121H215.505L216.768 192.042H223.279ZM196.999 173.654H219.136V194.489H214.006V175.233L216.374 177.6H199.682L201.892 175.864C202.023 177.021 202.102 178.139 202.129 179.218C202.181 180.27 202.208 181.257 202.208 182.177C202.208 186.018 201.682 189.03 200.629 191.214C199.603 193.397 198.156 194.489 196.289 194.489L194.197 192.713C196.354 191.135 197.433 187.294 197.433 181.191C197.433 180.007 197.394 178.784 197.315 177.521C197.236 176.232 197.131 174.943 196.999 173.654ZM237.411 196.541C235.044 196.541 232.966 196.225 231.177 195.594C229.414 194.962 228.02 194.055 226.994 192.871C225.994 191.687 225.442 190.28 225.337 188.649H230.309C230.519 189.938 231.229 190.924 232.439 191.608C233.676 192.266 235.333 192.595 237.411 192.595C239.411 192.595 240.976 192.332 242.107 191.806C243.238 191.253 243.804 190.411 243.804 189.28C243.804 188.359 243.33 187.675 242.383 187.228C241.463 186.781 239.989 186.557 237.964 186.557H233.544V183.006H237.845C239.661 183.006 241.002 182.73 241.87 182.177C242.765 181.625 243.212 180.941 243.212 180.126C243.212 179.126 242.686 178.363 241.633 177.837C240.581 177.311 239.2 177.048 237.49 177.048C235.596 177.048 234.057 177.35 232.873 177.955C231.69 178.56 230.993 179.468 230.782 180.678H225.81C225.942 179.257 226.481 177.982 227.428 176.85C228.401 175.693 229.756 174.785 231.492 174.128C233.229 173.444 235.294 173.102 237.688 173.102C239.871 173.102 241.765 173.378 243.37 173.93C244.974 174.483 246.211 175.246 247.079 176.219C247.973 177.166 248.421 178.258 248.421 179.494C248.421 180.494 248.105 181.415 247.473 182.256C246.868 183.098 245.908 183.769 244.593 184.269C243.304 184.769 241.633 185.019 239.582 185.019V184.348C242.581 184.243 244.909 184.65 246.566 185.571C248.223 186.465 249.052 187.807 249.052 189.596C249.052 190.937 248.592 192.134 247.671 193.187C246.776 194.239 245.461 195.068 243.725 195.673C241.989 196.251 239.884 196.541 237.411 196.541ZM265.664 196.541C262.954 196.541 260.574 196.054 258.522 195.081C256.496 194.081 254.905 192.7 253.747 190.937C252.616 189.175 252.05 187.136 252.05 184.821C252.05 182.48 252.616 180.441 253.747 178.705C254.905 176.943 256.496 175.575 258.522 174.601C260.574 173.602 262.954 173.102 265.664 173.102C268.374 173.102 270.741 173.602 272.767 174.601C274.819 175.575 276.41 176.943 277.541 178.705C278.699 180.441 279.278 182.48 279.278 184.821C279.278 187.136 278.699 189.175 277.541 190.937C276.41 192.7 274.819 194.081 272.767 195.081C270.741 196.054 268.374 196.541 265.664 196.541ZM265.664 192.516C267.4 192.516 268.887 192.2 270.123 191.569C271.386 190.937 272.359 190.056 273.043 188.925C273.727 187.768 274.069 186.4 274.069 184.821C274.069 183.243 273.727 181.888 273.043 180.757C272.359 179.599 271.386 178.705 270.123 178.074C268.887 177.442 267.4 177.127 265.664 177.127C263.954 177.127 262.468 177.442 261.205 178.074C259.942 178.705 258.969 179.599 258.285 180.757C257.601 181.888 257.259 183.243 257.259 184.821C257.259 186.4 257.601 187.768 258.285 188.925C258.969 190.056 259.942 190.937 261.205 191.569C262.468 192.2 263.954 192.516 265.664 192.516ZM283.447 173.654H288.577V181.428L288.34 182.217V186.715L288.577 188.096V202.499H283.447V173.654ZM286.604 184.821C287.104 182.454 287.932 180.402 289.09 178.666C290.247 176.903 291.668 175.535 293.352 174.562C295.062 173.588 296.956 173.102 299.034 173.102C301.217 173.102 303.151 173.602 304.834 174.601C306.518 175.575 307.833 176.943 308.78 178.705C309.727 180.441 310.201 182.48 310.201 184.821C310.201 187.136 309.727 189.175 308.78 190.937C307.833 192.7 306.518 194.081 304.834 195.081C303.151 196.054 301.217 196.541 299.034 196.541C296.956 196.541 295.075 196.054 293.391 195.081C291.707 194.107 290.274 192.739 289.09 190.977C287.932 189.214 287.104 187.163 286.604 184.821ZM304.992 184.821C304.992 183.322 304.676 182.006 304.045 180.875C303.44 179.718 302.598 178.823 301.52 178.192C300.441 177.534 299.205 177.206 297.811 177.206C296.416 177.206 295.101 177.534 293.865 178.192C292.654 178.823 291.589 179.718 290.668 180.875C289.748 182.006 288.998 183.322 288.419 184.821C288.998 186.321 289.748 187.649 290.668 188.807C291.589 189.938 292.654 190.832 293.865 191.49C295.101 192.121 296.416 192.437 297.811 192.437C299.205 192.437 300.441 192.121 301.52 191.49C302.598 190.832 303.44 189.938 304.045 188.807C304.676 187.649 304.992 186.321 304.992 184.821Z" fill="#2C3041"/>
<rect x="44.4688" y="222.719" width="175.791" height="37.4865" rx="9.659" fill="#11B917"/>
<path d="M63.9993 231.701C62.6167 231.253 61.1136 231.876 60.4524 233.17L59.6576 234.726C59.5631 234.911 59.4128 235.061 59.2279 235.156L57.672 235.95C56.3779 236.612 55.7553 238.115 56.2029 239.497L56.741 241.16C56.8049 241.357 56.8049 241.57 56.741 241.767L56.2029 243.429C55.7553 244.812 56.3779 246.315 57.672 246.976L59.2279 247.771C59.4128 247.866 59.5631 248.016 59.6576 248.201L60.4524 249.757C61.1136 251.051 62.6167 251.674 63.9993 251.226L65.6615 250.688C65.859 250.624 66.0717 250.624 66.2692 250.688L67.9314 251.226C69.3141 251.674 70.8171 251.051 71.4783 249.757L72.2732 248.201C72.3677 248.016 72.518 247.866 72.7029 247.771L74.2588 246.976C75.5529 246.315 76.1755 244.812 75.7279 243.429L75.1898 241.767C75.1259 241.57 75.1259 241.357 75.1898 241.16L75.7279 239.497C76.1755 238.115 75.5529 236.612 74.2588 235.95L72.7029 235.156C72.518 235.061 72.3677 234.911 72.2732 234.726L71.4783 233.17C70.8171 231.876 69.3141 231.253 67.9314 231.701L66.2692 232.239C66.0717 232.303 65.859 232.303 65.6615 232.239L63.9993 231.701ZM60.7959 241.224L62.1911 239.829L64.9812 242.619L70.5617 237.039L71.9568 238.434L64.9812 245.409L60.7959 241.224Z" fill="white"/>
<path d="M104.686 242.861C104.594 243.708 104.295 244.459 103.788 245.112C103.291 245.757 102.637 246.259 101.827 246.618C101.017 246.977 100.092 247.156 99.0512 247.156C97.8911 247.156 96.8737 246.931 95.999 246.48C95.1243 246.028 94.443 245.402 93.955 244.601C93.467 243.791 93.223 242.852 93.223 241.784C93.223 240.716 93.467 239.781 93.955 238.98C94.443 238.17 95.1243 237.539 95.999 237.088C96.8737 236.637 97.8911 236.411 99.0512 236.411C100.092 236.411 101.017 236.591 101.827 236.95C102.637 237.309 103.291 237.811 103.788 238.455C104.295 239.1 104.594 239.85 104.686 240.707H102.849C102.748 240.154 102.527 239.68 102.186 239.284C101.855 238.888 101.422 238.584 100.888 238.373C100.354 238.152 99.7371 238.041 99.0374 238.041C98.2272 238.041 97.5228 238.193 96.9243 238.497C96.3351 238.801 95.8793 239.233 95.5571 239.795C95.2348 240.357 95.0737 241.02 95.0737 241.784C95.0737 242.548 95.2348 243.211 95.5571 243.773C95.8793 244.334 96.3351 244.767 96.9243 245.071C97.5228 245.375 98.2272 245.527 99.0374 245.527C99.7371 245.527 100.354 245.421 100.888 245.209C101.422 244.997 101.855 244.693 102.186 244.297C102.527 243.892 102.748 243.414 102.849 242.861H104.686ZM117.264 236.605V238.221H111.008L111.837 237.392V246.963H110.014V236.605H117.264ZM118.179 244.587V243.082H125.416V244.587H118.179ZM122.985 236.605L127.957 246.963H126.009L121.493 237.295H122.198L117.682 246.963H115.734L120.706 236.605H122.985ZM134.702 236.605C135.476 236.605 136.143 236.743 136.705 237.019C137.276 237.295 137.713 237.682 138.017 238.179C138.33 238.667 138.486 239.233 138.486 239.878C138.486 240.522 138.33 241.093 138.017 241.59C137.713 242.078 137.276 242.461 136.705 242.737C136.143 243.013 135.476 243.151 134.702 243.151H130.048V241.577H134.633C135.259 241.577 135.747 241.425 136.097 241.121C136.456 240.817 136.636 240.403 136.636 239.878C136.636 239.353 136.456 238.939 136.097 238.635C135.747 238.331 135.259 238.179 134.633 238.179H130.227L131.042 237.268V246.963H129.219V236.605H134.702ZM140.068 244.587V243.082H147.305V244.587H140.068ZM144.875 236.605L149.846 246.963H147.899L143.383 237.295H144.087L139.571 246.963H137.624L142.596 236.605H144.875ZM151.109 236.605H152.932V246.963H151.109V236.605ZM159.533 236.605H161.357V246.963H159.533V236.605ZM152.089 240.941H160.404V242.543H152.089V240.941ZM167.021 237.447H168.844V246.963H167.021V237.447ZM162.74 236.605H173.125V238.207H162.74V236.605ZM174.509 246.963V236.605H176.277V246.107L175.655 245.996L182.878 236.605H185.254V246.963H183.486V237.378L184.108 237.489L176.829 246.963H174.509ZM195.851 241.024V242.543H188.614V241.024H195.851ZM189.815 241.784L189.083 246.41L188.213 245.388H196.251V246.963H187.219L188.048 241.784L187.219 236.605H196.182V238.179H188.213L189.083 237.157L189.815 241.784ZM198.152 246.963V236.605H199.92V246.107L199.298 245.996L206.521 236.605H208.897V246.963H207.129V237.378L207.75 237.489L200.472 246.963H198.152ZM200.445 233.635H201.936C202.037 233.985 202.212 234.257 202.461 234.45C202.719 234.634 203.046 234.727 203.442 234.727C203.847 234.727 204.173 234.634 204.422 234.45C204.671 234.257 204.846 233.985 204.947 233.635H206.438C206.282 234.372 205.937 234.924 205.403 235.293C204.869 235.652 204.215 235.831 203.442 235.831C202.668 235.831 202.014 235.652 201.48 235.293C200.946 234.924 200.601 234.372 200.445 233.635Z" fill="white"/>
<path opacity="0.7" d="M48.9711 49.8769H50.7941V59.3926H48.9711V49.8769ZM44.6897 49.0345H55.0755V50.6365H44.6897V49.0345ZM54.4985 51.5757H56.2939V54.2964L56.2111 54.5726V56.147L56.2939 56.6304V61.6714H54.4985V51.5757ZM55.6034 55.4841C55.7783 54.6555 56.0684 53.9373 56.4735 53.3296C56.8786 52.7127 57.3758 52.234 57.965 51.8933C58.5635 51.5526 59.2264 51.3823 59.9538 51.3823C60.718 51.3823 61.3947 51.5572 61.984 51.9071C62.5732 52.2478 63.0336 52.7266 63.3651 53.3434C63.6965 53.9511 63.8623 54.6647 63.8623 55.4841C63.8623 56.2944 63.6965 57.0079 63.3651 57.6248C63.0336 58.2417 62.5732 58.7251 61.984 59.0749C61.3947 59.4156 60.718 59.5859 59.9538 59.5859C59.2264 59.5859 58.5681 59.4156 57.9789 59.0749C57.3896 58.7343 56.8878 58.2555 56.4735 57.6386C56.0684 57.0217 55.7783 56.3036 55.6034 55.4841ZM62.0392 55.4841C62.0392 54.9593 61.9287 54.4989 61.7078 54.103C61.496 53.6979 61.2014 53.3849 60.8239 53.1639C60.4464 52.9337 60.0136 52.8186 59.5257 52.8186C59.0377 52.8186 58.5773 52.9337 58.1446 53.1639C57.7211 53.3849 57.3482 53.6979 57.0259 54.103C56.7037 54.4989 56.4412 54.9593 56.2387 55.4841C56.4412 56.0089 56.7037 56.4739 57.0259 56.879C57.3482 57.2749 57.7211 57.588 58.1446 57.8181C58.5773 58.0391 59.0377 58.1496 59.5257 58.1496C60.0136 58.1496 60.4464 58.0391 60.8239 57.8181C61.2014 57.588 61.496 57.2749 61.7078 56.879C61.9287 56.4739 62.0392 56.0089 62.0392 55.4841ZM69.6232 59.5859C68.7117 59.5859 67.9015 59.4156 67.1925 59.0749C66.4835 58.7251 65.9265 58.2417 65.5214 57.6248C65.1163 57.0079 64.9137 56.2897 64.9137 55.4703C64.9137 54.6601 65.1025 53.9511 65.48 53.3434C65.8667 52.7266 66.3961 52.2478 67.0682 51.9071C67.7495 51.5572 68.5275 51.3823 69.4022 51.3823C70.2769 51.3823 71.0319 51.5803 71.6672 51.9762C72.3117 52.3629 72.8089 52.9107 73.1588 53.6197C73.5086 54.3286 73.6836 55.1619 73.6836 56.1194H66.3224V54.7521H72.7859L71.8882 55.2631C71.8606 54.7475 71.7363 54.3056 71.5153 53.9373C71.3035 53.569 71.0135 53.2882 70.6452 53.0948C70.2861 52.8923 69.858 52.791 69.3608 52.791C68.836 52.791 68.3756 52.8969 67.9797 53.1087C67.593 53.3204 67.2892 53.6197 67.0682 54.0064C66.8472 54.3839 66.7367 54.835 66.7367 55.3598C66.7367 55.9399 66.8656 56.4417 67.1234 56.8652C67.3905 57.2887 67.7633 57.6156 68.2421 57.8458C68.7301 58.0667 69.3056 58.1772 69.9685 58.1772C70.5669 58.1772 71.1792 58.0852 71.8053 57.901C72.4314 57.7077 72.9838 57.4407 73.4626 57.1V58.3982C72.9838 58.7665 72.3992 59.0565 71.7086 59.2683C71.0273 59.48 70.3322 59.5859 69.6232 59.5859ZM77.2688 52.1971H79.0642V59.3926H77.2688V52.1971ZM74.0232 51.5757H82.3097V52.9844H74.0232V51.5757ZM83.4419 59.3926V51.5757H85.2097V58.4949L84.671 58.3706L90.0158 51.5757H92.3361V59.3926H90.5683V52.3767L91.1207 52.5148L85.7069 59.3926H83.4419ZM94.2451 59.3926V51.5757H96.0129V58.4949L95.4742 58.3706L100.819 51.5757H103.139V59.3926H101.371V52.3767L101.924 52.5148L96.51 59.3926H94.2451ZM98.6507 50.7884C97.8221 50.7884 97.1545 50.5813 96.6482 50.167C96.151 49.7526 95.8425 49.1542 95.7228 48.3716H97.173C97.2466 48.7951 97.4124 49.1219 97.6702 49.3521C97.928 49.5731 98.2548 49.6836 98.6507 49.6836C99.0466 49.6836 99.3735 49.5731 99.6313 49.3521C99.8891 49.1219 100.055 48.7951 100.128 48.3716H101.565C101.454 49.1542 101.146 49.7526 100.639 50.167C100.133 50.5813 99.4702 50.7884 98.6507 50.7884ZM112.667 59.5859C111.884 59.5859 111.171 59.4524 110.526 59.1854C109.891 58.9184 109.366 58.5501 108.952 58.0806C108.538 57.611 108.271 57.0678 108.151 56.4509H109.974C110.121 56.9849 110.439 57.4176 110.927 57.7491C111.415 58.0713 111.995 58.2325 112.667 58.2325C113.238 58.2325 113.735 58.122 114.159 57.901C114.582 57.68 114.909 57.3624 115.139 56.9481C115.369 56.5337 115.484 56.0458 115.484 55.4841C115.484 54.9133 115.369 54.4253 115.139 54.0202C114.909 53.6058 114.582 53.2882 114.159 53.0672C113.735 52.8463 113.238 52.7358 112.667 52.7358C111.995 52.7358 111.415 52.9015 110.927 53.233C110.439 53.5644 110.121 53.9879 109.974 54.5036H108.151C108.271 53.8867 108.538 53.348 108.952 52.8877C109.366 52.4181 109.891 52.0498 110.526 51.7828C111.171 51.5158 111.884 51.3823 112.667 51.3823C113.578 51.3823 114.38 51.5572 115.07 51.9071C115.761 52.2478 116.299 52.7266 116.686 53.3434C117.073 53.9603 117.266 54.6739 117.266 55.4841C117.266 56.2944 117.073 57.0079 116.686 57.6248C116.299 58.2417 115.761 58.7251 115.07 59.0749C114.38 59.4156 113.578 59.5859 112.667 59.5859ZM116.327 56.1332H111.424V54.835H116.327V56.1332ZM120.859 52.1971H122.655V59.3926H120.859V52.1971ZM117.614 51.5757H125.9V52.9844H117.614V51.5757ZM134.001 59.3926L133.697 56.4923L134.056 55.4841L133.697 54.4897L134.001 51.5757H135.851L135.437 55.4841L135.851 59.3926H134.001ZM134.553 55.4841C134.378 56.3036 134.088 57.0217 133.683 57.6386C133.278 58.2555 132.776 58.7343 132.178 59.0749C131.588 59.4156 130.93 59.5859 130.203 59.5859C129.439 59.5859 128.762 59.4156 128.173 59.0749C127.583 58.7251 127.123 58.2417 126.791 57.6248C126.46 57.0079 126.294 56.2944 126.294 55.4841C126.294 54.6647 126.46 53.9511 126.791 53.3434C127.123 52.7266 127.583 52.2478 128.173 51.9071C128.762 51.5572 129.439 51.3823 130.203 51.3823C130.93 51.3823 131.588 51.5526 132.178 51.8933C132.776 52.234 133.278 52.7127 133.683 53.3296C134.097 53.9373 134.387 54.6555 134.553 55.4841ZM128.117 55.4841C128.117 56.0089 128.223 56.4739 128.435 56.879C128.656 57.2749 128.955 57.588 129.333 57.8181C129.71 58.0391 130.143 58.1496 130.631 58.1496C131.128 58.1496 131.588 58.0391 132.012 57.8181C132.435 57.588 132.808 57.2749 133.131 56.879C133.462 56.4739 133.724 56.0089 133.918 55.4841C133.724 54.9593 133.462 54.4989 133.131 54.103C132.808 53.6979 132.435 53.3849 132.012 53.1639C131.588 52.9337 131.128 52.8186 130.631 52.8186C130.143 52.8186 129.71 52.9337 129.333 53.1639C128.955 53.3849 128.656 53.6979 128.435 54.103C128.223 54.4989 128.117 54.9593 128.117 55.4841ZM145.949 51.5757V59.3926H144.153V52.1419L144.982 52.9567H138.546L139.375 52.1419V59.3926H137.579V51.5757H145.949Z" fill="#2C3041"/>
</svg>
