<svg width="615" height="640" viewBox="0 0 615 640" fill="none" xmlns="http://www.w3.org/2000/svg">
<rect x="0.540149" y="0.540149" width="613.609" height="638.456" rx="31.8688" fill="white"/>
<rect x="0.540149" y="0.540149" width="613.609" height="638.456" rx="31.8688" stroke="#BEBEBE" stroke-width="1.0803"/>
<path d="M52.2431 121.02V88.6106H57.9471V116.223L56.2186 115.143L77.911 88.6106H84.0903L57.3421 121.02H52.2431ZM67.6697 104.729L71.6884 100.796L84.5656 121.02H78.0406L67.6697 104.729ZM108.803 121.02L107.852 111.945L108.976 108.791L107.852 105.679L108.803 96.5616H114.593L113.297 108.791L114.593 121.02H108.803ZM110.532 108.791C109.984 111.354 109.077 113.601 107.809 115.532C106.542 117.462 104.972 118.96 103.099 120.026C101.255 121.092 99.1956 121.624 96.9198 121.624C94.5288 121.624 92.4114 121.092 90.5677 120.026C88.724 118.931 87.2836 117.419 86.2465 115.488C85.2094 113.558 84.6908 111.326 84.6908 108.791C84.6908 106.227 85.2094 103.994 86.2465 102.093C87.2836 100.163 88.724 98.6646 90.5677 97.5987C92.4114 96.504 94.5288 95.9566 96.9198 95.9566C99.1956 95.9566 101.255 96.4896 103.099 97.5555C104.972 98.6214 106.542 100.119 107.809 102.049C109.106 103.951 110.013 106.198 110.532 108.791ZM90.3948 108.791C90.3948 110.433 90.7261 111.887 91.3887 113.155C92.0801 114.394 93.0163 115.373 94.1975 116.093C95.3786 116.785 96.7326 117.13 98.2594 117.13C99.815 117.13 101.255 116.785 102.581 116.093C103.906 115.373 105.072 114.394 106.081 113.155C107.118 111.887 107.939 110.433 108.544 108.791C107.939 107.149 107.118 105.708 106.081 104.469C105.072 103.202 103.906 102.222 102.581 101.531C101.255 100.811 99.815 100.451 98.2594 100.451C96.7326 100.451 95.3786 100.811 94.1975 101.531C93.0163 102.222 92.0801 103.202 91.3887 104.469C90.7261 105.708 90.3948 107.149 90.3948 108.791ZM151.674 116.698V127.199H146.791V121.02H122.333V127.199H117.45V116.698H123.759L125.315 116.785H143.161L144.544 116.698H151.674ZM122.895 96.5616H147.137V119.377H141.519V98.2901L144.112 100.883H125.833L128.253 98.9815C128.397 100.249 128.484 101.473 128.512 102.654C128.57 103.807 128.599 104.887 128.599 105.895C128.599 110.101 128.023 113.4 126.87 115.791C125.747 118.182 124.162 119.377 122.117 119.377L119.827 117.433C122.189 115.704 123.37 111.499 123.37 104.815C123.37 103.519 123.327 102.179 123.241 100.796C123.154 99.3848 123.039 97.9732 122.895 96.5616ZM178.01 121.02L177.059 111.945L178.183 108.791L177.059 105.679L178.01 96.5616H183.8L182.504 108.791L183.8 121.02H178.01ZM179.738 108.791C179.191 111.354 178.283 113.601 177.016 115.532C175.748 117.462 174.178 118.96 172.306 120.026C170.462 121.092 168.402 121.624 166.126 121.624C163.735 121.624 161.618 121.092 159.774 120.026C157.931 118.931 156.49 117.419 155.453 115.488C154.416 113.558 153.897 111.326 153.897 108.791C153.897 106.227 154.416 103.994 155.453 102.093C156.49 100.163 157.931 98.6646 159.774 97.5987C161.618 96.504 163.735 95.9566 166.126 95.9566C168.402 95.9566 170.462 96.4896 172.306 97.5555C174.178 98.6214 175.748 100.119 177.016 102.049C178.312 103.951 179.22 106.198 179.738 108.791ZM159.601 108.791C159.601 110.433 159.933 111.887 160.595 113.155C161.287 114.394 162.223 115.373 163.404 116.093C164.585 116.785 165.939 117.13 167.466 117.13C169.022 117.13 170.462 116.785 171.787 116.093C173.112 115.373 174.279 114.394 175.287 113.155C176.324 111.887 177.145 110.433 177.75 108.791C177.145 107.149 176.324 105.708 175.287 104.469C174.279 103.202 173.112 102.222 171.787 101.531C170.462 100.811 169.022 100.451 167.466 100.451C165.939 100.451 164.585 100.811 163.404 101.531C162.223 102.222 161.287 103.202 160.595 104.469C159.933 105.708 159.601 107.149 159.601 108.791ZM216.214 111.383C215.926 113.4 215.133 115.186 213.837 116.742C212.541 118.268 210.884 119.464 208.868 120.328C206.851 121.192 204.604 121.624 202.127 121.624C199.303 121.624 196.812 121.092 194.651 120.026C192.519 118.931 190.848 117.419 189.638 115.488C188.428 113.558 187.824 111.326 187.824 108.791C187.824 106.255 188.428 104.023 189.638 102.093C190.848 100.163 192.519 98.6646 194.651 97.5987C196.812 96.504 199.303 95.9566 202.127 95.9566C204.604 95.9566 206.851 96.3887 208.868 97.253C210.884 98.1172 212.541 99.3271 213.837 100.883C215.133 102.41 215.926 104.196 216.214 106.241H210.553C210.15 104.397 209.185 102.957 207.658 101.92C206.131 100.883 204.287 100.364 202.127 100.364C200.398 100.364 198.886 100.71 197.589 101.401C196.293 102.064 195.285 103.029 194.565 104.297C193.873 105.535 193.527 107.033 193.527 108.791C193.527 110.519 193.873 112.017 194.565 113.285C195.285 114.552 196.293 115.532 197.589 116.223C198.886 116.886 200.398 117.217 202.127 117.217C204.316 117.217 206.174 116.684 207.701 115.618C209.228 114.552 210.178 113.141 210.553 111.383H216.214ZM227.156 98.5061H232.773V121.02H227.156V98.5061ZM217.001 96.5616H242.928V100.969H217.001V96.5616ZM246.471 96.5616H252.088V105.074L251.829 105.939V110.865L252.088 112.377V128.149H246.471V96.5616ZM249.927 108.791C250.475 106.198 251.382 103.951 252.65 102.049C253.917 100.119 255.473 98.6214 257.317 97.5555C259.189 96.4896 261.263 95.9566 263.539 95.9566C265.93 95.9566 268.048 96.504 269.891 97.5987C271.735 98.6646 273.175 100.163 274.213 102.093C275.25 103.994 275.768 106.227 275.768 108.791C275.768 111.326 275.25 113.558 274.213 115.488C273.175 117.419 271.735 118.931 269.891 120.026C268.048 121.092 265.93 121.624 263.539 121.624C261.263 121.624 259.204 121.092 257.36 120.026C255.516 118.96 253.946 117.462 252.65 115.532C251.382 113.601 250.475 111.354 249.927 108.791ZM270.064 108.791C270.064 107.149 269.719 105.708 269.027 104.469C268.365 103.202 267.443 102.222 266.262 101.531C265.08 100.811 263.726 100.451 262.2 100.451C260.673 100.451 259.232 100.811 257.878 101.531C256.553 102.222 255.387 103.202 254.378 104.469C253.37 105.708 252.549 107.149 251.915 108.791C252.549 110.433 253.37 111.887 254.378 113.155C255.387 114.394 256.553 115.373 257.878 116.093C259.232 116.785 260.673 117.13 262.2 117.13C263.726 117.13 265.08 116.785 266.262 116.093C267.443 115.373 268.365 114.394 269.027 113.155C269.719 111.887 270.064 110.433 270.064 108.791ZM293.966 121.624C290.999 121.624 288.392 121.092 286.145 120.026C283.927 118.931 282.184 117.419 280.916 115.488C279.677 113.558 279.058 111.326 279.058 108.791C279.058 106.227 279.677 103.994 280.916 102.093C282.184 100.163 283.927 98.6646 286.145 97.5987C288.392 96.504 290.999 95.9566 293.966 95.9566C296.933 95.9566 299.526 96.504 301.744 97.5987C303.991 98.6646 305.734 100.163 306.973 102.093C308.241 103.994 308.874 106.227 308.874 108.791C308.874 111.326 308.241 113.558 306.973 115.488C305.734 117.419 303.991 118.931 301.744 120.026C299.526 121.092 296.933 121.624 293.966 121.624ZM293.966 117.217C295.867 117.217 297.495 116.871 298.849 116.18C300.232 115.488 301.298 114.523 302.047 113.285C302.796 112.017 303.17 110.519 303.17 108.791C303.17 107.062 302.796 105.578 302.047 104.34C301.298 103.072 300.232 102.093 298.849 101.401C297.495 100.71 295.867 100.364 293.966 100.364C292.094 100.364 290.466 100.71 289.083 101.401C287.7 102.093 286.635 103.072 285.886 104.34C285.137 105.578 284.762 107.062 284.762 108.791C284.762 110.519 285.137 112.017 285.886 113.285C286.635 114.523 287.7 115.488 289.083 116.18C290.466 116.871 292.094 117.217 293.966 117.217ZM312.879 121.02L314.132 108.791L312.879 96.5616H330.596C332.958 96.5616 334.802 97.1089 336.127 98.2036C337.481 99.2983 338.158 100.811 338.158 102.741C338.158 104.527 337.481 105.967 336.127 107.062C334.802 108.128 332.944 108.762 330.552 108.963L330.985 107.926C333.808 107.984 335.968 108.56 337.466 109.655C338.964 110.749 339.713 112.291 339.713 114.278C339.713 116.381 338.95 118.038 337.423 119.248C335.925 120.429 333.837 121.02 331.157 121.02H312.879ZM318.323 119.637L316.163 117.13H329.731C331.258 117.13 332.353 116.842 333.016 116.266C333.707 115.661 334.053 114.826 334.053 113.76C334.053 112.809 333.664 112.017 332.886 111.383C332.137 110.749 330.869 110.433 329.083 110.433H317.373V106.803H328.262C329.731 106.803 330.797 106.515 331.46 105.939C332.151 105.334 332.497 104.556 332.497 103.605C332.497 102.683 332.195 101.934 331.59 101.358C331.013 100.753 330.034 100.451 328.651 100.451H316.206L318.323 97.9876L319.533 108.791L318.323 119.637ZM371.729 96.5616H377.346V121.02H371.729V96.5616ZM344.246 121.02V96.5616H349.863V119.464L347.876 116.871H358.333C359.86 116.871 361.055 116.497 361.92 115.748C362.784 114.97 363.216 113.918 363.216 112.593C363.216 111.239 362.784 110.188 361.92 109.439C361.055 108.661 359.86 108.272 358.333 108.272H348.049V104.253H359.068C361.055 104.253 362.784 104.613 364.253 105.334C365.722 106.025 366.86 107.004 367.667 108.272C368.502 109.511 368.92 110.966 368.92 112.636C368.92 114.307 368.502 115.776 367.667 117.044C366.86 118.312 365.722 119.291 364.253 119.982C362.784 120.674 361.07 121.02 359.111 121.02H344.246ZM383.322 121.02V96.5616H388.853V118.211L387.168 117.822L403.891 96.5616H411.151V121.02H405.62V99.0679L407.348 99.5L390.409 121.02H383.322ZM397.107 94.0985C394.514 94.0985 392.426 93.4503 390.841 92.154C389.286 90.8576 388.32 88.9851 387.946 86.5364H392.483C392.714 87.8616 393.232 88.8843 394.039 89.6045C394.845 90.2959 395.868 90.6416 397.107 90.6416C398.346 90.6416 399.368 90.2959 400.175 89.6045C400.982 88.8843 401.5 87.8616 401.731 86.5364H406.225C405.879 88.9851 404.914 90.8576 403.329 92.154C401.745 93.4503 399.671 94.0985 397.107 94.0985ZM57.4717 176.754C56.0313 176.754 54.7206 176.567 53.5394 176.193C52.3871 175.847 51.3068 175.357 50.2985 174.724V170.446C51.3932 171.137 52.4303 171.641 53.4098 171.958C54.4181 172.275 55.5416 172.433 56.7803 172.433C57.9615 172.433 59.0129 172.16 59.9348 171.612C60.8567 171.094 61.6201 170.172 62.225 168.847L73.2441 144.562H79.2073L66.5462 170.748C65.8548 172.188 65.0338 173.341 64.0831 174.205C63.1613 175.098 62.1386 175.746 61.0151 176.149C59.9204 176.553 58.7393 176.754 57.4717 176.754ZM60.2805 168.242L49.0454 144.562H55.2247L65.8548 168.242H60.2805ZM91.3431 161.457C88.0014 161.457 85.4519 160.55 83.6946 158.735C81.9373 156.891 81.0587 154.212 81.0587 150.698V144.562H86.633V150.482C86.633 154.803 88.664 156.963 92.7259 156.963C94.3968 156.963 95.9668 156.574 97.436 155.797C98.934 155.019 100.302 153.852 101.541 152.297L101.887 156.272C100.879 157.914 99.4381 159.196 97.5656 160.118C95.7219 161.011 93.6478 161.457 91.3431 161.457ZM100.85 169.02V144.562H106.467V169.02H100.85ZM125.799 169.624C122.947 169.624 120.411 169.092 118.193 168.026C115.975 166.931 114.232 165.419 112.965 163.488C111.697 161.558 111.063 159.311 111.063 156.747C111.063 154.212 111.654 151.994 112.835 150.093C114.045 148.163 115.701 146.665 117.804 145.599C119.936 144.504 122.37 143.957 125.107 143.957C127.844 143.957 130.206 144.576 132.194 145.815C134.21 147.025 135.766 148.739 136.861 150.957C137.955 153.175 138.503 155.782 138.503 158.778H115.471V154.5H135.694L132.885 156.099C132.799 154.486 132.41 153.103 131.719 151.951C131.056 150.799 130.149 149.92 128.996 149.315C127.873 148.681 126.533 148.364 124.978 148.364C123.335 148.364 121.895 148.696 120.656 149.358C119.446 150.021 118.496 150.957 117.804 152.167C117.113 153.348 116.767 154.76 116.767 156.402C116.767 158.217 117.171 159.787 117.977 161.112C118.813 162.437 119.979 163.46 121.477 164.18C123.004 164.871 124.805 165.217 126.879 165.217C128.751 165.217 130.667 164.929 132.626 164.353C134.585 163.748 136.313 162.912 137.811 161.846V165.908C136.313 167.061 134.484 167.968 132.324 168.631C130.192 169.293 128.017 169.624 125.799 169.624ZM149.72 146.506H155.338V169.02H149.72V146.506ZM139.566 144.562H165.493V148.969H139.566V144.562ZM179.205 169.02V144.562H184.736V166.211L183.051 165.822L199.774 144.562H207.034V169.02H201.502V147.068L203.231 147.5L186.292 169.02H179.205ZM223.881 169.02L225.134 156.791L223.881 144.562H241.598C243.96 144.562 245.804 145.109 247.129 146.204C248.483 147.298 249.16 148.811 249.16 150.741C249.16 152.527 248.483 153.967 247.129 155.062C245.804 156.128 243.946 156.762 241.554 156.963L241.987 155.926C244.81 155.984 246.97 156.56 248.468 157.655C249.966 158.749 250.715 160.291 250.715 162.278C250.715 164.381 249.952 166.038 248.425 167.248C246.927 168.429 244.839 169.02 242.159 169.02H223.881ZM229.326 167.637L227.165 165.13H240.733C242.26 165.13 243.355 164.842 244.018 164.266C244.709 163.661 245.055 162.826 245.055 161.76C245.055 160.809 244.666 160.017 243.888 159.383C243.139 158.749 241.871 158.433 240.085 158.433H228.375V154.803H239.264C240.733 154.803 241.799 154.515 242.462 153.939C243.153 153.334 243.499 152.556 243.499 151.605C243.499 150.683 243.197 149.934 242.592 149.358C242.015 148.753 241.036 148.451 239.653 148.451H227.208L229.326 145.988L230.535 156.791L229.326 167.637ZM254.686 169.02L255.939 156.791L254.686 144.562H272.403C274.765 144.562 276.609 145.109 277.934 146.204C279.288 147.298 279.965 148.811 279.965 150.741C279.965 152.527 279.288 153.967 277.934 155.062C276.609 156.128 274.751 156.762 272.36 156.963L272.792 155.926C275.615 155.984 277.776 156.56 279.274 157.655C280.772 158.749 281.521 160.291 281.521 162.278C281.521 164.381 280.757 166.038 279.231 167.248C277.733 168.429 275.644 169.02 272.965 169.02H254.686ZM260.131 167.637L257.97 165.13H271.539C273.066 165.13 274.16 164.842 274.823 164.266C275.514 163.661 275.86 162.826 275.86 161.76C275.86 160.809 275.471 160.017 274.693 159.383C273.944 158.749 272.677 158.433 270.891 158.433H259.18V154.803H270.07C271.539 154.803 272.605 154.515 273.267 153.939C273.959 153.334 274.304 152.556 274.304 151.605C274.304 150.683 274.002 149.934 273.397 149.358C272.821 148.753 271.841 148.451 270.459 148.451H258.014L260.131 145.988L261.341 156.791L260.131 167.637ZM299.579 169.624C296.611 169.624 294.004 169.092 291.757 168.026C289.539 166.931 287.796 165.419 286.529 163.488C285.29 161.558 284.671 159.326 284.671 156.791C284.671 154.227 285.29 151.994 286.529 150.093C287.796 148.163 289.539 146.665 291.757 145.599C294.004 144.504 296.611 143.957 299.579 143.957C302.546 143.957 305.139 144.504 307.357 145.599C309.604 146.665 311.347 148.163 312.585 150.093C313.853 151.994 314.487 154.227 314.487 156.791C314.487 159.326 313.853 161.558 312.585 163.488C311.347 165.419 309.604 166.931 307.357 168.026C305.139 169.092 302.546 169.624 299.579 169.624ZM299.579 165.217C301.48 165.217 303.108 164.871 304.462 164.18C305.844 163.488 306.91 162.523 307.659 161.285C308.408 160.017 308.783 158.519 308.783 156.791C308.783 155.062 308.408 153.578 307.659 152.34C306.91 151.072 305.844 150.093 304.462 149.401C303.108 148.71 301.48 148.364 299.579 148.364C297.706 148.364 296.078 148.71 294.696 149.401C293.313 150.093 292.247 151.072 291.498 152.34C290.749 153.578 290.375 155.062 290.375 156.791C290.375 158.519 290.749 160.017 291.498 161.285C292.247 162.523 293.313 163.488 294.696 164.18C296.078 164.871 297.706 165.217 299.579 165.217ZM349.799 164.698V175.199H344.916V169.02H320.458V175.199H315.575V164.698H321.884L323.44 164.785H341.286L342.669 164.698H349.799ZM321.02 144.562H345.262V167.377H339.644V146.29L342.237 148.883H323.958L326.378 146.981C326.522 148.249 326.609 149.473 326.637 150.654C326.695 151.807 326.724 152.887 326.724 153.895C326.724 158.101 326.148 161.4 324.995 163.791C323.872 166.182 322.287 167.377 320.242 167.377L317.952 165.433C320.314 163.704 321.495 159.499 321.495 152.815C321.495 151.519 321.452 150.179 321.366 148.796C321.279 147.385 321.164 145.973 321.02 144.562ZM51.0331 217.02L52.2863 204.791L51.0331 192.562H68.75C71.1123 192.562 72.956 193.109 74.2812 194.204C75.6351 195.298 76.3121 196.811 76.3121 198.741C76.3121 200.527 75.6351 201.967 74.2812 203.062C72.956 204.128 71.0979 204.762 68.7068 204.963L69.1389 203.926C71.9621 203.984 74.1227 204.56 75.6207 205.655C77.1187 206.749 77.8678 208.291 77.8678 210.278C77.8678 212.381 77.1043 214.038 75.5775 215.248C74.0795 216.429 71.9909 217.02 69.3118 217.02H51.0331ZM56.4779 215.637L54.3173 213.13H67.8858C69.4126 213.13 70.5073 212.842 71.1699 212.266C71.8613 211.661 72.207 210.826 72.207 209.76C72.207 208.809 71.8181 208.017 71.0403 207.383C70.2913 206.749 69.0237 206.433 67.2376 206.433H55.5272V202.803H66.4166C67.8858 202.803 68.9517 202.515 69.6143 201.939C70.3057 201.334 70.6514 200.556 70.6514 199.605C70.6514 198.683 70.3489 197.934 69.7439 197.358C69.1678 196.753 68.1883 196.451 66.8055 196.451H54.3605L56.4779 193.988L57.6878 204.791L56.4779 215.637ZM106.238 217.624C103.789 217.624 101.557 217.207 99.5402 216.371C97.5525 215.536 95.9104 214.384 94.6141 212.914C93.3177 211.445 92.4823 209.746 92.1078 207.815H97.8117C98.2727 209.486 99.2665 210.84 100.793 211.877C102.32 212.886 104.135 213.39 106.238 213.39C108.024 213.39 109.58 213.044 110.905 212.353C112.23 211.661 113.253 210.667 113.973 209.371C114.693 208.075 115.053 206.548 115.053 204.791C115.053 203.004 114.693 201.478 113.973 200.21C113.253 198.914 112.23 197.92 110.905 197.228C109.58 196.537 108.024 196.191 106.238 196.191C104.135 196.191 102.32 196.71 100.793 197.747C99.2665 198.784 98.2727 200.109 97.8117 201.723H92.1078C92.4823 199.792 93.3177 198.107 94.6141 196.667C95.9104 195.198 97.5525 194.045 99.5402 193.21C101.557 192.374 103.789 191.957 106.238 191.957C109.09 191.957 111.596 192.504 113.757 193.599C115.918 194.665 117.603 196.163 118.813 198.093C120.023 200.023 120.628 202.255 120.628 204.791C120.628 207.326 120.023 209.558 118.813 211.488C117.603 213.419 115.918 214.931 113.757 216.026C111.596 217.092 109.09 217.624 106.238 217.624ZM117.689 206.822H102.349V202.76H117.689V206.822ZM125.19 217.02V192.562H130.808V212.266L129.122 211.661L144.722 192.562H151.117L130.376 217.02H125.19ZM145.327 217.02L137.722 204.92L141.654 201.377L151.895 217.02H145.327ZM180.471 207.383C180.183 209.4 179.391 211.186 178.094 212.742C176.798 214.268 175.142 215.464 173.125 216.328C171.108 217.192 168.861 217.624 166.384 217.624C163.561 217.624 161.069 217.092 158.908 216.026C156.777 214.931 155.106 213.419 153.896 211.488C152.686 209.558 152.081 207.326 152.081 204.791C152.081 202.255 152.686 200.023 153.896 198.093C155.106 196.163 156.777 194.665 158.908 193.599C161.069 192.504 163.561 191.957 166.384 191.957C168.861 191.957 171.108 192.389 173.125 193.253C175.142 194.117 176.798 195.327 178.094 196.883C179.391 198.41 180.183 200.196 180.471 202.241H174.81C174.407 200.397 173.442 198.957 171.915 197.92C170.388 196.883 168.545 196.364 166.384 196.364C164.656 196.364 163.143 196.71 161.847 197.401C160.55 198.064 159.542 199.029 158.822 200.297C158.131 201.535 157.785 203.033 157.785 204.791C157.785 206.519 158.131 208.017 158.822 209.285C159.542 210.552 160.55 211.532 161.847 212.223C163.143 212.886 164.656 213.217 166.384 213.217C168.573 213.217 170.432 212.684 171.958 211.618C173.485 210.552 174.436 209.141 174.81 207.383H180.471ZM210.92 192.562V217.02H205.302V194.333L207.895 196.883H187.758L190.351 194.333V217.02H184.733V192.562H210.92ZM221.167 192.562H245.236V217.02H239.618V194.29L242.211 196.883H223.976L226.396 194.895C226.54 196.681 226.655 198.381 226.741 199.994C226.856 201.578 226.914 203.004 226.914 204.272C226.914 208.881 226.266 212.237 224.97 214.34C223.673 216.443 221.585 217.495 218.704 217.495C217.926 217.495 217.177 217.408 216.457 217.236C215.737 217.063 215.045 216.789 214.383 216.415V212.223C214.901 212.425 215.405 212.583 215.895 212.698C216.414 212.814 216.889 212.871 217.321 212.871C218.905 212.871 220.043 212.137 220.735 210.667C221.455 209.198 221.815 206.807 221.815 203.494C221.815 202.054 221.757 200.412 221.642 198.568C221.556 196.724 221.397 194.722 221.167 192.562ZM257.074 224.754C255.633 224.754 254.322 224.567 253.141 224.193C251.989 223.847 250.909 223.357 249.9 222.724V218.446C250.995 219.137 252.032 219.641 253.012 219.958C254.02 220.275 255.144 220.433 256.382 220.433C257.563 220.433 258.615 220.16 259.537 219.612C260.459 219.094 261.222 218.172 261.827 216.847L272.846 192.562H278.809L266.148 218.748C265.457 220.188 264.636 221.341 263.685 222.205C262.763 223.098 261.741 223.746 260.617 224.149C259.522 224.553 258.341 224.754 257.074 224.754ZM259.882 216.242L248.647 192.562H254.827L265.457 216.242H259.882ZM303.721 217.02L302.77 207.945L303.894 204.791L302.77 201.679L303.721 192.562H309.511L308.215 204.791L309.511 217.02H303.721ZM305.449 204.791C304.902 207.354 303.995 209.601 302.727 211.532C301.459 213.462 299.889 214.96 298.017 216.026C296.173 217.092 294.113 217.624 291.838 217.624C289.447 217.624 287.329 217.092 285.485 216.026C283.642 214.931 282.201 213.419 281.164 211.488C280.127 209.558 279.609 207.326 279.609 204.791C279.609 202.227 280.127 199.994 281.164 198.093C282.201 196.163 283.642 194.665 285.485 193.599C287.329 192.504 289.447 191.957 291.838 191.957C294.113 191.957 296.173 192.49 298.017 193.555C299.889 194.621 301.459 196.119 302.727 198.049C304.023 199.951 304.931 202.198 305.449 204.791ZM285.313 204.791C285.313 206.433 285.644 207.887 286.307 209.155C286.998 210.394 287.934 211.373 289.115 212.093C290.296 212.785 291.65 213.13 293.177 213.13C294.733 213.13 296.173 212.785 297.498 212.093C298.824 211.373 299.99 210.394 300.999 209.155C302.036 207.887 302.857 206.433 303.462 204.791C302.857 203.149 302.036 201.708 300.999 200.469C299.99 199.202 298.824 198.222 297.498 197.531C296.173 196.811 294.733 196.451 293.177 196.451C291.65 196.451 290.296 196.811 289.115 197.531C287.934 198.222 286.998 199.202 286.307 200.469C285.644 201.708 285.313 203.149 285.313 204.791ZM322.652 194.506H328.27V217.02H322.652V194.506ZM312.498 192.562H338.425V196.969H312.498V192.562ZM363.77 217.02L362.82 207.945L363.943 204.791L362.82 201.679L363.77 192.562H369.561L368.264 204.791L369.561 217.02H363.77ZM365.499 204.791C364.951 207.354 364.044 209.601 362.776 211.532C361.509 213.462 359.939 214.96 358.066 216.026C356.223 217.092 354.163 217.624 351.887 217.624C349.496 217.624 347.379 217.092 345.535 216.026C343.691 214.931 342.251 213.419 341.214 211.488C340.177 209.558 339.658 207.326 339.658 204.791C339.658 202.227 340.177 199.994 341.214 198.093C342.251 196.163 343.691 194.665 345.535 193.599C347.379 192.504 349.496 191.957 351.887 191.957C354.163 191.957 356.223 192.49 358.066 193.555C359.939 194.621 361.509 196.119 362.776 198.049C364.073 199.951 364.98 202.198 365.499 204.791ZM345.362 204.791C345.362 206.433 345.693 207.887 346.356 209.155C347.047 210.394 347.984 211.373 349.165 212.093C350.346 212.785 351.7 213.13 353.227 213.13C354.782 213.13 356.223 212.785 357.548 212.093C358.873 211.373 360.04 210.394 361.048 209.155C362.085 207.887 362.906 206.433 363.511 204.791C362.906 203.149 362.085 201.708 361.048 200.469C360.04 199.202 358.873 198.222 357.548 197.531C356.223 196.811 354.782 196.451 353.227 196.451C351.7 196.451 350.346 196.811 349.165 197.531C347.984 198.222 347.047 199.202 346.356 200.469C345.693 201.708 345.362 203.149 345.362 204.791ZM400.808 192.562V213.908L399.857 212.698H405.345V223.199H400.462V216.026L401.413 217.02H374.967V192.562H380.584V213.908L379.677 212.698H396.011L395.19 213.908V192.562H400.808ZM409.401 217.02V192.562H414.933V214.211L413.247 213.822L429.97 192.562H437.23V217.02H431.699V195.068L433.427 195.5L416.488 217.02H409.401ZM468.352 217.624C465.443 217.624 462.879 217.092 460.661 216.026C458.442 214.931 456.714 213.419 455.475 211.488C454.265 209.558 453.66 207.326 453.66 204.791C453.66 202.227 454.265 199.994 455.475 198.093C456.714 196.163 458.442 194.665 460.661 193.599C462.879 192.504 465.443 191.957 468.352 191.957C471.291 191.957 473.855 192.504 476.044 193.599C478.262 194.665 479.991 196.163 481.229 198.093C482.468 199.994 483.088 202.227 483.088 204.791C483.088 207.326 482.468 209.558 481.229 211.488C479.991 213.419 478.262 214.931 476.044 216.026C473.855 217.092 471.291 217.624 468.352 217.624ZM443.203 217.02V192.562H448.82V217.02H443.203ZM446.314 206.778V202.457H457.117V206.778H446.314ZM468.352 213.217C470.225 213.217 471.824 212.871 473.149 212.18C474.503 211.488 475.54 210.509 476.26 209.241C477.009 207.974 477.384 206.49 477.384 204.791C477.384 203.062 477.009 201.578 476.26 200.34C475.54 199.072 474.503 198.093 473.149 197.401C471.824 196.71 470.225 196.364 468.352 196.364C466.509 196.364 464.91 196.71 463.556 197.401C462.202 198.093 461.15 199.072 460.401 200.34C459.681 201.578 459.321 203.062 459.321 204.791C459.321 206.49 459.681 207.974 460.401 209.241C461.15 210.509 462.202 211.488 463.556 212.18C464.91 212.871 466.509 213.217 468.352 213.217Z" fill="#2C3041"/>
<rect x="48.6133" y="246.625" width="192.287" height="41.0513" rx="10.5775" fill="#11B917"/>
<path d="M69.9927 256.459C68.4786 255.969 66.8326 256.65 66.1086 258.068L65.2381 259.771C65.1347 259.974 64.97 260.139 64.7676 260.242L63.0637 261.112C61.6465 261.837 60.9647 263.483 61.4549 264.997L62.0441 266.817C62.1141 267.033 62.1141 267.266 62.0441 267.482L61.4549 269.303C60.9647 270.817 61.6465 272.463 63.0637 273.187L64.7676 274.057C64.97 274.161 65.1347 274.325 65.2381 274.528L66.1086 276.232C66.8326 277.649 68.4786 278.331 69.9927 277.841L71.813 277.251C72.0293 277.181 72.2622 277.181 72.4785 277.251L74.2988 277.841C75.8129 278.331 77.4589 277.649 78.183 276.232L79.0534 274.528C79.1569 274.325 79.3215 274.161 79.524 274.057L81.2278 273.187C82.6451 272.463 83.3268 270.817 82.8367 269.303L82.2474 267.482C82.1774 267.266 82.1774 267.033 82.2474 266.817L82.8367 264.997C83.3268 263.483 82.6451 261.837 81.2278 261.112L79.524 260.242C79.3215 260.139 79.1569 259.974 79.0534 259.771L78.183 258.068C77.4589 256.65 75.8129 255.969 74.2988 256.459L72.4785 257.048C72.2622 257.118 72.0293 257.118 71.813 257.048L69.9927 256.459ZM66.4847 266.887L68.0125 265.36L71.068 268.415L77.1792 262.304L78.7069 263.832L71.068 271.471L66.4847 266.887Z" fill="white"/>
<path d="M114.558 268.659C114.457 269.586 114.129 270.408 113.575 271.124C113.03 271.83 112.314 272.379 111.427 272.772C110.54 273.166 109.527 273.362 108.387 273.362C107.117 273.362 106.003 273.115 105.045 272.621C104.087 272.127 103.341 271.441 102.806 270.564C102.272 269.677 102.005 268.648 102.005 267.479C102.005 266.309 102.272 265.286 102.806 264.409C103.341 263.521 104.087 262.831 105.045 262.337C106.003 261.843 107.117 261.596 108.387 261.596C109.527 261.596 110.54 261.792 111.427 262.185C112.314 262.579 113.03 263.128 113.575 263.834C114.129 264.54 114.457 265.361 114.558 266.299H112.546C112.435 265.694 112.193 265.175 111.82 264.741C111.457 264.308 110.984 263.975 110.399 263.743C109.814 263.501 109.138 263.38 108.372 263.38C107.485 263.38 106.713 263.547 106.058 263.879C105.413 264.212 104.914 264.686 104.561 265.301C104.208 265.916 104.031 266.642 104.031 267.479C104.031 268.316 104.208 269.042 104.561 269.657C104.914 270.272 105.413 270.746 106.058 271.078C106.713 271.411 107.485 271.577 108.372 271.577C109.138 271.577 109.814 271.462 110.399 271.23C110.984 270.998 111.457 270.665 111.82 270.231C112.193 269.788 112.435 269.263 112.546 268.659H114.558ZM128.332 261.807V263.577H121.481L122.389 262.669V273.15H120.392V261.807H128.332ZM129.334 270.549V268.9H137.259V270.549H129.334ZM134.597 261.807L140.042 273.15H137.909L132.964 262.563H133.735L128.789 273.15H126.657L132.101 261.807H134.597ZM147.428 261.807C148.275 261.807 149.006 261.959 149.621 262.261C150.247 262.563 150.726 262.987 151.058 263.531C151.401 264.066 151.573 264.686 151.573 265.392C151.573 266.097 151.401 266.723 151.058 267.267C150.726 267.801 150.247 268.22 149.621 268.522C149.006 268.825 148.275 268.976 147.428 268.976H142.332V267.252H147.353C148.038 267.252 148.573 267.086 148.956 266.753C149.349 266.42 149.546 265.966 149.546 265.392C149.546 264.817 149.349 264.363 148.956 264.031C148.573 263.698 148.038 263.531 147.353 263.531H142.528L143.421 262.533V273.15H141.424V261.807H147.428ZM153.305 270.549V268.9H161.23V270.549H153.305ZM158.568 261.807L164.013 273.15H161.88L156.935 262.563H157.706L152.76 273.15H150.628L156.073 261.807H158.568ZM165.395 261.807H167.392V273.15H165.395V261.807ZM174.621 261.807H176.618V273.15H174.621V261.807ZM166.469 266.556H175.574V268.311H166.469V266.556ZM182.821 262.73H184.817V273.15H182.821V262.73ZM178.132 261.807H189.506V263.562L178.132 263.562V261.807ZM191.021 273.15V261.807H192.957V272.213L192.276 272.092L200.186 261.807H202.787V273.15H200.852V262.654L201.532 262.775L193.562 273.15H191.021ZM214.392 266.647V268.311H206.467V266.647H214.392ZM207.783 267.479L206.981 272.545L206.028 271.426H214.831V273.15H204.939L205.847 267.479L204.939 261.807H214.755V263.531H206.028L206.981 262.412L207.783 267.479ZM216.912 273.15V261.807H218.848V272.213L218.167 272.092L226.077 261.807H228.679V273.15H226.743V262.654L227.423 262.775L219.453 273.15H216.912ZM219.423 258.556H221.056C221.167 258.939 221.359 259.236 221.631 259.448C221.913 259.65 222.271 259.75 222.705 259.75C223.148 259.75 223.506 259.65 223.778 259.448C224.051 259.236 224.242 258.939 224.353 258.556H225.987C225.815 259.362 225.437 259.967 224.852 260.37C224.267 260.764 223.552 260.96 222.705 260.96C221.858 260.96 221.142 260.764 220.557 260.37C219.972 259.967 219.594 259.362 219.423 258.556Z" fill="white"/>
<path opacity="0.7" d="M54.1034 60.6961C52.5405 60.6961 51.3457 60.3029 50.5189 59.5164C49.6921 58.73 49.2787 57.5906 49.2787 56.0984V53.2702H51.2751V55.9471C51.2751 56.9252 51.5474 57.6713 52.0918 58.1855C52.6363 58.6896 53.4379 58.9417 54.4966 58.9417C55.1016 58.9417 55.7368 58.8711 56.4022 58.73C57.0677 58.5787 57.7281 58.372 58.3835 58.1099L58.5196 59.7282C57.8542 60.0407 57.1383 60.2827 56.372 60.4541C55.6158 60.6155 54.8596 60.6961 54.1034 60.6961ZM58.081 64.6133V53.2702H60.0774V64.6133H58.081ZM66.9435 64.825C65.9453 64.825 65.0581 64.6385 64.2817 64.2654C63.5053 63.8823 62.8953 63.3529 62.4517 62.6774C62.008 62.0018 61.7862 61.2154 61.7862 60.318C61.7862 59.4307 61.9929 58.6544 62.4063 57.9889C62.8298 57.3133 63.4095 56.789 64.1456 56.416C64.8917 56.0328 65.7437 55.8413 66.7016 55.8413C67.6594 55.8413 68.4862 56.058 69.1819 56.4916C69.8877 56.9151 70.4322 57.515 70.8153 58.2914C71.1985 59.0678 71.39 59.9802 71.39 61.0289H63.3289V59.5316H70.407L69.4239 60.0912C69.3937 59.5265 69.2575 59.0425 69.0156 58.6392C68.7836 58.2359 68.466 57.9284 68.0627 57.7167C67.6695 57.4948 67.2007 57.3839 66.6562 57.3839C66.0815 57.3839 65.5773 57.4999 65.1438 57.7318C64.7203 57.9637 64.3876 58.2914 64.1456 58.7149C63.9036 59.1282 63.7826 59.6223 63.7826 60.197C63.7826 60.8322 63.9237 61.3817 64.2061 61.8456C64.4985 62.3094 64.9068 62.6673 65.4311 62.9194C65.9655 63.1614 66.5957 63.2824 67.3216 63.2824C67.977 63.2824 68.6475 63.1815 69.3332 62.9799C70.0188 62.7681 70.6238 62.4757 71.1481 62.1027V63.5243C70.6238 63.9277 69.9835 64.2453 69.2273 64.4772C68.4812 64.7091 67.7199 64.825 66.9435 64.825ZM75.3162 56.7336H77.2823V64.6133H75.3162V56.7336ZM71.762 56.053H80.8365V57.5957H71.762V56.053ZM81.8797 64.6133L82.3183 60.3331L81.8797 56.053H88.0806C88.9074 56.053 89.5527 56.2446 90.0165 56.6277C90.4904 57.0109 90.7274 57.5402 90.7274 58.2158C90.7274 58.8409 90.4904 59.345 90.0165 59.7282C89.5527 60.1012 88.9024 60.3231 88.0655 60.3936L88.2167 60.0307C89.2049 60.0508 89.9611 60.2525 90.4854 60.6356C91.0097 61.0188 91.2718 61.5582 91.2718 62.2539C91.2718 62.99 91.0046 63.5697 90.4703 63.9932C89.9459 64.4066 89.2149 64.6133 88.2772 64.6133H81.8797ZM83.7854 64.1293L83.0292 63.2521H87.7781C88.3125 63.2521 88.6957 63.1513 88.9276 62.9496C89.1696 62.7379 89.2906 62.4455 89.2906 62.0724C89.2906 61.7397 89.1544 61.4624 88.8822 61.2406C88.6201 61.0188 88.1764 60.9079 87.5513 60.9079H83.4526V59.6374H87.2639C87.7781 59.6374 88.1512 59.5366 88.3831 59.3349C88.6251 59.1232 88.7461 58.851 88.7461 58.5182C88.7461 58.1956 88.6402 57.9334 88.4285 57.7318C88.2268 57.52 87.884 57.4142 87.4 57.4142H83.0443L83.7854 56.5521L84.2088 60.3331L83.7854 64.1293ZM97.5316 64.825C96.5334 64.825 95.6461 64.6385 94.8697 64.2654C94.0934 63.8823 93.4833 63.3529 93.0397 62.6774C92.5961 62.0018 92.3742 61.2154 92.3742 60.318C92.3742 59.4307 92.5809 58.6544 92.9943 57.9889C93.4178 57.3133 93.9976 56.789 94.7336 56.416C95.4797 56.0328 96.3317 55.8413 97.2896 55.8413C98.2475 55.8413 99.0743 56.058 99.77 56.4916C100.476 56.9151 101.02 57.515 101.403 58.2914C101.787 59.0678 101.978 59.9802 101.978 61.0289H93.9169V59.5316H100.995L100.012 60.0912C99.9817 59.5265 99.8456 59.0425 99.6036 58.6392C99.3717 58.2359 99.0541 57.9284 98.6508 57.7167C98.2575 57.4948 97.7887 57.3839 97.2442 57.3839C96.6695 57.3839 96.1654 57.4999 95.7318 57.7318C95.3083 57.9637 94.9756 58.2914 94.7336 58.7149C94.4916 59.1282 94.3706 59.6223 94.3706 60.197C94.3706 60.8322 94.5118 61.3817 94.7941 61.8456C95.0865 62.3094 95.4949 62.6673 96.0192 62.9194C96.5536 63.1614 97.1837 63.2824 97.9097 63.2824C98.5651 63.2824 99.2356 63.1815 99.9212 62.9799C100.607 62.7681 101.212 62.4757 101.736 62.1027V63.5243C101.212 63.9277 100.572 64.2453 99.8153 64.4772C99.0692 64.7091 98.308 64.825 97.5316 64.825ZM103.596 56.053H105.562V59.0325L105.471 59.3349V61.0591L105.562 61.5884V67.1088H103.596V56.053ZM104.806 60.3331C104.997 59.4257 105.315 58.6392 105.759 57.9738C106.202 57.2982 106.747 56.7739 107.392 56.4009C108.047 56.0278 108.773 55.8413 109.57 55.8413C110.407 55.8413 111.148 56.0328 111.793 56.416C112.438 56.789 112.943 57.3133 113.306 57.9889C113.668 58.6544 113.85 59.4358 113.85 60.3331C113.85 61.2204 113.668 62.0018 113.306 62.6774C112.943 63.3529 112.438 63.8823 111.793 64.2654C111.148 64.6385 110.407 64.825 109.57 64.825C108.773 64.825 108.052 64.6385 107.407 64.2654C106.762 63.8924 106.212 63.3681 105.759 62.6925C105.315 62.017 104.997 61.2305 104.806 60.3331ZM111.854 60.3331C111.854 59.7584 111.733 59.2543 111.491 58.8207C111.259 58.3771 110.936 58.0343 110.523 57.7923C110.109 57.5402 109.635 57.4142 109.101 57.4142C108.567 57.4142 108.062 57.5402 107.589 57.7923C107.125 58.0343 106.716 58.3771 106.364 58.8207C106.011 59.2543 105.723 59.7584 105.501 60.3331C105.723 60.9079 106.011 61.417 106.364 61.8607C106.716 62.2942 107.125 62.6371 107.589 62.8891C108.062 63.1311 108.567 63.2521 109.101 63.2521C109.635 63.2521 110.109 63.1311 110.523 62.8891C110.936 62.6371 111.259 62.2942 111.491 61.8607C111.733 61.417 111.854 60.9079 111.854 60.3331ZM117.838 56.7336H119.804V64.6133H117.838V56.7336ZM114.284 56.053H123.358V57.5957H114.284V56.053ZM134.217 56.053H136.183V64.6133H134.217V56.053ZM124.598 64.6133V56.053H126.564V64.0688L125.869 63.1614H129.529C130.063 63.1614 130.482 63.0303 130.784 62.7681C131.087 62.4959 131.238 62.1279 131.238 61.6641C131.238 61.1902 131.087 60.8222 130.784 60.56C130.482 60.2878 130.063 60.1517 129.529 60.1517H125.929V58.7451H129.786C130.482 58.7451 131.087 58.8711 131.601 59.1232C132.115 59.3652 132.513 59.708 132.796 60.1517C133.088 60.5852 133.234 61.0944 133.234 61.6792C133.234 62.264 133.088 62.7782 132.796 63.2219C132.513 63.6655 132.115 64.0083 131.601 64.2503C131.087 64.4923 130.487 64.6133 129.801 64.6133H124.598ZM138.275 64.6133V56.053H140.211V63.6302L139.621 63.4941L145.474 56.053H148.015V64.6133H146.079V56.9302L146.684 57.0814L140.755 64.6133H138.275ZM143.1 55.1909C142.192 55.1909 141.461 54.9641 140.907 54.5103C140.362 54.0566 140.024 53.4012 139.893 52.5442H141.481C141.562 53.008 141.744 53.3659 142.026 53.618C142.308 53.86 142.666 53.981 143.1 53.981C143.533 53.981 143.891 53.86 144.173 53.618C144.456 53.3659 144.637 53.008 144.718 52.5442H146.291C146.17 53.4012 145.832 54.0566 145.278 54.5103C144.723 54.9641 143.997 55.1909 143.1 55.1909ZM158.449 64.825C157.592 64.825 156.81 64.6788 156.105 64.3864C155.409 64.094 154.834 63.6907 154.38 63.1765C153.927 62.6623 153.634 62.0674 153.503 61.3918H155.5C155.661 61.9766 156.009 62.4505 156.543 62.8135C157.078 63.1664 157.713 63.3429 158.449 63.3429C159.074 63.3429 159.618 63.2219 160.082 62.9799C160.546 62.7379 160.904 62.39 161.156 61.9363C161.408 61.4826 161.534 60.9482 161.534 60.3331C161.534 59.708 161.408 59.1736 161.156 58.73C160.904 58.2763 160.546 57.9284 160.082 57.6864C159.618 57.4444 159.074 57.3234 158.449 57.3234C157.713 57.3234 157.078 57.5049 156.543 57.8679C156.009 58.2309 155.661 58.6947 155.5 59.2593H153.503C153.634 58.5838 153.927 57.9939 154.38 57.4898C154.834 56.9756 155.409 56.5723 156.105 56.2799C156.81 55.9875 157.592 55.8413 158.449 55.8413C159.447 55.8413 160.324 56.0328 161.08 56.416C161.837 56.789 162.426 57.3133 162.85 57.9889C163.273 58.6644 163.485 59.4459 163.485 60.3331C163.485 61.2204 163.273 62.0018 162.85 62.6774C162.426 63.3529 161.837 63.8823 161.08 64.2654C160.324 64.6385 159.447 64.825 158.449 64.825ZM162.457 61.044H157.088V59.6223H162.457V61.044ZM167.42 56.7336H169.386V64.6133H167.42V56.7336ZM163.866 56.053H172.94V57.5957H163.866V56.053ZM181.811 64.6133L181.479 61.4372L181.872 60.3331L181.479 59.2442L181.811 56.053H183.838L183.384 60.3331L183.838 64.6133H181.811ZM182.416 60.3331C182.225 61.2305 181.907 62.017 181.463 62.6925C181.02 63.3681 180.47 63.8924 179.815 64.2654C179.17 64.6385 178.449 64.825 177.652 64.825C176.815 64.825 176.074 64.6385 175.429 64.2654C174.784 63.8823 174.279 63.3529 173.916 62.6774C173.553 62.0018 173.372 61.2204 173.372 60.3331C173.372 59.4358 173.553 58.6544 173.916 57.9889C174.279 57.3133 174.784 56.789 175.429 56.416C176.074 56.0328 176.815 55.8413 177.652 55.8413C178.449 55.8413 179.17 56.0278 179.815 56.4009C180.47 56.7739 181.02 57.2982 181.463 57.9738C181.917 58.6392 182.235 59.4257 182.416 60.3331ZM175.368 60.3331C175.368 60.9079 175.484 61.417 175.716 61.8607C175.958 62.2942 176.286 62.6371 176.699 62.8891C177.113 63.1311 177.587 63.2521 178.121 63.2521C178.665 63.2521 179.17 63.1311 179.633 62.8891C180.097 62.6371 180.506 62.2942 180.858 61.8607C181.221 61.417 181.509 60.9079 181.721 60.3331C181.509 59.7584 181.221 59.2543 180.858 58.8207C180.506 58.3771 180.097 58.0343 179.633 57.7923C179.17 57.5402 178.665 57.4142 178.121 57.4142C177.587 57.4142 177.113 57.5402 176.699 57.7923C176.286 58.0343 175.958 58.3771 175.716 58.8207C175.484 59.2543 175.368 59.7584 175.368 60.3331ZM194.895 56.053V64.6133H192.929V56.6731L193.837 57.5654H186.789L187.696 56.6731V64.6133H185.73V56.053H194.895Z" fill="#2C3041"/>
<path d="M48.8855 515.612V510.362H51.1801L52.6968 510.4H63.5473L64.1501 510.362H67.767V515.612H65.3752V512.617H51.2773V515.612H48.8855ZM52.094 498.033H65.2002V511.625H62.6334V499.122L63.8001 500.289H53.4746L54.583 499.472C54.6478 500.185 54.6932 500.892 54.7191 501.592C54.7451 502.292 54.758 502.953 54.758 503.575C54.758 505.209 54.6413 506.602 54.408 507.756C54.1747 508.91 53.8311 509.791 53.3774 510.4C52.9237 511.01 52.3727 511.314 51.7245 511.314L50.655 510.4C51.2384 509.752 51.6662 508.825 51.9384 507.62C52.2236 506.414 52.3662 504.897 52.3662 503.07C52.3662 502.279 52.3403 501.456 52.2885 500.6C52.2366 499.744 52.1718 498.889 52.094 498.033ZM75.2571 512.889C73.9737 512.889 72.8329 512.65 71.8347 512.17C70.8365 511.677 70.0522 510.997 69.4818 510.128C68.9114 509.26 68.6262 508.248 68.6262 507.095C68.6262 505.954 68.892 504.956 69.4235 504.1C69.9679 503.232 70.7133 502.557 71.6597 502.078C72.619 501.585 73.7144 501.339 74.9459 501.339C76.1775 501.339 77.2405 501.618 78.135 502.175C79.0424 502.719 79.7425 503.491 80.2351 504.489C80.7277 505.487 80.974 506.66 80.974 508.009H70.6096V506.084H79.7101L78.4461 506.803C78.4072 506.077 78.2322 505.455 77.9211 504.936C77.6229 504.418 77.2146 504.022 76.696 503.75C76.1905 503.465 75.5876 503.322 74.8876 503.322C74.1487 503.322 73.5005 503.471 72.9431 503.77C72.3986 504.068 71.9708 504.489 71.6597 505.033C71.3486 505.565 71.193 506.2 71.193 506.939C71.193 507.756 71.3745 508.462 71.7375 509.059C72.1134 509.655 72.6384 510.115 73.3125 510.439C73.9996 510.75 74.8098 510.906 75.7432 510.906C76.5858 510.906 77.4479 510.776 78.3294 510.517C79.211 510.245 79.9888 509.869 80.6629 509.389V511.217C79.9888 511.736 79.1656 512.144 78.1933 512.442C77.234 512.74 76.2553 512.889 75.2571 512.889ZM84.7891 501.611H95.6202V512.617H93.0923V502.389L94.259 503.556H86.053L87.142 502.661C87.2068 503.465 87.2587 504.23 87.2976 504.956C87.3494 505.669 87.3753 506.31 87.3753 506.881C87.3753 508.955 87.0837 510.465 86.5003 511.412C85.9169 512.358 84.9771 512.831 83.6807 512.831C83.3307 512.831 82.9936 512.792 82.6696 512.714C82.3455 512.637 82.0343 512.513 81.7362 512.345V510.459C81.9695 510.549 82.1964 510.621 82.4168 510.673C82.6501 510.725 82.864 510.75 83.0585 510.75C83.7715 510.75 84.2835 510.42 84.5946 509.759C84.9187 509.098 85.0808 508.022 85.0808 506.531C85.0808 505.883 85.0549 505.144 85.003 504.314C84.9641 503.484 84.8928 502.583 84.7891 501.611ZM108.57 512.617L108.142 508.534L108.647 507.114L108.142 505.714L108.57 501.611H111.175L110.592 507.114L111.175 512.617H108.57ZM109.348 507.114C109.101 508.268 108.693 509.279 108.122 510.148C107.552 511.016 106.846 511.69 106.003 512.17C105.173 512.65 104.246 512.889 103.222 512.889C102.146 512.889 101.193 512.65 100.364 512.17C99.5341 511.677 98.8859 510.997 98.4192 510.128C97.9525 509.26 97.7192 508.255 97.7192 507.114C97.7192 505.96 97.9525 504.956 98.4192 504.1C98.8859 503.232 99.5341 502.557 100.364 502.078C101.193 501.585 102.146 501.339 103.222 501.339C104.246 501.339 105.173 501.579 106.003 502.058C106.846 502.538 107.552 503.212 108.122 504.081C108.706 504.936 109.114 505.947 109.348 507.114ZM100.286 507.114C100.286 507.853 100.435 508.508 100.733 509.078C101.044 509.636 101.466 510.076 101.997 510.4C102.529 510.712 103.138 510.867 103.825 510.867C104.525 510.867 105.173 510.712 105.77 510.4C106.366 510.076 106.891 509.636 107.345 509.078C107.811 508.508 108.181 507.853 108.453 507.114C108.181 506.375 107.811 505.727 107.345 505.17C106.891 504.599 106.366 504.158 105.77 503.847C105.173 503.523 104.525 503.361 103.825 503.361C103.138 503.361 102.529 503.523 101.997 503.847C101.466 504.158 101.044 504.599 100.733 505.17C100.435 505.727 100.286 506.375 100.286 507.114ZM119.617 512.889C118.333 512.889 117.193 512.65 116.194 512.17C115.196 511.677 114.412 510.997 113.842 510.128C113.271 509.26 112.986 508.248 112.986 507.095C112.986 505.954 113.252 504.956 113.783 504.1C114.328 503.232 115.073 502.557 116.019 502.078C116.979 501.585 118.074 501.339 119.306 501.339C120.537 501.339 121.6 501.618 122.495 502.175C123.402 502.719 124.102 503.491 124.595 504.489C125.087 505.487 125.334 506.66 125.334 508.009H114.969V506.084H124.07L122.806 506.803C122.767 506.077 122.592 505.455 122.281 504.936C121.983 504.418 121.574 504.022 121.056 503.75C120.55 503.465 119.947 503.322 119.247 503.322C118.508 503.322 117.86 503.471 117.303 503.77C116.758 504.068 116.331 504.489 116.019 505.033C115.708 505.565 115.553 506.2 115.553 506.939C115.553 507.756 115.734 508.462 116.097 509.059C116.473 509.655 116.998 510.115 117.672 510.439C118.359 510.75 119.17 510.906 120.103 510.906C120.946 510.906 121.808 510.776 122.689 510.517C123.571 510.245 124.349 509.869 125.023 509.389V511.217C124.349 511.736 123.525 512.144 122.553 512.442C121.594 512.74 120.615 512.889 119.617 512.889ZM127.414 512.617V501.611H131.167L135.795 511.412H134.803L139.392 501.611H143.145V512.617H140.773V502.447H141.434L136.514 512.617H134.045L129.125 502.486L129.786 502.467V512.617H127.414ZM150.727 512.617L151.291 507.114L150.727 501.611H158.7C159.763 501.611 160.592 501.857 161.189 502.35C161.798 502.843 162.102 503.523 162.102 504.392C162.102 505.196 161.798 505.844 161.189 506.336C160.592 506.816 159.756 507.101 158.68 507.192L158.875 506.725C160.145 506.751 161.117 507.01 161.791 507.503C162.465 507.996 162.803 508.689 162.803 509.584C162.803 510.53 162.459 511.275 161.772 511.82C161.098 512.351 160.158 512.617 158.952 512.617H150.727ZM153.177 511.995L152.205 510.867H158.311C158.998 510.867 159.49 510.737 159.788 510.478C160.1 510.206 160.255 509.83 160.255 509.35C160.255 508.923 160.08 508.566 159.73 508.281C159.393 507.996 158.823 507.853 158.019 507.853H152.749V506.22H157.65C158.311 506.22 158.79 506.09 159.088 505.831C159.4 505.559 159.555 505.209 159.555 504.781C159.555 504.366 159.419 504.029 159.147 503.77C158.888 503.497 158.447 503.361 157.825 503.361H152.224L153.177 502.253L153.722 507.114L153.177 511.995ZM176.996 508.281C176.866 509.188 176.509 509.992 175.926 510.692C175.343 511.379 174.597 511.917 173.69 512.306C172.782 512.695 171.771 512.889 170.656 512.889C169.386 512.889 168.265 512.65 167.292 512.17C166.333 511.677 165.581 510.997 165.037 510.128C164.492 509.26 164.22 508.255 164.22 507.114C164.22 505.973 164.492 504.969 165.037 504.1C165.581 503.232 166.333 502.557 167.292 502.078C168.265 501.585 169.386 501.339 170.656 501.339C171.771 501.339 172.782 501.533 173.69 501.922C174.597 502.311 175.343 502.856 175.926 503.556C176.509 504.243 176.866 505.046 176.996 505.967H174.448C174.267 505.137 173.832 504.489 173.145 504.022C172.458 503.556 171.629 503.322 170.656 503.322C169.879 503.322 169.198 503.478 168.615 503.789C168.031 504.087 167.577 504.521 167.253 505.092C166.942 505.649 166.787 506.323 166.787 507.114C166.787 507.892 166.942 508.566 167.253 509.136C167.577 509.707 168.031 510.148 168.615 510.459C169.198 510.757 169.879 510.906 170.656 510.906C171.642 510.906 172.478 510.666 173.165 510.187C173.852 509.707 174.28 509.072 174.448 508.281H176.996ZM184.922 512.889C183.639 512.889 182.498 512.65 181.5 512.17C180.501 511.677 179.717 510.997 179.147 510.128C178.576 509.26 178.291 508.248 178.291 507.095C178.291 505.954 178.557 504.956 179.088 504.1C179.633 503.232 180.378 502.557 181.325 502.078C182.284 501.585 183.379 501.339 184.611 501.339C185.842 501.339 186.906 501.618 187.8 502.175C188.707 502.719 189.407 503.491 189.9 504.489C190.393 505.487 190.639 506.66 190.639 508.009H180.275V506.084H189.375L188.111 506.803C188.072 506.077 187.897 505.455 187.586 504.936C187.288 504.418 186.88 504.022 186.361 503.75C185.855 503.465 185.253 503.322 184.553 503.322C183.814 503.322 183.166 503.471 182.608 503.77C182.064 504.068 181.636 504.489 181.325 505.033C181.014 505.565 180.858 506.2 180.858 506.939C180.858 507.756 181.039 508.462 181.402 509.059C181.778 509.655 182.303 510.115 182.978 510.439C183.665 510.75 184.475 510.906 185.408 510.906C186.251 510.906 187.113 510.776 187.994 510.517C188.876 510.245 189.654 509.869 190.328 509.389V511.217C189.654 511.736 188.831 512.144 187.858 512.442C186.899 512.74 185.92 512.889 184.922 512.889ZM209.649 501.611V512.617H207.121V502.408L208.288 503.556H199.226L200.393 502.408V512.617H197.865V501.611H209.649ZM218.422 512.889C217.086 512.889 215.913 512.65 214.902 512.17C213.904 511.677 213.119 510.997 212.549 510.128C211.992 509.26 211.713 508.255 211.713 507.114C211.713 505.96 211.992 504.956 212.549 504.1C213.119 503.232 213.904 502.557 214.902 502.078C215.913 501.585 217.086 501.339 218.422 501.339C219.757 501.339 220.924 501.585 221.922 502.078C222.933 502.557 223.717 503.232 224.275 504.1C224.845 504.956 225.13 505.96 225.13 507.114C225.13 508.255 224.845 509.26 224.275 510.128C223.717 510.997 222.933 511.677 221.922 512.17C220.924 512.65 219.757 512.889 218.422 512.889ZM218.422 510.906C219.277 510.906 220.01 510.75 220.619 510.439C221.241 510.128 221.721 509.694 222.058 509.136C222.395 508.566 222.563 507.892 222.563 507.114C222.563 506.336 222.395 505.669 222.058 505.111C221.721 504.541 221.241 504.1 220.619 503.789C220.01 503.478 219.277 503.322 218.422 503.322C217.579 503.322 216.847 503.478 216.224 503.789C215.602 504.1 215.122 504.541 214.785 505.111C214.448 505.669 214.28 506.336 214.28 507.114C214.28 507.892 214.448 508.566 214.785 509.136C215.122 509.694 215.602 510.128 216.224 510.439C216.847 510.75 217.579 510.906 218.422 510.906ZM241.021 510.673V515.398H238.823V512.617H227.817V515.398H225.62V510.673H228.459L229.159 510.712H237.19L237.812 510.673H241.021ZM228.07 501.611H238.979V511.878H236.451V502.389L237.618 503.556H229.392L230.481 502.7C230.546 503.27 230.585 503.821 230.598 504.353C230.624 504.871 230.637 505.358 230.637 505.811C230.637 507.704 230.378 509.188 229.859 510.264C229.354 511.34 228.641 511.878 227.72 511.878L226.69 511.003C227.753 510.225 228.284 508.333 228.284 505.325C228.284 504.742 228.265 504.139 228.226 503.517C228.187 502.882 228.135 502.246 228.07 501.611ZM247.998 512.617V501.611H250.526V510.478L249.767 510.206L256.787 501.611H259.665L250.331 512.617H247.998ZM257.059 512.617L253.637 507.172L255.406 505.578L260.015 512.617H257.059ZM263.197 501.611H274.028V512.617H271.5V502.389L272.666 503.556H264.46L265.549 502.661C265.614 503.465 265.666 504.23 265.705 504.956C265.757 505.669 265.783 506.31 265.783 506.881C265.783 508.955 265.491 510.465 264.908 511.412C264.324 512.358 263.384 512.831 262.088 512.831C261.738 512.831 261.401 512.792 261.077 512.714C260.753 512.637 260.442 512.513 260.144 512.345V510.459C260.377 510.549 260.604 510.621 260.824 510.673C261.058 510.725 261.271 510.75 261.466 510.75C262.179 510.75 262.691 510.42 263.002 509.759C263.326 509.098 263.488 508.022 263.488 506.531C263.488 505.883 263.462 505.144 263.41 504.314C263.372 503.484 263.3 502.583 263.197 501.611ZM288.027 512.889C286.718 512.889 285.564 512.65 284.566 512.17C283.568 511.677 282.79 510.997 282.232 510.128C281.688 509.26 281.416 508.255 281.416 507.114C281.416 505.96 281.688 504.956 282.232 504.1C282.79 503.232 283.568 502.557 284.566 502.078C285.564 501.585 286.718 501.339 288.027 501.339C289.349 501.339 290.503 501.585 291.488 502.078C292.487 502.557 293.264 503.232 293.822 504.1C294.379 504.956 294.658 505.96 294.658 507.114C294.658 508.255 294.379 509.26 293.822 510.128C293.264 510.997 292.487 511.677 291.488 512.17C290.503 512.65 289.349 512.889 288.027 512.889ZM276.71 512.617V501.611H279.238V512.617H276.71ZM278.11 508.009V506.064H282.971V508.009H278.11ZM288.027 510.906C288.87 510.906 289.589 510.75 290.186 510.439C290.795 510.128 291.262 509.687 291.586 509.117C291.923 508.547 292.091 507.879 292.091 507.114C292.091 506.336 291.923 505.669 291.586 505.111C291.262 504.541 290.795 504.1 290.186 503.789C289.589 503.478 288.87 503.322 288.027 503.322C287.198 503.322 286.478 503.478 285.869 503.789C285.259 504.1 284.786 504.541 284.449 505.111C284.125 505.669 283.963 506.336 283.963 507.114C283.963 507.879 284.125 508.547 284.449 509.117C284.786 509.687 285.259 510.128 285.869 510.439C286.478 510.75 287.198 510.906 288.027 510.906ZM300.616 509.214C299.113 509.214 297.965 508.806 297.175 507.989C296.384 507.16 295.988 505.954 295.988 504.372V501.611H298.497V504.275C298.497 506.22 299.411 507.192 301.239 507.192C301.99 507.192 302.697 507.017 303.358 506.667C304.032 506.317 304.648 505.792 305.205 505.092L305.361 506.881C304.907 507.62 304.259 508.197 303.416 508.611C302.587 509.013 301.653 509.214 300.616 509.214ZM304.894 512.617V501.611H307.422V512.617H304.894Z" fill="#2C3041"/>
</svg>
