<svg width="1780" height="164" viewBox="0 0 1780 164" fill="none" xmlns="http://www.w3.org/2000/svg">
<path d="M28.8868 4.42172L3.57797 29.7306C1.28912 32.0194 0 35.1238 0 38.3598V125.625C0 128.861 1.28912 131.966 3.57797 134.255L28.8868 159.564C31.1757 161.852 34.2801 163.141 37.5161 163.141H73.3221C76.558 163.141 79.6624 161.852 81.9513 159.564L129.833 111.682V163.155H162.298V38.3598C162.298 35.1238 161.009 32.0194 158.72 29.7306L133.411 4.42172C131.122 2.13287 128.018 0.84375 124.782 0.84375H37.5161C34.2801 0.84375 31.1757 2.13287 28.8868 4.42172ZM129.833 65.7602L64.9165 130.677H32.4516V33.3086H129.833V65.7734V65.7602Z" fill="#2C3041"/>
<path d="M1136.1 65.7602V38.3598C1136.1 35.1238 1134.81 32.0194 1132.52 29.7306L1107.21 4.42172C1104.92 2.13287 1101.82 0.84375 1098.58 0.84375H1011.32C1008.08 0.84375 1004.98 2.13287 1002.69 4.42172L977.379 29.7306C975.09 32.0194 973.801 35.1238 973.801 38.3598V125.625C973.801 128.861 975.09 131.966 977.379 134.255L1002.69 159.564C1004.98 161.852 1008.08 163.141 1011.32 163.141H1098.58C1101.82 163.141 1104.92 161.852 1107.21 159.564L1132.52 134.255C1134.81 131.966 1136.1 128.861 1136.1 125.625V98.225H1103.63V130.69H1006.25V33.3086H1103.63V65.7734H1136.1V65.7602Z" fill="#2C3041"/>
<path d="M908.87 65.7602H811.488V0.84375L782.601 29.7306C780.313 32.0194 779.023 35.1238 779.023 38.3598V163.141H811.488V98.225H908.87V163.141H941.334V38.3598C941.334 35.1238 940.045 32.0194 937.756 29.7306L908.87 0.84375V65.7602Z" fill="#2C3041"/>
<path d="M522.938 159.564L548.247 134.255C550.536 131.966 551.825 128.861 551.825 125.625V70.8115C551.825 67.5755 550.536 64.4711 548.247 62.1822L522.938 36.8734C520.649 34.5845 517.545 33.2954 514.309 33.2954H478.503C475.267 33.2954 472.163 34.5845 469.874 36.8734L421.992 84.755V0.84375H389.527V125.625C389.527 128.861 390.816 131.966 393.105 134.255L418.414 159.564C420.703 161.852 423.807 163.141 427.043 163.141H514.309C517.545 163.141 520.649 161.852 522.938 159.564ZM486.895 65.7602H519.36V130.677H421.979L486.895 65.7602Z" fill="#2C3041"/>
<path d="M275.096 4.42172L198.328 81.1902C196.039 83.479 194.75 86.5835 194.75 89.8194V163.128H227.215V98.2119L292.131 33.2954H324.596V163.128H357.061V38.3598C357.061 35.1238 355.772 32.0194 353.483 29.7306L328.174 4.42172C325.885 2.13287 322.781 0.84375 319.545 0.84375H283.739C280.503 0.84375 277.398 2.13287 275.11 4.42172H275.096Z" fill="#2C3041"/>
<path d="M613.16 4.42172L587.851 29.7306C585.563 32.0194 584.273 35.1238 584.273 38.3598V93.1738C584.273 96.4097 585.563 99.5141 587.851 101.803L616.738 130.69L584.273 163.141H630.208L695.098 98.225H616.738V33.3086H714.119V163.141H746.584V38.3598C746.584 35.1238 745.295 32.0194 743.006 29.7306L717.697 4.42172C715.409 2.13287 712.304 0.84375 709.068 0.84375H621.803C618.567 0.84375 615.462 2.13287 613.173 4.42172H613.16Z" fill="#2C3041"/>
<path d="M1646.59 4.43344L1621.28 29.7423C1618.99 32.0311 1617.7 35.1356 1617.7 38.3715V125.637C1617.7 128.873 1618.99 131.977 1621.28 134.266L1646.59 159.575C1648.88 161.864 1651.98 163.153 1655.22 163.153H1742.48C1745.72 163.153 1748.83 161.864 1751.11 159.575L1776.42 134.266C1778.71 131.977 1780 128.873 1780 125.637V38.3715C1780 35.1356 1778.71 32.0311 1776.42 29.7423L1751.11 4.43344C1748.83 2.14459 1745.72 0.855469 1742.48 0.855469H1655.22C1651.98 0.855469 1648.88 2.14459 1646.59 4.43344ZM1747.54 130.702H1650.15V33.3203H1747.54V130.702Z" fill="#2C3041"/>
<path d="M1451.82 4.43489L1426.52 29.7437C1424.23 32.0326 1422.94 35.137 1422.94 38.373V125.639C1422.94 128.875 1424.23 131.979 1426.52 134.268L1451.82 159.577C1454.11 161.866 1457.22 163.155 1460.45 163.155H1547.72C1550.96 163.155 1554.06 161.866 1556.35 159.577L1585.24 130.69H1455.4V98.225H1547.73C1550.97 98.225 1554.07 96.9359 1556.36 94.647L1581.67 69.3382C1583.96 67.0493 1585.25 63.9449 1585.25 60.709V38.3598C1585.25 35.1239 1583.96 32.0194 1581.67 29.7306L1556.36 4.42172C1554.07 2.13287 1550.97 0.84375 1547.73 0.84375H1460.47C1457.23 0.84375 1454.13 2.13287 1451.84 4.42172L1451.82 4.43489ZM1552.77 65.7865H1455.39V33.3217H1552.77V65.7865Z" fill="#2C3041"/>
<path d="M1257.06 4.43592L1231.75 29.7448C1229.46 32.0336 1228.18 35.138 1228.18 38.374V163.156H1260.64V33.3227H1358.02V65.7876H1390.49V38.3872C1390.49 35.1512 1389.2 32.0468 1386.91 29.7579L1361.6 4.44906C1359.31 2.16022 1356.21 0.871094 1352.97 0.871094H1265.69C1262.46 0.871094 1259.35 2.16022 1257.06 4.44906V4.43592Z" fill="#2C3041"/>
</svg>
