<svg width="71" height="71" viewBox="0 0 71 71" fill="none" xmlns="http://www.w3.org/2000/svg">
<path d="M51.7845 0C49.4459 0 47.3358 1.40347 46.4319 3.56044L39.6702 19.6952C36.5937 27.0374 43.967 34.4166 51.3106 31.3457C57.516 28.7502 63.6987 26.1661 67.4365 24.6023C69.5962 23.6998 70.9997 21.5882 70.9997 19.2482V5.80399C70.9997 2.59833 68.4014 0 65.1958 0H51.7845Z" fill="#308DDD"/>
<path d="M19.2152 0C21.5537 0 23.6638 1.40347 24.5678 3.56044L31.3295 19.6952C34.4059 27.0374 27.0326 34.4166 19.6891 31.3457C13.4837 28.7502 7.30094 26.1661 3.5632 24.6023C1.40343 23.6998 0 21.5882 0 19.2482V5.80399C0 2.59833 2.59826 0 5.80386 0H19.2152Z" fill="#FD4400"/>
<path d="M51.7845 70.9996C49.4459 70.9996 47.3358 69.5961 46.4319 67.4391L39.6702 51.3044C36.5937 43.9621 43.967 36.583 51.3106 39.6539C57.516 42.2493 63.6987 44.8334 67.4365 46.3972C69.5962 47.2998 70.9997 49.4113 70.9997 51.7514V65.1956C70.9997 68.4012 68.4014 70.9996 65.1958 70.9996H51.7845Z" fill="#FD4400"/>
<path d="M19.2152 70.9996C21.5537 70.9996 23.6638 69.5961 24.5678 67.4391L31.3295 51.3044C34.4059 43.9621 27.0326 36.583 19.6891 39.6539C13.4837 42.2493 7.30094 44.8334 3.5632 46.3972C1.40343 47.2998 0 49.4113 0 51.7514V65.1956C0 68.4012 2.59826 70.9996 5.80386 70.9996H19.2152Z" fill="#FD4400"/>
</svg>
