<svg width="529" height="530" viewBox="0 0 529 530" fill="none" xmlns="http://www.w3.org/2000/svg">
<circle cx="264.5" cy="265.279" r="262.781" fill="#E7EEFF" stroke="white" stroke-width="3.43825" stroke-dasharray="4.42 1.96"/>
<path d="M497.528 261.062C497.54 261.722 497.549 262.383 497.555 263.044L496.082 263.058C496.089 263.798 496.092 264.538 496.092 265.279C496.092 266.021 496.089 266.761 496.082 267.501L497.555 267.514C497.549 268.176 497.54 268.837 497.528 269.497L496.055 269.471C496.029 270.947 495.989 272.42 495.935 273.889L497.407 273.943C497.383 274.6 497.357 275.256 497.327 275.912L495.855 275.846C495.789 277.323 495.708 278.796 495.614 280.266L497.085 280.36C497.043 281.019 496.998 281.678 496.95 282.336L495.481 282.229C495.374 283.7 495.254 285.168 495.12 286.631L496.587 286.765C496.527 287.42 496.465 288.073 496.4 288.726L494.933 288.579C494.786 290.052 494.625 291.52 494.45 292.985L495.914 293.159C495.835 293.815 495.754 294.469 495.671 295.123L494.209 294.936C494.022 296.398 493.821 297.855 493.607 299.308L495.065 299.523C494.969 300.175 494.87 300.826 494.769 301.476L493.313 301.248C493.085 302.71 492.843 304.166 492.588 305.618L494.039 305.874C493.925 306.523 493.808 307.172 493.688 307.819L492.239 307.552C491.972 309 491.691 310.443 491.397 311.881L492.841 312.176C492.708 312.824 492.573 313.471 492.435 314.117L490.994 313.81C490.686 315.254 490.364 316.694 490.029 318.129L491.463 318.464C491.313 319.106 491.161 319.746 491.006 320.386L489.574 320.038C489.226 321.471 488.865 322.898 488.491 324.32L489.916 324.695C489.748 325.334 489.577 325.972 489.404 326.609L487.982 326.222C487.594 327.645 487.193 329.064 486.779 330.477L488.193 330.891C488.008 331.523 487.82 332.154 487.629 332.783L486.219 332.357C485.792 333.769 485.352 335.176 484.898 336.577L486.3 337.03C486.097 337.658 485.891 338.285 485.683 338.911L484.285 338.445C483.819 339.844 483.34 341.237 482.848 342.624L484.237 343.117C484.017 343.737 483.794 344.356 483.569 344.974L482.185 344.47C481.68 345.857 481.161 347.238 480.63 348.613L482.005 349.144C481.767 349.76 481.527 350.374 481.284 350.986L479.914 350.444C479.372 351.814 478.816 353.177 478.249 354.534L479.608 355.103C479.353 355.711 479.096 356.318 478.837 356.924L477.482 356.344C476.901 357.7 476.307 359.05 475.7 360.394L477.043 361C476.772 361.601 476.498 362.2 476.222 362.798L474.884 362.18C474.267 363.518 473.637 364.849 472.994 366.173L474.32 366.816C474.032 367.41 473.741 368.003 473.448 368.594L472.128 367.939C471.472 369.26 470.805 370.575 470.125 371.882L471.433 372.562C471.129 373.146 470.822 373.729 470.513 374.311L469.212 373.62C468.521 374.922 467.817 376.217 467.102 377.505L468.39 378.22C468.07 378.797 467.747 379.372 467.422 379.946L466.14 379.219C465.413 380.502 464.674 381.777 463.923 383.044L465.191 383.795C464.855 384.362 464.517 384.927 464.177 385.491L462.916 384.729C462.153 385.992 461.379 387.246 460.593 388.493L461.84 389.279C461.488 389.837 461.134 390.393 460.778 390.948L459.538 390.151C458.742 391.391 457.934 392.623 457.115 393.847L458.34 394.667C457.973 395.215 457.604 395.761 457.233 396.305L456.015 395.475C455.185 396.694 454.342 397.904 453.489 399.106L454.691 399.959C454.309 400.496 453.925 401.032 453.539 401.566L452.345 400.703C451.482 401.897 450.607 403.083 449.722 404.26L450.9 405.146C450.503 405.673 450.105 406.198 449.704 406.722L448.534 405.826C447.638 406.997 446.731 408.159 445.813 409.312L446.966 410.229C446.555 410.745 446.142 411.259 445.728 411.771L444.583 410.844C443.655 411.989 442.717 413.125 441.768 414.253L442.895 415.202C442.47 415.706 442.043 416.209 441.615 416.709L440.495 415.751C439.537 416.87 438.567 417.98 437.588 419.081L438.689 420.061C438.251 420.553 437.81 421.044 437.368 421.532L436.276 420.544C435.287 421.636 434.287 422.72 433.278 423.793L434.351 424.803C433.9 425.283 433.446 425.761 432.991 426.238L431.926 425.219C430.907 426.285 429.878 427.34 428.84 428.386L429.885 429.424C429.421 429.892 428.954 430.358 428.486 430.821L427.449 429.774C426.402 430.811 425.345 431.838 424.278 432.855L425.295 433.921C424.818 434.376 424.339 434.829 423.858 435.28L422.85 434.205C421.775 435.213 420.69 436.21 419.595 437.198L420.582 438.292C420.093 438.733 419.602 439.173 419.109 439.61L418.131 438.508C417.029 439.485 415.917 440.453 414.796 441.41L415.753 442.531C415.251 442.959 414.748 443.385 414.243 443.808L413.296 442.68C412.167 443.627 411.029 444.564 409.882 445.49L410.808 446.636C410.295 447.05 409.781 447.462 409.265 447.872L408.349 446.717C407.194 447.633 406.031 448.539 404.859 449.433L405.753 450.604C405.229 451.004 404.703 451.402 404.175 451.798L403.291 450.619C402.113 451.502 400.926 452.375 399.73 453.236L400.591 454.432C400.057 454.817 399.52 455.2 398.982 455.581L398.131 454.378C396.928 455.23 395.716 456.07 394.497 456.899L395.325 458.118C394.78 458.488 394.233 458.856 393.685 459.222L392.867 457.996C391.642 458.814 390.409 459.62 389.168 460.414L389.962 461.655C389.407 462.011 388.85 462.364 388.292 462.715L387.508 461.467C386.26 462.251 385.004 463.023 383.741 463.784L384.5 465.046C383.936 465.386 383.371 465.723 382.803 466.058L382.054 464.789C380.786 465.538 379.51 466.275 378.226 467.001L378.951 468.284C378.377 468.608 377.801 468.93 377.224 469.25L376.51 467.961C375.222 468.674 373.926 469.376 372.623 470.065L373.312 471.368C372.73 471.676 372.147 471.981 371.562 472.285L370.884 470.976C369.576 471.654 368.26 472.32 366.938 472.974L367.591 474.295C366.999 474.587 366.407 474.877 365.812 475.165L365.171 473.838C363.846 474.479 362.515 475.107 361.176 475.724L361.792 477.062C361.194 477.338 360.594 477.611 359.993 477.881L359.388 476.537C358.044 477.142 356.693 477.735 355.336 478.315L355.915 479.67C355.309 479.929 354.702 480.185 354.093 480.439L353.526 479.079C352.168 479.645 350.804 480.199 349.434 480.74L349.975 482.111C349.362 482.353 348.747 482.592 348.132 482.829L347.602 481.454C346.227 481.984 344.845 482.5 343.457 483.004L343.96 484.389C343.342 484.614 342.722 484.836 342.102 485.055L341.611 483.666C340.223 484.156 338.83 484.634 337.43 485.098L337.895 486.497C337.269 486.705 336.642 486.91 336.013 487.113L335.561 485.71C334.16 486.162 332.753 486.601 331.34 487.027L331.766 488.438C331.136 488.628 330.505 488.815 329.873 489L329.459 487.585C328.046 487.998 326.627 488.398 325.203 488.785L325.589 490.207C324.952 490.38 324.314 490.55 323.675 490.718L323.301 489.292C321.879 489.665 320.451 490.025 319.019 490.372L319.365 491.804C318.725 491.959 318.085 492.111 317.443 492.261L317.109 490.825C315.674 491.16 314.234 491.481 312.789 491.788L313.096 493.229C312.45 493.367 311.803 493.501 311.155 493.634L310.86 492.19C309.422 492.483 307.978 492.763 306.53 493.029L306.797 494.479C306.149 494.598 305.501 494.714 304.851 494.828L304.597 493.377C303.144 493.631 301.687 493.872 300.226 494.1L300.452 495.556C299.802 495.657 299.151 495.755 298.5 495.851L298.285 494.393C296.832 494.607 295.375 494.807 293.913 494.993L294.099 496.455C293.446 496.538 292.791 496.619 292.136 496.697L291.962 495.234C290.497 495.408 289.029 495.569 287.556 495.715L287.703 497.182C287.05 497.247 286.396 497.309 285.741 497.369L285.608 495.901C284.144 496.035 282.677 496.155 281.206 496.261L281.312 497.731C280.654 497.778 279.995 497.823 279.336 497.865L279.242 496.394C277.772 496.488 276.299 496.568 274.822 496.634L274.888 498.106C274.232 498.136 273.576 498.162 272.919 498.186L272.865 496.714C271.396 496.767 269.923 496.807 268.447 496.833L268.473 498.307C267.813 498.318 267.152 498.327 266.49 498.333L266.477 496.86C265.737 496.867 264.997 496.87 264.255 496.87C263.514 496.87 262.774 496.867 262.034 496.86L262.02 498.333C261.359 498.327 260.698 498.318 260.038 498.307L260.064 496.833C258.588 496.807 257.115 496.767 255.646 496.714L255.592 498.186C254.935 498.162 254.278 498.136 253.623 498.106L253.689 496.634C252.212 496.568 250.738 496.488 249.269 496.394L249.175 497.865C248.516 497.823 247.857 497.778 247.199 497.731L247.305 496.261C245.834 496.155 244.367 496.035 242.903 495.901L242.769 497.369C242.115 497.309 241.461 497.247 240.808 497.182L240.954 495.715C239.482 495.569 238.014 495.408 236.549 495.234L236.375 496.697C235.72 496.619 235.065 496.538 234.411 496.455L234.598 494.993C233.136 494.807 231.679 494.607 230.225 494.393L230.011 495.851C229.359 495.755 228.708 495.657 228.058 495.556L228.285 494.1C226.824 493.872 225.367 493.631 223.914 493.377L223.66 494.828C223.01 494.714 222.362 494.598 221.714 494.479L221.981 493.029C220.533 492.763 219.089 492.483 217.651 492.19L217.356 493.634C216.708 493.501 216.061 493.367 215.415 493.229L215.722 491.788C214.277 491.48 212.837 491.16 211.402 490.825L211.068 492.261C210.426 492.111 209.785 491.959 209.146 491.804L209.492 490.372C208.06 490.025 206.632 489.665 205.21 489.292L204.836 490.718C204.197 490.55 203.559 490.38 202.922 490.207L203.308 488.785C201.884 488.398 200.465 487.998 199.052 487.585L198.638 489C198.006 488.815 197.375 488.628 196.745 488.438L197.171 487.027C195.758 486.601 194.351 486.162 192.95 485.71L192.497 487.113C191.869 486.91 191.242 486.705 190.616 486.497L191.08 485.098C189.681 484.634 188.288 484.156 186.9 483.666L186.409 485.055C185.788 484.836 185.169 484.614 184.551 484.389L185.054 483.004C183.666 482.5 182.284 481.984 180.909 481.454L180.379 482.829C179.764 482.592 179.149 482.353 178.536 482.111L179.077 480.74C177.707 480.199 176.342 479.645 174.985 479.079L174.417 480.439C173.809 480.185 173.202 479.929 172.596 479.67L173.175 478.315C171.817 477.735 170.467 477.142 169.123 476.537L168.518 477.881C167.917 477.611 167.317 477.338 166.719 477.062L167.335 475.724C165.996 475.107 164.665 474.479 163.34 473.838L162.699 475.165C162.104 474.877 161.511 474.587 160.92 474.295L161.573 472.974C160.25 472.32 158.935 471.654 157.627 470.976L156.949 472.285C156.364 471.981 155.781 471.676 155.198 471.368L155.888 470.065C154.585 469.376 153.289 468.674 152 467.961L151.286 469.25C150.709 468.93 150.134 468.608 149.56 468.284L150.284 467.001C149.001 466.275 147.725 465.538 146.457 464.789L145.707 466.058C145.14 465.723 144.574 465.386 144.01 465.046L144.77 463.784C143.507 463.023 142.251 462.251 141.003 461.467L140.219 462.715C139.661 462.364 139.104 462.011 138.549 461.655L139.343 460.414C138.102 459.62 136.869 458.814 135.644 457.996L134.826 459.222C134.278 458.856 133.731 458.488 133.186 458.118L134.014 456.899C132.794 456.07 131.583 455.23 130.38 454.378L129.529 455.581C128.99 455.2 128.454 454.817 127.919 454.432L128.781 453.236C127.585 452.375 126.398 451.502 125.22 450.619L124.336 451.798C123.808 451.402 123.282 451.004 122.758 450.604L123.652 449.433C122.48 448.539 121.316 447.633 120.162 446.717L119.246 447.872C118.73 447.462 118.215 447.05 117.703 446.636L118.628 445.49C117.482 444.564 116.344 443.627 115.215 442.68L114.268 443.808C113.763 443.385 113.26 442.959 112.758 442.531L113.715 441.41C112.594 440.453 111.482 439.485 110.38 438.508L109.402 439.61C108.909 439.173 108.418 438.733 107.928 438.292L108.916 437.198C107.821 436.21 106.736 435.213 105.661 434.205L104.653 435.28C104.172 434.829 103.693 434.376 103.216 433.921L104.233 432.855C103.166 431.838 102.109 430.811 101.062 429.774L100.025 430.821C99.5564 430.358 99.09 429.892 98.6255 429.424L99.671 428.386C98.6325 427.34 97.6038 426.285 96.5853 425.219L95.5203 426.238C95.0647 425.761 94.6112 425.283 94.1597 424.803L95.2332 423.793C94.2237 422.72 93.2243 421.636 92.2352 420.544L91.1427 421.532C90.7005 421.044 90.2603 420.553 89.8222 420.061L90.923 419.081C89.9434 417.98 88.9741 416.87 88.0154 415.751L86.8962 416.709C86.4674 416.208 86.0407 415.706 85.6161 415.202L86.7433 414.253C85.7943 413.125 84.8559 411.989 83.9282 410.844L82.7831 411.771C82.3684 411.259 81.9557 410.745 81.5452 410.229L82.6981 409.312C81.7803 408.159 80.8733 406.997 79.9772 405.826L78.8071 406.722C78.4063 406.198 78.0077 405.673 77.6113 405.146L78.7889 404.26C77.9035 403.083 77.0291 401.897 76.1658 400.703L74.9716 401.566C74.5855 401.032 74.2017 400.496 73.8201 399.959L75.0216 399.106C74.1683 397.904 73.3263 396.694 72.4956 395.475L71.2781 396.305C70.9069 395.761 70.5379 395.215 70.1713 394.667L71.3958 393.847C70.5766 392.623 69.7688 391.391 68.9725 390.151L67.7326 390.948C67.3764 390.393 67.0225 389.837 66.6709 389.279L67.9176 388.493C67.1318 387.246 66.3577 385.992 65.5952 384.729L64.3338 385.491C63.9934 384.927 63.6554 384.362 63.3197 383.795L64.5875 383.044C63.8369 381.777 63.098 380.502 62.3711 379.219L61.0891 379.946C60.764 379.372 60.4412 378.797 60.1208 378.22L61.4088 377.505C60.6935 376.217 59.9902 374.922 59.2989 373.62L57.9974 374.311C57.6886 373.729 57.3822 373.146 57.0782 372.562L58.3856 371.882C57.7059 370.575 57.0384 369.26 56.3831 367.939L55.063 368.594C54.7699 368.002 54.4792 367.41 54.191 366.816L55.5167 366.173C54.8743 364.849 54.2442 363.518 53.6264 362.18L52.2886 362.798C52.0124 362.2 51.7387 361.601 51.4674 361L52.8104 360.393C52.204 359.05 51.61 357.7 51.0286 356.344L49.6741 356.924C49.4146 356.318 49.1576 355.711 48.903 355.103L50.2624 354.534C49.6945 353.177 49.1392 351.814 48.5966 350.444L47.2266 350.986C46.9839 350.374 46.7437 349.76 46.506 349.144L47.8806 348.613C47.3496 347.238 46.8314 345.857 46.326 344.47L44.9414 344.974C44.7164 344.356 44.4938 343.737 44.2739 343.117L45.6627 342.624C45.1709 341.237 44.692 339.844 44.226 338.445L42.828 338.911C42.6196 338.285 42.4138 337.658 42.2105 337.03L43.6125 336.577C43.1592 335.176 42.719 333.769 42.2918 332.357L40.8814 332.783C40.6909 332.154 40.5031 331.523 40.3179 330.891L41.7319 330.476C41.3178 329.064 40.9168 327.645 40.529 326.222L39.1073 326.609C38.9338 325.972 38.763 325.334 38.5949 324.695L40.0199 324.32C39.6458 322.898 39.2848 321.471 38.9372 320.038L37.5052 320.386C37.35 319.746 37.1974 319.106 37.0475 318.464L38.4823 318.129C38.1472 316.694 37.8253 315.254 37.517 313.81L36.0759 314.117C35.938 313.471 35.8028 312.824 35.6703 312.176L37.1139 311.881C36.8198 310.443 36.539 309 36.2717 307.552L34.8226 307.819C34.7031 307.172 34.5862 306.523 34.472 305.874L35.9232 305.618C35.6679 304.166 35.4262 302.71 35.1981 301.248L33.7422 301.476C33.6407 300.825 33.5419 300.175 33.4458 299.523L34.9036 299.308C34.6895 297.855 34.4888 296.397 34.3018 294.936L32.8402 295.123C32.7565 294.469 32.6756 293.815 32.5974 293.159L34.0605 292.984C33.8858 291.52 33.7247 290.052 33.5775 288.579L32.1113 288.726C32.046 288.073 31.9834 287.42 31.9235 286.765L33.3909 286.631C33.257 285.168 33.1368 283.7 33.0303 282.229L31.5606 282.336C31.5129 281.678 31.468 281.019 31.4259 280.36L32.8964 280.266C32.8025 278.796 32.7222 277.323 32.6558 275.846L31.1838 275.912C31.1543 275.256 31.1275 274.6 31.1035 273.943L32.5761 273.889C32.5223 272.42 32.4823 270.947 32.4561 269.471L30.9827 269.497C30.971 268.837 30.962 268.176 30.9558 267.514L32.4293 267.501C32.4223 266.761 32.4189 266.021 32.4189 265.279C32.4189 264.538 32.4223 263.798 32.4293 263.058L30.9558 263.044C30.962 262.383 30.971 261.722 30.9827 261.062L32.4561 261.088C32.4823 259.612 32.5223 258.139 32.5761 256.67L31.1035 256.616C31.1276 255.959 31.1543 255.302 31.1838 254.647L32.6558 254.713C32.7222 253.236 32.8025 251.763 32.8964 250.293L31.4259 250.199C31.468 249.54 31.5129 248.881 31.5606 248.223L33.0303 248.329C33.1368 246.858 33.257 245.391 33.3909 243.928L31.9235 243.794C31.9834 243.139 32.046 242.485 32.1113 241.833L33.5775 241.979C33.7247 240.507 33.8858 239.038 34.0605 237.574L32.5974 237.4C32.6756 236.744 32.7565 236.09 32.8402 235.436L34.3018 235.623C34.4888 234.161 34.6895 232.704 34.9036 231.251L33.4458 231.036C33.5419 230.384 33.6407 229.733 33.7422 229.083L35.1981 229.31C35.4262 227.849 35.6679 226.392 35.9232 224.94L34.472 224.685C34.5862 224.036 34.7031 223.387 34.8226 222.739L36.2717 223.007C36.539 221.559 36.8198 220.116 37.114 218.678L35.6703 218.382C35.8028 217.734 35.938 217.087 36.0759 216.441L37.517 216.749C37.8253 215.304 38.1472 213.865 38.4823 212.43L37.0475 212.095C37.1974 211.453 37.35 210.813 37.5052 210.173L38.9372 210.52C39.2848 209.088 39.6458 207.661 40.0199 206.239L38.5949 205.864C38.763 205.225 38.9338 204.587 39.1073 203.95L40.529 204.337C40.9168 202.913 41.3178 201.495 41.7319 200.082L40.3179 199.668C40.5031 199.036 40.691 198.405 40.8814 197.775L42.2918 198.202C42.719 196.79 43.1592 195.383 43.6125 193.982L42.2105 193.528C42.4138 192.9 42.6196 192.274 42.828 191.648L44.226 192.113C44.692 190.715 45.1709 189.322 45.6627 187.935L44.2739 187.442C44.4939 186.822 44.7164 186.203 44.9415 185.585L46.326 186.089C46.8314 184.702 47.3496 183.32 47.8806 181.945L46.5061 181.415C46.7437 180.799 46.9839 180.185 47.2266 179.572L48.5966 180.115C49.1392 178.745 49.6945 177.381 50.2624 176.024L48.9031 175.456C49.1576 174.847 49.4146 174.24 49.6742 173.635L51.0286 174.215C51.61 172.858 52.204 171.508 52.8104 170.165L51.4674 169.559C51.7387 168.958 52.0124 168.359 52.2886 167.76L53.6264 168.378C54.2442 167.041 54.8743 165.71 55.5167 164.386L54.191 163.743C54.4793 163.149 54.7699 162.556 55.063 161.965L56.3832 162.62C57.0384 161.298 57.7059 159.984 58.3856 158.677L57.0782 157.997C57.3822 157.413 57.6886 156.829 57.9974 156.248L59.2989 156.939C59.9902 155.636 60.6936 154.341 61.4089 153.054L60.1208 152.338C60.4412 151.762 60.764 151.186 61.0891 150.613L62.3711 151.339C63.098 150.057 63.8369 148.782 64.5875 147.515L63.3197 146.764C63.6554 146.197 63.9935 145.632 64.3338 145.068L65.5952 145.83C66.3577 144.567 67.1318 143.312 67.9176 142.066L66.671 141.28C67.0225 140.722 67.3764 140.166 67.7326 139.611L68.9725 140.407C69.7688 139.167 70.5766 137.935 71.3958 136.712L70.1713 135.892C70.538 135.344 70.9069 134.798 71.2781 134.253L72.4956 135.083C73.3263 133.865 74.1684 132.655 75.0216 131.453L73.8201 130.6C74.2017 130.062 74.5856 129.527 74.9716 128.993L76.1659 129.856C77.0291 128.661 77.9035 127.476 78.7889 126.298L77.6113 125.413C78.0077 124.886 78.4063 124.36 78.8071 123.837L79.9772 124.732C80.8733 123.562 81.7803 122.4 82.6981 121.247L81.5452 120.329C81.9557 119.814 82.3684 119.3 82.7831 118.788L83.9282 119.715C84.8559 118.57 85.7943 117.433 86.7433 116.306L85.6161 115.357C86.0407 114.853 86.4674 114.35 86.8962 113.85L88.0154 114.808C88.9742 113.689 89.9434 112.578 90.923 111.477L89.8222 110.498C90.2603 110.006 90.7005 109.515 91.1427 109.026L92.2352 110.015C93.2243 108.922 94.2237 107.839 95.2332 106.765L94.1597 105.756C94.6112 105.276 95.0648 104.797 95.5203 104.321L96.5853 105.339C97.6039 104.274 98.6325 103.219 99.671 102.173L98.6255 101.135C99.09 100.667 99.5564 100.201 100.025 99.7374L101.062 100.785C102.109 99.7477 103.166 98.7208 104.233 97.7039L103.216 96.6373C103.693 96.1825 104.172 95.7297 104.653 95.2789L105.661 96.354C106.736 95.3462 107.821 94.3485 108.916 93.3611L107.928 92.2671C108.418 91.8256 108.909 91.3862 109.402 90.9488L110.38 92.0512C111.482 91.0733 112.594 90.1058 113.715 89.1488L112.758 88.0281C113.26 87.6001 113.763 87.1741 114.268 86.7503L115.215 87.879C116.344 86.9318 117.482 85.9951 118.628 85.0692L117.703 83.9227C118.215 83.5087 118.73 83.0969 119.246 82.6872L120.162 83.8415C121.316 82.9254 122.48 82.0202 123.652 81.1258L122.758 79.9544C123.282 79.5544 123.808 79.1565 124.336 78.7609L125.22 79.9398C126.398 79.0563 127.585 78.1837 128.781 77.3223L127.919 76.1267C128.454 75.7415 128.99 75.3584 129.529 74.9776L130.38 76.1804C131.583 75.3289 132.794 74.4886 134.014 73.6596L133.186 72.4409C133.731 72.0705 134.278 71.7024 134.826 71.3366L135.644 72.5623C136.869 71.7449 138.102 70.9389 139.343 70.1443L138.549 68.9033C139.104 68.5479 139.661 68.1948 140.219 67.844L141.003 69.0917C142.251 68.3078 143.507 67.5354 144.77 66.7747L144.01 65.5123C144.575 65.1727 145.14 64.8354 145.707 64.5005L146.457 65.7693C147.725 65.0205 149.001 64.2833 150.285 63.5581L149.56 62.2752C150.134 61.9508 150.709 61.6287 151.287 61.3091L152 62.5981C153.289 61.8846 154.585 61.183 155.888 60.4934L155.198 59.191C155.781 58.8829 156.364 58.5773 156.949 58.2741L157.627 59.5823C158.935 58.9043 160.251 58.2385 161.573 57.5848L160.92 56.2638C161.511 55.9715 162.104 55.6815 162.699 55.3941L163.34 56.7205C164.665 56.0798 165.996 55.4513 167.335 54.8352L166.719 53.4967C167.317 53.2212 167.917 52.9482 168.518 52.6776L169.123 54.0213C170.467 53.4164 171.817 52.824 173.175 52.2441L172.596 50.889C173.202 50.6302 173.809 50.3739 174.418 50.1201L174.985 51.48C176.342 50.9137 177.707 50.3599 179.077 49.8187L178.536 48.4481C179.149 48.2061 179.764 47.9665 180.379 47.7295L180.909 49.1047C182.284 48.5752 183.666 48.0584 185.054 47.5544L184.551 46.1693C185.169 45.9449 185.788 45.723 186.409 45.5036L186.9 46.8929C188.288 46.4025 189.681 45.9249 191.08 45.4603L190.616 44.0618C191.242 43.854 191.869 43.6487 192.498 43.4461L192.95 44.8485C194.351 44.3965 195.758 43.9575 197.171 43.5316L196.745 42.1208C197.375 41.9309 198.006 41.7436 198.638 41.5589L199.052 42.9733C200.465 42.5604 201.884 42.1606 203.308 41.7739L202.922 40.3519C203.559 40.1789 204.197 40.0086 204.836 39.841L205.21 41.2663C206.632 40.8932 208.06 40.5334 209.492 40.1868L209.146 38.7546C209.785 38.5998 210.426 38.4477 211.068 38.2982L211.402 39.7333C212.837 39.3991 214.277 39.0782 215.722 38.7708L215.415 37.3295C216.061 37.1921 216.708 37.0573 217.356 36.9252L217.651 38.369C219.089 38.0758 220.533 37.7958 221.981 37.5293L221.714 36.0801C222.362 35.9609 223.01 35.8444 223.66 35.7305L223.914 37.1819C225.367 36.9274 226.824 36.6864 228.285 36.4589L228.058 35.0029C228.709 34.9018 229.359 34.8033 230.011 34.7076L230.225 36.1654C231.679 35.9519 233.136 35.7519 234.598 35.5654L234.411 34.1038C235.065 34.0204 235.72 33.9397 236.375 33.8617L236.549 35.3249C238.014 35.1507 239.482 34.9902 240.955 34.8434L240.808 33.3771C241.461 33.3121 242.115 33.2497 242.769 33.19L242.903 34.6574C244.367 34.5239 245.834 34.4041 247.305 34.2979L247.199 32.8282C247.857 32.7807 248.516 32.7359 249.175 32.6939L249.269 34.1644C250.738 34.0708 252.212 33.9908 253.689 33.9246L253.623 32.4526C254.279 32.4232 254.935 32.3965 255.592 32.3725L255.646 33.8451C257.115 33.7915 258.588 33.7516 260.064 33.7255L260.038 32.2522C260.698 32.2405 261.359 32.2315 262.02 32.2253L262.034 33.6988C262.774 33.6919 263.514 33.6884 264.255 33.6884C264.997 33.6884 265.737 33.6919 266.477 33.6988L266.491 32.2253C267.152 32.2315 267.813 32.2405 268.473 32.2522L268.447 33.7255C269.923 33.7516 271.396 33.7915 272.865 33.8451L272.919 32.3725C273.576 32.3965 274.232 32.4232 274.888 32.4526L274.822 33.9246C276.299 33.9908 277.773 34.0708 279.242 34.1644L279.336 32.6939C279.995 32.7359 280.654 32.7807 281.312 32.8282L281.206 34.2979C282.677 34.4041 284.144 34.5239 285.608 34.6574L285.741 33.19C286.396 33.2497 287.05 33.3121 287.703 33.3772L287.556 34.8434C289.029 34.9902 290.497 35.1508 291.962 35.3249L292.136 33.8617C292.791 33.9397 293.446 34.0204 294.1 34.1038L293.913 35.5655C295.375 35.7519 296.832 35.9519 298.285 36.1654L298.5 34.7076C299.151 34.8033 299.802 34.9018 300.452 35.0029L300.226 36.459C301.687 36.6864 303.144 36.9274 304.597 37.1819L304.851 35.7305C305.501 35.8444 306.149 35.9609 306.797 36.0801L306.53 37.5293C307.978 37.7958 309.422 38.0758 310.86 38.3691L311.155 36.9252C311.803 37.0573 312.45 37.1921 313.096 37.3295L312.789 38.7708C314.234 39.0782 315.674 39.3991 317.109 39.7333L317.443 38.2982C318.085 38.4477 318.725 38.5998 319.365 38.7546L319.019 40.1868C320.451 40.5334 321.879 40.8932 323.301 41.2663L323.675 39.841C324.314 40.0086 324.952 40.1789 325.589 40.3519L325.203 41.7739C326.627 42.1606 328.046 42.5604 329.459 42.9733L329.873 41.559C330.505 41.7437 331.136 41.931 331.766 42.1208L331.34 43.5317C332.753 43.9575 334.16 44.3965 335.561 44.8485L336.013 43.4461C336.642 43.6488 337.269 43.854 337.895 44.0618L337.43 45.4603C338.83 45.9249 340.223 46.4025 341.611 46.893L342.102 45.5037C342.722 45.723 343.342 45.9449 343.96 46.1694L343.457 47.5544C344.845 48.0584 346.227 48.5752 347.602 49.1047L348.132 47.7296C348.747 47.9666 349.362 48.2061 349.975 48.4481L349.434 49.8187C350.804 50.3599 352.168 50.9137 353.526 51.48L354.093 50.1201C354.702 50.3739 355.309 50.6302 355.915 50.889L355.336 52.2441C356.693 52.824 358.044 53.4165 359.388 54.0213L359.993 52.6776C360.594 52.9482 361.194 53.2212 361.792 53.4967L361.176 54.8352C362.515 55.4513 363.846 56.0798 365.171 56.7206L365.812 55.3941C366.407 55.6816 367 55.9715 367.591 56.2639L366.938 57.5848C368.26 58.2385 369.576 58.9043 370.884 59.5823L371.562 58.2741C372.147 58.5773 372.73 58.8829 373.312 59.191L372.623 60.4934C373.926 61.183 375.222 61.8846 376.51 62.5981L377.224 61.3091C377.802 61.6288 378.377 61.9508 378.951 62.2752L378.226 63.5581C379.51 64.2833 380.786 65.0205 382.054 65.7693L382.803 64.5005C383.371 64.8354 383.936 65.1727 384.501 65.5123L383.741 66.7747C385.004 67.5354 386.26 68.3078 387.508 69.0918L388.292 67.844C388.85 68.1948 389.407 68.5479 389.962 68.9033L389.168 70.1443C390.409 70.9389 391.642 71.7449 392.867 72.5623L393.685 71.3366C394.233 71.7024 394.78 72.0706 395.325 72.4409L394.497 73.6597C395.717 74.4886 396.928 75.3289 398.131 76.1804L398.982 74.9776C399.52 75.3584 400.057 75.7415 400.591 76.1267L399.73 77.3223C400.926 78.1837 402.113 79.0563 403.291 79.9398L404.175 78.7609C404.703 79.1566 405.229 79.5544 405.753 79.9544L404.859 81.1258C406.031 82.0202 407.194 82.9254 408.349 83.8415L409.265 82.6872C409.781 83.0969 410.296 83.5088 410.808 83.9227L409.883 85.0692C411.029 85.9952 412.167 86.9318 413.296 87.879L414.243 86.7503C414.748 87.1741 415.251 87.6001 415.753 88.0281L414.796 89.1488C415.917 90.1058 417.029 91.0733 418.131 92.0512L419.109 90.9489C419.602 91.3862 420.093 91.8256 420.582 92.2671L419.595 93.3611C420.69 94.3485 421.775 95.3462 422.85 96.354L423.858 95.2789C424.339 95.7297 424.818 96.1825 425.295 96.6373L424.278 97.7039C425.345 98.7208 426.402 99.7477 427.449 100.785L428.486 99.7374C428.954 100.201 429.421 100.667 429.885 101.135L428.84 102.173C429.878 103.219 430.907 104.274 431.926 105.339L432.991 104.321C433.446 104.797 433.9 105.276 434.351 105.756L433.278 106.765C434.287 107.839 435.287 108.922 436.276 110.015L437.368 109.026C437.81 109.515 438.251 110.006 438.689 110.498L437.588 111.477C438.567 112.578 439.537 113.689 440.495 114.808L441.615 113.85C442.043 114.35 442.47 114.853 442.895 115.357L441.768 116.306C442.717 117.433 443.655 118.57 444.583 119.715L445.728 118.788C446.143 119.3 446.555 119.814 446.966 120.329L445.813 121.247C446.731 122.4 447.638 123.562 448.534 124.732L449.704 123.837C450.105 124.36 450.503 124.886 450.9 125.413L449.722 126.298C450.607 127.476 451.482 128.661 452.345 129.856L453.539 128.993C453.925 129.527 454.309 130.062 454.691 130.6L453.489 131.453C454.343 132.655 455.185 133.865 456.015 135.084L457.233 134.253C457.604 134.798 457.973 135.344 458.34 135.892L457.115 136.712C457.934 137.935 458.742 139.167 459.538 140.407L460.778 139.611C461.134 140.166 461.488 140.722 461.84 141.28L460.593 142.066C461.379 143.312 462.153 144.567 462.916 145.83L464.177 145.068C464.517 145.632 464.855 146.197 465.191 146.764L463.923 147.515C464.674 148.782 465.413 150.057 466.14 151.339L467.422 150.613C467.747 151.187 468.07 151.762 468.39 152.338L467.102 153.054C467.817 154.341 468.521 155.636 469.212 156.939L470.513 156.248C470.822 156.829 471.129 157.413 471.433 157.997L470.125 158.677C470.805 159.984 471.472 161.298 472.128 162.62L473.448 161.965C473.741 162.556 474.032 163.149 474.32 163.743L472.994 164.386C473.637 165.71 474.267 167.041 474.884 168.378L476.222 167.761C476.498 168.359 476.772 168.958 477.043 169.559L475.7 170.165C476.307 171.508 476.901 172.859 477.482 174.215L478.837 173.635C479.096 174.24 479.353 174.847 479.608 175.456L478.249 176.024C478.816 177.381 479.372 178.745 479.914 180.115L481.284 179.572C481.527 180.185 481.767 180.799 482.005 181.415L480.63 181.945C481.161 183.32 481.68 184.702 482.185 186.089L483.569 185.585C483.794 186.203 484.017 186.822 484.237 187.442L482.848 187.935C483.34 189.322 483.819 190.715 484.285 192.113L485.683 191.648C485.891 192.274 486.097 192.9 486.3 193.529L484.898 193.982C485.352 195.383 485.792 196.79 486.219 198.202L487.629 197.775C487.82 198.405 488.008 199.036 488.193 199.668L486.779 200.082C487.193 201.495 487.594 202.913 487.982 204.337L489.404 203.95C489.577 204.587 489.748 205.225 489.916 205.864L488.491 206.239C488.865 207.661 489.226 209.088 489.574 210.52L491.006 210.173C491.161 210.813 491.313 211.453 491.463 212.095L490.029 212.43C490.364 213.865 490.686 215.304 490.994 216.749L492.435 216.441C492.573 217.087 492.708 217.734 492.841 218.382L491.397 218.678C491.691 220.116 491.972 221.559 492.239 223.007L493.688 222.739C493.808 223.387 493.925 224.036 494.039 224.685L492.588 224.94C492.843 226.392 493.085 227.849 493.313 229.31L494.769 229.083C494.87 229.733 494.969 230.384 495.065 231.036L493.607 231.251C493.821 232.704 494.022 234.161 494.209 235.623L495.671 235.436C495.754 236.09 495.835 236.744 495.914 237.4L494.45 237.574C494.625 239.038 494.786 240.507 494.933 241.979L496.4 241.833C496.465 242.486 496.527 243.139 496.587 243.794L495.12 243.928C495.254 245.391 495.374 246.858 495.481 248.329L496.95 248.223C496.998 248.881 497.043 249.54 497.085 250.199L495.614 250.293C495.708 251.763 495.789 253.236 495.855 254.713L497.327 254.647C497.357 255.303 497.383 255.959 497.407 256.616L495.935 256.67C495.989 258.139 496.029 259.612 496.055 261.088L497.528 261.062Z" fill="#EEF2FC" stroke="white" stroke-width="2.94708" stroke-dasharray="4.42 1.96"/>
<path d="M464.12 261.071C464.134 261.73 464.144 262.389 464.151 263.049L462.924 263.062C462.932 263.8 462.936 264.539 462.936 265.279C462.936 266.018 462.932 266.757 462.924 267.495L464.151 267.508C464.144 268.168 464.134 268.827 464.12 269.486L462.893 269.46C462.862 270.933 462.816 272.401 462.754 273.865L463.981 273.917C463.953 274.573 463.922 275.228 463.888 275.882L462.662 275.818C462.585 277.294 462.492 278.766 462.383 280.234L463.607 280.324C463.559 280.981 463.507 281.636 463.452 282.29L462.228 282.187C462.105 283.654 461.966 285.116 461.811 286.573L463.032 286.703C462.962 287.359 462.889 288.015 462.813 288.67L461.593 288.528C461.423 289.992 461.237 291.451 461.035 292.904L462.252 293.073C462.161 293.723 462.068 294.373 461.972 295.021L460.757 294.84C460.54 296.3 460.307 297.754 460.058 299.203L461.268 299.411C461.157 300.06 461.043 300.708 460.925 301.355L459.717 301.135C459.454 302.582 459.175 304.023 458.881 305.458L460.084 305.705C459.952 306.351 459.816 306.997 459.677 307.641L458.477 307.383C458.167 308.824 457.841 310.259 457.5 311.688L458.695 311.973C458.542 312.612 458.386 313.25 458.228 313.887L457.036 313.59C456.68 315.02 456.308 316.444 455.921 317.861L457.106 318.185C456.932 318.82 456.756 319.454 456.576 320.087L455.395 319.752C454.993 321.167 454.577 322.575 454.145 323.977L455.318 324.339C455.124 324.968 454.928 325.597 454.728 326.224L453.558 325.85C453.11 327.254 452.647 328.651 452.169 330.042L453.331 330.441C453.117 331.063 452.9 331.683 452.681 332.302L451.523 331.891C451.031 333.279 450.523 334.66 450.001 336.033L451.149 336.469C450.915 337.085 450.678 337.699 450.438 338.312L449.295 337.864C448.758 339.234 448.207 340.596 447.642 341.951L448.775 342.424C448.521 343.031 448.265 343.637 448.005 344.241L446.877 343.757C446.296 345.111 445.7 346.457 445.09 347.795L446.207 348.304C445.935 348.902 445.659 349.499 445.381 350.094L444.268 349.574C443.644 350.907 443.006 352.232 442.354 353.549L443.454 354.094C443.162 354.684 442.867 355.272 442.569 355.859L441.474 355.303C440.808 356.615 440.128 357.918 439.434 359.213L440.516 359.793C440.206 360.373 439.892 360.951 439.576 361.527L438.499 360.937C437.791 362.228 437.068 363.51 436.332 364.783L437.395 365.397C437.066 365.967 436.734 366.534 436.4 367.1L435.343 366.475C434.594 367.742 433.831 369 433.055 370.248L434.098 370.896C433.751 371.455 433.4 372.012 433.048 372.568L432.011 371.909C431.222 373.151 430.42 374.383 429.604 375.606L430.626 376.287C430.261 376.835 429.893 377.38 429.523 377.923L428.508 377.232C427.68 378.448 426.838 379.655 425.983 380.852L426.982 381.566C426.6 382.101 426.215 382.634 425.828 383.166L424.836 382.442C423.969 383.631 423.089 384.81 422.197 385.979L423.173 386.724C422.774 387.247 422.372 387.768 421.968 388.287L420.999 387.532C420.095 388.692 419.178 389.842 418.249 390.982L419.201 391.758C418.785 392.268 418.367 392.776 417.947 393.281L417.003 392.496C416.062 393.627 415.109 394.748 414.143 395.858L415.07 396.664C414.638 397.16 414.204 397.654 413.768 398.146L412.849 397.331C411.873 398.431 410.885 399.521 409.885 400.599L410.785 401.434C410.338 401.917 409.888 402.397 409.436 402.875L408.544 402.031C407.533 403.1 406.511 404.157 405.477 405.203L406.35 406.066C405.888 406.534 405.423 407 404.956 407.463L404.091 406.591C403.047 407.627 401.991 408.652 400.924 409.664L401.77 410.555C401.293 411.008 400.814 411.458 400.332 411.906L399.495 411.008C398.419 412.01 397.331 413 396.232 413.978L397.049 414.895C396.558 415.333 396.065 415.767 395.569 416.2L394.762 415.275C393.653 416.242 392.535 417.197 391.405 418.14L392.192 419.083C391.687 419.504 391.18 419.923 390.671 420.34L389.893 419.39C388.755 420.321 387.607 421.24 386.448 422.146L387.205 423.113C386.686 423.518 386.166 423.921 385.644 424.321L384.897 423.347C383.73 424.241 382.553 425.123 381.365 425.991L382.09 426.982C381.56 427.371 381.027 427.756 380.493 428.14L379.777 427.142C378.582 427.998 377.377 428.842 376.162 429.673L376.855 430.687C376.312 431.058 375.767 431.426 375.22 431.792L374.537 430.772C373.316 431.589 372.085 432.394 370.845 433.185L371.505 434.22C370.95 434.574 370.394 434.925 369.835 435.273L369.185 434.232C367.938 435.01 366.682 435.774 365.416 436.525L366.043 437.581C365.478 437.917 364.911 438.25 364.342 438.58L363.725 437.518C362.453 438.256 361.173 438.98 359.883 439.69L360.475 440.766C359.899 441.083 359.322 441.398 358.742 441.709L358.16 440.628C356.867 441.324 355.564 442.006 354.254 442.674L354.811 443.768C354.225 444.067 353.637 444.363 353.048 444.656L352.501 443.556C351.185 444.211 349.861 444.851 348.529 445.476L349.051 446.588C348.456 446.867 347.859 447.144 347.262 447.417L346.751 446.301C345.414 446.913 344.069 447.51 342.716 448.093L343.202 449.22C342.598 449.481 341.992 449.738 341.385 449.992L340.91 448.86C339.556 449.427 338.195 449.98 336.826 450.518L337.275 451.661C336.663 451.902 336.049 452.14 335.434 452.374L334.996 451.227C333.623 451.751 332.243 452.26 330.856 452.754L331.268 453.911C330.649 454.131 330.029 454.349 329.407 454.563L329.007 453.402C327.617 453.882 326.221 454.346 324.818 454.795L325.192 455.965C324.565 456.165 323.937 456.363 323.307 456.558L322.945 455.384C321.543 455.818 320.135 456.236 318.721 456.639L319.057 457.82C318.424 458 317.791 458.177 317.155 458.351L316.831 457.167C315.414 457.555 313.99 457.928 312.56 458.286L312.858 459.477C312.222 459.636 311.584 459.792 310.945 459.945L310.659 458.751C309.23 459.093 307.795 459.42 306.355 459.731L306.614 460.932C305.97 461.071 305.325 461.207 304.678 461.34L304.431 460.137C302.995 460.432 301.554 460.712 300.108 460.976L300.328 462.184C299.682 462.302 299.034 462.417 298.385 462.528L298.177 461.318C296.728 461.568 295.273 461.802 293.814 462.02L293.995 463.234C293.347 463.331 292.698 463.425 292.048 463.515L291.878 462.299C290.424 462.501 288.966 462.688 287.502 462.859L287.644 464.079C286.99 464.155 286.334 464.228 285.678 464.298L285.548 463.077C284.09 463.233 282.628 463.372 281.162 463.496L281.265 464.72C280.611 464.775 279.956 464.827 279.299 464.876L279.208 463.651C277.741 463.76 276.269 463.854 274.793 463.931L274.857 465.157C274.203 465.192 273.548 465.223 272.892 465.251L272.84 464.024C271.376 464.086 269.908 464.133 268.435 464.163L268.461 465.391C267.802 465.404 267.143 465.415 266.484 465.422L266.47 464.194C265.732 464.202 264.993 464.206 264.254 464.206C263.514 464.206 262.775 464.202 262.037 464.194L262.024 465.422C261.364 465.415 260.705 465.404 260.047 465.391L260.072 464.163C258.6 464.133 257.132 464.086 255.667 464.024L255.615 465.251C254.959 465.223 254.304 465.192 253.65 465.157L253.714 463.931C252.238 463.854 250.767 463.76 249.299 463.651L249.208 464.876C248.552 464.827 247.897 464.775 247.242 464.72L247.345 463.496C245.879 463.372 244.417 463.233 242.96 463.077L242.83 464.298C242.173 464.228 241.518 464.155 240.863 464.079L241.005 462.859C239.542 462.688 238.083 462.501 236.629 462.299L236.46 463.515C235.81 463.425 235.161 463.331 234.512 463.234L234.694 462.02C233.234 461.802 231.78 461.568 230.331 461.318L230.122 462.528C229.474 462.417 228.826 462.302 228.179 462.184L228.399 460.976C226.953 460.712 225.512 460.432 224.077 460.137L223.829 461.34C223.183 461.207 222.538 461.071 221.893 460.932L222.153 459.731C220.712 459.42 219.277 459.093 217.848 458.751L217.562 459.945C216.923 459.792 216.286 459.636 215.649 459.477L215.947 458.286C214.517 457.928 213.094 457.555 211.677 457.167L211.352 458.351C210.717 458.177 210.083 458 209.45 457.82L209.787 456.639C208.372 456.236 206.964 455.818 205.563 455.384L205.2 456.558C204.571 456.363 203.942 456.165 203.316 455.965L203.69 454.795C202.287 454.346 200.89 453.882 199.5 453.402L199.1 454.563C198.479 454.349 197.859 454.131 197.24 453.911L197.652 452.754C196.265 452.26 194.884 451.751 193.512 451.227L193.074 452.374C192.459 452.14 191.845 451.902 191.233 451.661L191.682 450.518C190.313 449.98 188.951 449.427 187.597 448.86L187.122 449.992C186.515 449.738 185.91 449.481 185.306 449.22L185.792 448.093C184.439 447.51 183.094 446.913 181.757 446.301L181.246 447.417C180.648 447.144 180.052 446.867 179.457 446.588L179.979 445.476C178.647 444.851 177.322 444.211 176.006 443.556L175.46 444.656C174.87 444.363 174.282 444.067 173.696 443.768L174.254 442.674C172.943 442.006 171.641 441.324 170.347 440.628L169.765 441.709C169.186 441.398 168.608 441.083 168.032 440.766L168.625 439.69C167.335 438.98 166.054 438.256 164.782 437.518L164.166 438.58C163.597 438.25 163.03 437.917 162.465 437.581L163.091 436.525C161.826 435.774 160.569 435.01 159.322 434.232L158.672 435.273C158.114 434.925 157.557 434.574 157.003 434.22L157.663 433.185C156.423 432.394 155.192 431.589 153.97 430.772L153.287 431.792C152.74 431.426 152.196 431.058 151.653 430.687L152.346 429.673C151.131 428.842 149.926 427.998 148.73 427.142L148.015 428.14C147.48 427.756 146.948 427.371 146.417 426.982L147.142 425.991C145.955 425.123 144.778 424.241 143.61 423.347L142.863 424.321C142.341 423.921 141.821 423.518 141.303 423.113L142.059 422.146C140.9 421.24 139.752 420.321 138.614 419.39L137.836 420.34C137.327 419.924 136.82 419.505 136.315 419.083L137.102 418.14C135.973 417.197 134.854 416.242 133.746 415.275L132.938 416.2C132.443 415.767 131.95 415.333 131.458 414.895L132.275 413.978C131.176 413 130.089 412.01 129.012 411.008L128.175 411.906C127.694 411.458 127.215 411.008 126.738 410.555L127.583 409.664C126.516 408.652 125.46 407.627 124.416 406.591L123.551 407.463C123.084 407 122.62 406.534 122.157 406.067L123.031 405.203C121.997 404.157 120.974 403.1 119.964 402.031L119.071 402.875C118.619 402.397 118.17 401.917 117.722 401.434L118.623 400.599C117.623 399.521 116.635 398.432 115.658 397.331L114.74 398.146C114.303 397.654 113.869 397.16 113.438 396.664L114.364 395.858C113.399 394.748 112.446 393.627 111.505 392.496L110.561 393.281C110.14 392.776 109.722 392.268 109.306 391.758L110.258 390.982C109.329 389.842 108.412 388.692 107.508 387.532L106.54 388.287C106.135 387.768 105.734 387.247 105.334 386.724L106.31 385.979C105.418 384.81 104.538 383.631 103.672 382.442L102.679 383.166C102.292 382.634 101.907 382.101 101.525 381.566L102.524 380.852C101.67 379.655 100.828 378.448 99.999 377.232L98.9842 377.923C98.614 377.38 98.2464 376.835 97.8814 376.287L98.903 375.606C98.0875 374.383 97.2852 373.151 96.4962 371.909L95.4598 372.568C95.107 372.012 94.7568 371.455 94.4094 370.896L95.4522 370.248C94.6761 369 93.9135 367.742 93.1645 366.475L92.1075 367.1C91.7729 366.534 91.4411 365.967 91.1119 365.397L92.175 364.783C91.439 363.51 90.7167 362.228 90.0083 360.937L88.9318 361.527C88.6154 360.951 88.3019 360.373 87.991 359.793L89.0733 359.213C88.3793 357.918 87.6991 356.615 87.0331 355.303L85.9382 355.859C85.6404 355.272 85.3453 354.684 85.0531 354.094L86.1534 353.549C85.5011 352.232 84.8629 350.907 84.2391 349.574L83.1269 350.094C82.8484 349.499 82.5727 348.902 82.2999 348.304L83.4173 347.795C82.8073 346.457 82.2117 345.111 81.6306 343.757L80.5022 344.242C80.2429 343.637 79.9864 343.031 79.7328 342.424L80.8659 341.951C80.3002 340.596 79.7491 339.234 79.2126 337.864L78.0692 338.312C77.8293 337.699 77.5924 337.085 77.3584 336.47L78.5062 336.033C77.984 334.66 77.4766 333.279 76.9841 331.891L75.8269 332.302C75.6072 331.683 75.3906 331.063 75.1769 330.441L76.3381 330.042C75.8603 328.652 75.3974 327.254 74.9497 325.85L73.7798 326.224C73.5799 325.597 73.3829 324.968 73.189 324.339L74.3625 323.977C73.9308 322.575 73.514 321.167 73.1126 319.752L71.9312 320.087C71.7517 319.454 71.5752 318.82 71.4017 318.185L72.5863 317.861C72.1993 316.444 71.8275 315.02 71.4712 313.59L70.2797 313.887C70.121 313.25 69.9654 312.612 69.8129 311.973L71.0073 311.688C70.6662 310.259 70.3405 308.824 70.0304 307.383L68.8299 307.641C68.6912 306.997 68.5556 306.351 68.4232 305.705L69.6261 305.458C69.3321 304.023 69.0535 302.582 68.7905 301.135L67.5823 301.355C67.4648 300.708 67.3503 300.06 67.2389 299.411L68.4492 299.203C68.2005 297.754 67.9675 296.3 67.7503 294.84L66.5357 295.021C66.4393 294.373 66.346 293.723 66.2557 293.073L67.472 292.904C67.2703 291.451 67.0842 289.992 66.9141 288.528L65.6943 288.67C65.6182 288.015 65.5453 287.359 65.4755 286.703L66.6966 286.573C66.5417 285.116 66.4026 283.654 66.2793 282.187L65.0556 282.29C65.0006 281.636 64.9488 280.981 64.9001 280.324L66.1246 280.234C66.0157 278.766 65.9227 277.294 65.8457 275.818L64.6195 275.882C64.5854 275.228 64.5544 274.573 64.5266 273.917L65.7534 273.865C65.6913 272.401 65.645 270.933 65.6147 269.46L64.387 269.486C64.3735 268.827 64.3631 268.168 64.3559 267.508L65.5838 267.495C65.5757 266.757 65.5717 266.018 65.5717 265.279C65.5717 264.539 65.5757 263.8 65.5838 263.062L64.3559 263.049C64.3631 262.389 64.3735 261.73 64.387 261.071L65.6147 261.097C65.645 259.625 65.6913 258.156 65.7534 256.692L64.5266 256.64C64.5544 255.984 64.5854 255.329 64.6195 254.675L65.8457 254.739C65.9227 253.263 66.0157 251.791 66.1246 250.324L64.9001 250.233C64.9488 249.577 65.0006 248.921 65.0556 248.267L66.2793 248.37C66.4026 246.903 66.5417 245.441 66.6966 243.984L65.4755 243.854C65.5453 243.198 65.6182 242.542 65.6943 241.888L66.9141 242.029C67.0842 240.566 67.2703 239.107 67.472 237.653L66.2557 237.484C66.346 236.834 66.4393 236.185 66.5357 235.536L67.7503 235.717C67.9675 234.257 68.2005 232.803 68.4492 231.354L67.2389 231.146C67.3503 230.497 67.4648 229.849 67.5823 229.202L68.7905 229.422C69.0535 227.975 69.3321 226.534 69.6261 225.099L68.4232 224.852C68.5556 224.206 68.6912 223.56 68.8299 222.916L70.0304 223.174C70.3405 221.733 70.6662 220.298 71.0073 218.869L69.8129 218.584C69.9654 217.945 70.121 217.307 70.2797 216.67L71.4712 216.967C71.8275 215.537 72.1993 214.113 72.5863 212.696L71.4017 212.372C71.5752 211.737 71.7517 211.103 71.9312 210.47L73.1126 210.805C73.514 209.39 73.9307 207.982 74.3625 206.58L73.189 206.219C73.3829 205.589 73.5799 204.961 73.7798 204.334L74.9497 204.707C75.3974 203.303 75.8603 201.906 76.3381 200.515L75.1769 200.116C75.3906 199.495 75.6072 198.874 75.8268 198.255L76.9841 198.666C77.4766 197.278 77.984 195.897 78.5061 194.524L77.3584 194.088C77.5924 193.472 77.8293 192.858 78.0692 192.245L79.2126 192.693C79.749 191.323 80.3002 189.961 80.8659 188.606L79.7327 188.133C79.9863 187.526 80.2428 186.92 80.5022 186.316L81.6306 186.8C82.2116 185.446 82.8073 184.1 83.4172 182.763L82.2999 182.253C82.5727 181.655 82.8484 181.058 83.1268 180.463L84.2391 180.983C84.8629 179.65 85.5011 178.325 86.1534 177.008L85.0531 176.463C85.3453 175.873 85.6403 175.285 85.9382 174.698L87.0331 175.254C87.6991 173.942 88.3793 172.639 89.0733 171.344L87.991 170.764C88.3018 170.184 88.6154 169.606 88.9317 169.03L90.0082 169.62C90.7167 168.33 91.439 167.047 92.175 165.774L91.1119 165.16C91.4411 164.59 91.7729 164.023 92.1075 163.457L93.1645 164.082C93.9135 162.815 94.6761 161.558 95.4522 160.309L94.4093 159.661C94.7568 159.102 95.1069 158.545 95.4597 157.989L96.4962 158.648C97.2851 157.406 98.0875 156.174 98.9029 154.951L97.8814 154.27C98.2463 153.723 98.6139 153.177 98.9841 152.634L99.999 153.325C100.828 152.109 101.67 150.902 102.524 149.705L101.525 148.991C101.907 148.456 102.292 147.923 102.679 147.392L103.672 148.115C104.538 146.926 105.418 145.747 106.31 144.579L105.334 143.833C105.734 143.31 106.135 142.789 106.54 142.271L107.508 143.025C108.412 141.865 109.329 140.715 110.258 139.575L109.306 138.799C109.722 138.289 110.14 137.782 110.561 137.276L111.505 138.061C112.446 136.93 113.399 135.809 114.364 134.699L113.438 133.894C113.869 133.397 114.303 132.903 114.74 132.411L115.658 133.226C116.635 132.126 117.623 131.036 118.623 129.958L117.722 129.123C118.17 128.64 118.619 128.16 119.071 127.682L119.964 128.526C120.974 127.457 121.997 126.4 123.031 125.354L122.157 124.491C122.62 124.023 123.084 123.557 123.551 123.094L124.416 123.966C125.46 122.93 126.516 121.906 127.583 120.893L126.737 120.002C127.215 119.549 127.694 119.099 128.175 118.651L129.012 119.55C130.089 118.548 131.176 117.557 132.275 116.579L131.458 115.662C131.949 115.225 132.443 114.79 132.938 114.357L133.746 115.282C134.854 114.315 135.973 113.36 137.102 112.417L136.315 111.474C136.82 111.053 137.327 110.634 137.836 110.217L138.614 111.167C139.752 110.236 140.9 109.318 142.059 108.411L141.303 107.444C141.821 107.039 142.341 106.636 142.863 106.236L143.61 107.211C144.777 106.316 145.955 105.435 147.142 104.566L146.417 103.575C146.948 103.186 147.48 102.801 148.015 102.418L148.73 103.416C149.926 102.559 151.131 101.715 152.346 100.884L151.653 99.8705C152.196 99.4993 152.74 99.1308 153.287 98.7648L153.97 99.7853C155.192 98.9677 156.422 98.1633 157.663 97.3723L157.003 96.337C157.557 95.9833 158.114 95.6322 158.672 95.2838L159.322 96.3256C160.569 95.5475 161.826 94.7827 163.091 94.0317L162.465 92.9757C163.03 92.6402 163.597 92.3075 164.166 91.9774L164.782 93.0395C166.054 92.3015 167.335 91.5772 168.625 90.8668L168.032 89.7913C168.608 89.474 169.186 89.1595 169.765 88.8477L170.347 89.9291C171.641 89.2331 172.943 88.551 174.254 87.8831L173.696 86.789C174.282 86.4903 174.87 86.1944 175.46 85.9013L176.006 87.0009C177.322 86.3466 178.647 85.7064 179.979 85.0807L179.457 83.9692C180.052 83.6899 180.648 83.4134 181.246 83.1398L181.757 84.2564C183.094 83.6446 184.439 83.0472 185.792 82.4644L185.306 81.3366C185.91 81.0764 186.515 80.8191 187.122 80.5647L187.597 81.6972C188.951 81.1297 190.313 80.5768 191.682 80.0387L191.233 78.8959C191.845 78.6552 192.459 78.4175 193.074 78.1828L193.512 79.33C194.884 78.8061 196.265 78.2971 197.652 77.803L197.24 76.6462C197.858 76.4259 198.479 76.2085 199.1 75.9941L199.5 77.1549C200.89 76.6755 202.287 76.2111 203.69 75.7619L203.316 74.5924C203.942 74.3918 204.571 74.1942 205.2 73.9995L205.563 75.1727C206.964 74.7395 208.372 74.3214 209.787 73.9186L209.45 72.7376C210.083 72.5574 210.717 72.3803 211.352 72.2063L211.676 73.3905C213.094 73.0022 214.517 72.6291 215.947 72.2715L215.649 71.0803C216.286 70.9211 216.923 70.7649 217.562 70.6118L217.848 71.806C219.277 71.4637 220.712 71.1369 222.152 70.8257L221.893 69.6255C222.537 69.4863 223.183 69.3502 223.829 69.2173L224.077 70.4201C225.512 70.125 226.953 69.8454 228.399 69.5814L228.179 68.3734C228.826 68.2554 229.474 68.1405 230.122 68.0288L230.331 69.2389C231.78 68.9893 233.234 68.7555 234.694 68.5375L234.512 67.323C235.16 67.2262 235.81 67.1326 236.46 67.042L236.629 68.2582C238.083 68.0558 239.542 67.8691 241.005 67.6983L240.863 66.4786C241.518 66.4022 242.173 66.329 242.83 66.259L242.96 67.48C244.417 67.3246 245.879 67.1849 247.345 67.0612L247.242 65.8376C247.896 65.7824 248.552 65.7303 249.208 65.6814L249.299 66.906C250.766 66.7967 252.238 66.7033 253.714 66.6261L253.65 65.3998C254.304 65.3656 254.959 65.3345 255.615 65.3066L255.667 66.5334C257.132 66.4711 258.6 66.4246 260.072 66.3942L260.047 65.1665C260.705 65.1529 261.364 65.1425 262.024 65.1352L262.037 66.3631C262.775 66.355 263.514 66.351 264.254 66.351C264.993 66.351 265.732 66.355 266.47 66.3631L266.484 65.1352C267.143 65.1425 267.802 65.1529 268.461 65.1665L268.435 66.3942C269.908 66.4246 271.376 66.4711 272.84 66.5334L272.892 65.3066C273.548 65.3345 274.203 65.3656 274.857 65.3998L274.793 66.6261C276.269 66.7033 277.741 66.7967 279.208 66.906L279.299 65.6814C279.956 65.7303 280.611 65.7824 281.265 65.8376L281.162 67.0612C282.628 67.1849 284.09 67.3246 285.548 67.48L285.678 66.259C286.334 66.329 286.99 66.4022 287.644 66.4786L287.502 67.6983C288.966 67.8691 290.424 68.0558 291.878 68.2582L292.048 67.042C292.698 67.1326 293.347 67.2262 293.995 67.323L293.814 68.5375C295.273 68.7555 296.728 68.9893 298.177 69.2389L298.385 68.0288C299.034 68.1405 299.682 68.2554 300.328 68.3734L300.108 69.5814C301.554 69.8454 302.995 70.125 304.431 70.4201L304.678 69.2173C305.325 69.3502 305.97 69.4863 306.614 69.6255L306.355 70.8257C307.795 71.1369 309.23 71.4637 310.659 71.806L310.945 70.6118C311.584 70.7649 312.222 70.9211 312.858 71.0803L312.56 72.2715C313.99 72.6291 315.414 73.0021 316.831 73.3905L317.155 72.2063C317.791 72.3803 318.424 72.5574 319.057 72.7376L318.721 73.9185C320.135 74.3214 321.543 74.7395 322.945 75.1727L323.307 73.9995C323.937 74.1941 324.565 74.3918 325.192 74.5924L324.818 75.7619C326.221 76.2111 327.617 76.6755 329.007 77.1549L329.407 75.9941C330.029 76.2085 330.649 76.4259 331.268 76.6462L330.856 77.803C332.243 78.297 333.623 78.8061 334.996 79.33L335.434 78.1828C336.049 78.4175 336.663 78.6552 337.275 78.8959L336.826 80.0387C338.195 80.5768 339.556 81.1297 340.91 81.6972L341.385 80.5646C341.992 80.8191 342.598 81.0764 343.202 81.3366L342.716 82.4644C344.069 83.0472 345.413 83.6446 346.751 84.2564L347.261 83.1398C347.859 83.4134 348.456 83.6899 349.051 83.9692L348.529 85.0807C349.861 85.7064 351.185 86.3465 352.501 87.0008L353.048 85.9013C353.637 86.1944 354.225 86.4903 354.811 86.789L354.254 87.883C355.564 88.551 356.867 89.2331 358.16 89.9291L358.742 88.8477C359.322 89.1594 359.899 89.474 360.475 89.7912L359.883 90.8668C361.172 91.5772 362.453 92.3015 363.725 93.0395L364.342 91.9774C364.911 92.3074 365.478 92.6402 366.043 92.9757L365.416 94.0317C366.682 94.7827 367.938 95.5474 369.185 96.3256L369.835 95.2838C370.394 95.6322 370.95 95.9832 371.505 96.337L370.845 97.3723C372.085 98.1633 373.316 98.9677 374.537 99.7852L375.22 98.7648C375.767 99.1307 376.312 99.4993 376.855 99.8705L376.161 100.884C377.376 101.715 378.582 102.559 379.777 103.416L380.493 102.418C381.027 102.801 381.56 103.186 382.09 103.575L381.365 104.566C382.553 105.434 383.73 106.316 384.897 107.211L385.644 106.236C386.166 106.636 386.686 107.039 387.205 107.444L386.448 108.411C387.607 109.317 388.755 110.236 389.893 111.167L390.671 110.217C391.18 110.634 391.687 111.053 392.192 111.474L391.405 112.417C392.535 113.36 393.653 114.315 394.761 115.282L395.569 114.357C396.064 114.79 396.558 115.225 397.049 115.662L396.232 116.579C397.331 117.557 398.419 118.547 399.495 119.55L400.332 118.651C400.813 119.099 401.293 119.549 401.77 120.002L400.924 120.893C401.991 121.905 403.047 122.93 404.091 123.966L404.956 123.094C405.423 123.557 405.888 124.023 406.35 124.491L405.477 125.354C406.511 126.4 407.533 127.457 408.544 128.526L409.436 127.682C409.888 128.16 410.338 128.64 410.785 129.123L409.885 129.958C410.885 131.036 411.873 132.126 412.849 133.226L413.768 132.411C414.204 132.903 414.638 133.397 415.07 133.894L414.143 134.699C415.108 135.809 416.062 136.93 417.003 138.061L417.947 137.276C418.367 137.782 418.785 138.289 419.201 138.799L418.249 139.575C419.178 140.715 420.095 141.865 420.999 143.025L421.968 142.27C422.372 142.789 422.774 143.31 423.173 143.833L422.197 144.578C423.089 145.747 423.969 146.926 424.836 148.115L425.828 147.391C426.215 147.923 426.6 148.456 426.982 148.991L425.983 149.705C426.838 150.902 427.68 152.109 428.508 153.325L429.523 152.634C429.893 153.177 430.261 153.723 430.626 154.27L429.604 154.951C430.42 156.174 431.222 157.406 432.011 158.648L433.048 157.989C433.4 158.545 433.751 159.102 434.098 159.661L433.055 160.309C433.831 161.557 434.594 162.815 435.343 164.082L436.4 163.457C436.734 164.023 437.066 164.59 437.395 165.16L436.332 165.774C437.068 167.047 437.791 168.33 438.499 169.62L439.576 169.03C439.892 169.606 440.206 170.184 440.516 170.764L439.434 171.344C440.128 172.639 440.808 173.942 441.474 175.254L442.569 174.698C442.867 175.285 443.162 175.873 443.454 176.463L442.354 177.008C443.006 178.325 443.644 179.65 444.268 180.983L445.381 180.463C445.659 181.058 445.935 181.655 446.207 182.253L445.09 182.763C445.7 184.1 446.296 185.446 446.877 186.8L448.005 186.316C448.265 186.92 448.521 187.526 448.775 188.133L447.641 188.606C448.207 189.961 448.758 191.323 449.295 192.693L450.438 192.245C450.678 192.858 450.915 193.472 451.149 194.088L450.001 194.524C450.523 195.897 451.031 197.278 451.523 198.666L452.681 198.255C452.9 198.874 453.117 199.495 453.331 200.116L452.169 200.515C452.647 201.906 453.11 203.303 453.558 204.707L454.728 204.334C454.928 204.961 455.124 205.589 455.318 206.219L454.145 206.58C454.577 207.982 454.993 209.39 455.395 210.805L456.576 210.47C456.756 211.103 456.932 211.737 457.106 212.372L455.921 212.696C456.308 214.113 456.68 215.537 457.036 216.967L458.228 216.67C458.386 217.307 458.542 217.945 458.695 218.584L457.5 218.869C457.841 220.298 458.167 221.733 458.477 223.174L459.677 222.916C459.816 223.56 459.952 224.206 460.084 224.852L458.881 225.099C459.175 226.534 459.454 227.975 459.717 229.422L460.925 229.202C461.043 229.849 461.157 230.497 461.268 231.146L460.058 231.354C460.307 232.803 460.54 234.257 460.757 235.717L461.972 235.536C462.068 236.184 462.161 236.834 462.252 237.484L461.035 237.653C461.237 239.107 461.423 240.566 461.593 242.029L462.813 241.888C462.889 242.542 462.962 243.198 463.032 243.854L461.811 243.984C461.966 245.441 462.105 246.903 462.228 248.37L463.452 248.267C463.507 248.921 463.559 249.576 463.607 250.233L462.383 250.324C462.492 251.791 462.585 253.263 462.662 254.739L463.888 254.675C463.922 255.329 463.953 255.984 463.981 256.64L462.754 256.692C462.816 258.156 462.862 259.624 462.893 261.097L464.12 261.071Z" fill="#F4F7FF" stroke="white" stroke-width="2.4559" stroke-dasharray="4.42 1.96"/>
</svg>
