<svg width="25" height="24" viewBox="0 0 25 24" fill="none" xmlns="http://www.w3.org/2000/svg">
<path d="M10.7995 2.10328C9.39792 1.64957 7.87429 2.28067 7.20404 3.59257L6.39826 5.16974C6.30252 5.35714 6.15011 5.50955 5.96271 5.60529L4.38554 6.41107C3.07364 7.08132 2.44254 8.60495 2.89625 10.0065L3.44171 11.6915C3.50652 11.8917 3.50652 12.1073 3.44171 12.3075L2.89625 13.9925C2.44254 15.3941 3.07364 16.9177 4.38554 17.588L5.96271 18.3937C6.15011 18.4895 6.30252 18.6419 6.39826 18.8293L7.20404 20.4065C7.87429 21.7184 9.39792 22.3495 10.7995 21.8958L12.4845 21.3503C12.6847 21.2855 12.9003 21.2855 13.1005 21.3503L14.7855 21.8958C16.1871 22.3495 17.7107 21.7184 18.381 20.4065L19.1867 18.8293C19.2825 18.6419 19.4349 18.4895 19.6223 18.3937L21.1995 17.588C22.5114 16.9177 23.1425 15.3941 22.6888 13.9925L22.1433 12.3075C22.0785 12.1073 22.0785 11.8917 22.1433 11.6915L22.6888 10.0065C23.1425 8.60495 22.5114 7.08132 21.1995 6.41107L19.6223 5.60529C19.4349 5.50955 19.2825 5.35714 19.1867 5.16974L18.381 3.59257C17.7107 2.28067 16.1871 1.64957 14.7855 2.10328L13.1005 2.64874C12.9003 2.71354 12.6847 2.71355 12.4845 2.64874L10.7995 2.10328ZM7.55225 11.7568L8.96647 10.3425L11.7949 13.171L17.4518 7.51416L18.866 8.92837L11.7949 15.9994L7.55225 11.7568Z" fill="white"/>
</svg>
