<svg width="34" height="34" viewBox="0 0 34 34" fill="none" xmlns="http://www.w3.org/2000/svg">
<path d="M11.0902 28.334C10.5068 29.9847 8.93251 31.1673 7.08203 31.1673C4.73483 31.1673 2.83203 29.2646 2.83203 26.9173C2.83203 25.0669 4.01468 23.4925 5.66536 22.9091V11.0921C4.01468 10.5087 2.83203 8.93446 2.83203 7.08398C2.83203 4.73678 4.73483 2.83398 7.08203 2.83398C8.93251 2.83398 10.5068 4.01663 11.0902 5.66732H22.9072C23.4906 4.01663 25.0649 2.83398 26.9154 2.83398C29.2626 2.83398 31.1654 4.73678 31.1654 7.08398C31.1654 8.93446 29.9827 10.5087 28.332 11.0921V22.9091C29.9827 23.4925 31.1654 25.0669 31.1654 26.9173C31.1654 29.2646 29.2626 31.1673 26.9154 31.1673C25.0649 31.1673 23.4906 29.9847 22.9072 28.334H11.0902ZM11.0902 25.5007H22.9072C23.334 24.2931 24.2911 23.336 25.4987 22.9091V11.0921C24.2911 10.6653 23.334 9.70823 22.9072 8.50065H11.0902C10.6634 9.70823 9.70628 10.6653 8.4987 11.0921V22.9091C9.70628 23.336 10.6634 24.2931 11.0902 25.5007ZM7.08203 8.50065C7.86443 8.50065 8.4987 7.86638 8.4987 7.08398C8.4987 6.30159 7.86443 5.66732 7.08203 5.66732C6.29963 5.66732 5.66536 6.30159 5.66536 7.08398C5.66536 7.86638 6.29963 8.50065 7.08203 8.50065ZM26.9154 8.50065C27.6978 8.50065 28.332 7.86638 28.332 7.08398C28.332 6.30159 27.6978 5.66732 26.9154 5.66732C26.1329 5.66732 25.4987 6.30159 25.4987 7.08398C25.4987 7.86638 26.1329 8.50065 26.9154 8.50065ZM26.9154 28.334C27.6978 28.334 28.332 27.6997 28.332 26.9173C28.332 26.1349 27.6978 25.5007 26.9154 25.5007C26.1329 25.5007 25.4987 26.1349 25.4987 26.9173C25.4987 27.6997 26.1329 28.334 26.9154 28.334ZM7.08203 28.334C7.86443 28.334 8.4987 27.6997 8.4987 26.9173C8.4987 26.1349 7.86443 25.5007 7.08203 25.5007C6.29963 25.5007 5.66536 26.1349 5.66536 26.9173C5.66536 27.6997 6.29963 28.334 7.08203 28.334Z" fill="#2C3041"/>
</svg>
