<svg width="28" height="28" viewBox="0 0 28 28" fill="none" xmlns="http://www.w3.org/2000/svg">
<path d="M16.7359 2.48672C16.6266 2.55781 16.4789 2.7 16.4078 2.79844L16.2711 2.97891L16.2438 6.61562H18.2125L18.1852 3.03359C17.9719 2.70547 17.8133 2.55234 17.693 2.48125C17.5398 2.39375 17.3922 2.35547 17.2008 2.35547C17.0039 2.35547 16.8727 2.39375 16.7359 2.48672ZM3.17344 3.19766C3.00937 3.24141 2.67578 3.37813 2.43516 3.49297C2.19453 3.61328 1.85 3.84297 1.66953 4.00156C1.48906 4.16562 1.2375 4.45547 1.10625 4.65234C0.980469 4.84375 0.871094 5.04609 0.876563 5.09531C0.876563 5.15 0.914844 5.23203 0.958594 5.27578C1.02422 5.34141 1.25391 5.35781 2.31484 5.35781C3.56719 5.35234 3.58359 5.35781 3.69844 5.47812C3.76406 5.54922 3.93906 5.82266 4.09219 6.09609C4.24531 6.36953 4.37109 6.6375 4.37109 6.69766C4.37109 6.75781 4.21797 7.06406 4.03203 7.38125L3.69297 7.95547C1.30859 8.00469 1.04063 8.02656 0.964063 8.09219C0.914844 8.13594 0.871094 8.2125 0.871094 8.25625C0.871094 8.3 0.969531 8.48594 1.08437 8.66641C1.19922 8.84687 1.46172 9.14766 1.65859 9.33359C1.90469 9.56328 2.17266 9.74922 2.47891 9.89141C2.73047 10.0172 3.12969 10.1484 3.39219 10.2031C3.73672 10.2687 3.97734 10.2852 4.32187 10.2578C4.57891 10.2359 4.97266 10.1594 5.19688 10.0828C5.42109 10.0062 5.70547 9.88594 5.82578 9.81484C5.94609 9.74922 6.17578 9.59062 6.33437 9.46484C6.4875 9.34453 6.75547 9.06562 6.91953 8.85781C7.08359 8.65 7.29141 8.43672 7.38438 8.39297C7.47734 8.34922 7.68516 8.29453 7.84922 8.26719L8.15 8.22891V5.08437C7.74531 5.08437 7.53203 5.03516 7.41172 4.975C7.29141 4.92031 7.11641 4.76719 7.02344 4.63594C6.925 4.50469 6.71172 4.26406 6.54219 4.1C6.37266 3.93594 6.09375 3.71172 5.92422 3.60781C5.74922 3.50391 5.43203 3.35625 5.22422 3.28516C4.91797 3.18125 4.69922 3.14844 4.15781 3.1375C3.67109 3.12109 3.38672 3.1375 3.17344 3.19766ZM22.9703 3.23047C22.7461 3.29062 22.4234 3.41094 22.2594 3.49844C22.0953 3.59141 21.8328 3.76641 21.6742 3.89766C21.5211 4.02344 21.2531 4.30234 21.0891 4.51016C20.9031 4.74531 20.7008 4.93125 20.5805 4.98594C20.4109 5.0625 20.2141 5.08437 19.5688 5.08437H18.7594V6.64297C19.1203 6.8125 19.3062 6.94375 19.4102 7.05312C19.5141 7.15703 19.6563 7.37031 19.7273 7.51797C19.793 7.67109 19.8531 7.88984 19.8531 8.01016V8.22891C20.3398 8.29453 20.5422 8.34922 20.6187 8.3875C20.6953 8.43125 20.9031 8.64453 21.0891 8.86328C21.2695 9.0875 21.5867 9.39922 21.8 9.55781C22.0133 9.72188 22.3578 9.91328 22.6039 10.0062C22.8336 10.0992 23.2055 10.1977 23.4242 10.2305C23.6375 10.2633 23.9875 10.2797 24.2008 10.2633C24.4141 10.2469 24.7805 10.1703 25.0211 10.0937C25.2617 10.0172 25.6063 9.86953 25.7867 9.76016C25.9672 9.65078 26.2461 9.43203 26.4102 9.27891C26.5688 9.12031 26.7984 8.84687 26.9133 8.66641C27.0336 8.48594 27.132 8.3 27.132 8.25625C27.132 8.2125 27.0883 8.13594 27.0391 8.09219C26.9625 8.02656 26.6945 8.00469 25.6281 7.98281L24.3102 7.95547C23.7852 7.06406 23.632 6.75781 23.632 6.69766C23.632 6.6375 23.7578 6.36953 23.9109 6.09609C24.0641 5.82812 24.2391 5.54922 24.3047 5.47812C24.4195 5.35781 24.4359 5.35234 25.6883 5.35781C26.7383 5.35781 26.968 5.34141 27.0391 5.27578C27.0883 5.23203 27.1266 5.15 27.1266 5.10078C27.1266 5.04609 27.0336 4.85469 26.9133 4.67422C26.7984 4.49375 26.5469 4.20391 26.3555 4.02891C26.1477 3.8375 25.825 3.61875 25.568 3.49297C25.3273 3.37813 24.9828 3.24141 24.8023 3.19766C24.6109 3.14844 24.2445 3.11562 23.9273 3.12109C23.5664 3.12109 23.2437 3.15937 22.9703 3.23047ZM12.9789 7.26094C12.9625 7.31016 12.957 7.5125 12.9734 7.70937C12.9898 7.96094 13.0445 8.15234 13.1594 8.36016C13.2469 8.52422 13.4055 8.71562 13.5094 8.78672C13.6133 8.85234 13.8211 8.95078 13.9742 9C14.1766 9.06563 14.5594 9.09844 15.4508 9.12031C16.3367 9.14219 16.6703 9.16953 16.7195 9.22422C16.7578 9.2625 16.7906 9.33359 16.7906 9.37734C16.7906 9.42109 16.7414 9.50859 16.6813 9.56875C16.6083 9.64167 16.499 9.67812 16.3531 9.67812C16.2328 9.67812 15.9922 9.73281 15.8172 9.79844C15.6313 9.86953 15.3961 10.0172 15.2375 10.1648C15.0789 10.3125 14.9039 10.5531 14.8164 10.7445C14.7289 10.925 14.6469 11.2094 14.625 11.3734C14.6031 11.5375 14.5594 11.707 14.5266 11.7453C14.4938 11.7836 14.4172 11.8164 14.357 11.8164C14.2969 11.8164 14.1984 11.7617 14.1383 11.7016C14.0344 11.5922 14.0344 11.5594 14.1 11.193C14.1383 10.9742 14.2422 10.6516 14.3297 10.4711C14.4172 10.2906 14.5867 10.0391 14.707 9.91328L14.9313 9.67812C14.4445 9.63437 14.1656 9.59609 14.0016 9.56328C13.8375 9.53047 13.6023 9.45391 13.482 9.39375C13.3617 9.32812 13.1977 9.23516 13.1102 9.18047C12.9734 9.08203 12.9461 9.08203 12.7438 9.15859C12.6234 9.20234 12.3719 9.24062 12.1805 9.24062C11.9344 9.24062 11.7648 9.20234 11.568 9.10938C11.4148 9.03828 11.2453 8.93984 11.1852 8.89609C11.0813 8.81953 11.0648 8.83047 10.9336 9.04375C10.8516 9.16406 10.6711 9.35 10.5234 9.44297C10.3758 9.54141 10.1297 9.65078 9.98203 9.68359C9.82891 9.72187 9.59922 9.73281 9.4625 9.71094C9.32578 9.68906 9.10156 9.6125 8.95391 9.54141L8.69688 9.40469C8.69688 11.8711 8.71328 12.2266 8.77891 12.4398C8.82266 12.593 8.94297 12.8336 9.04141 12.9812C9.13438 13.1289 9.375 13.375 9.56641 13.5281C9.75781 13.6812 10.0039 13.9437 10.1133 14.1078C10.2227 14.2719 10.3594 14.5672 10.4141 14.7641C10.507 15.1141 10.507 15.2234 10.2883 20.1234C10.1625 22.8742 10.0641 25.2094 10.0641 25.3078C10.0641 25.4008 10.1023 25.5211 10.1461 25.5648C10.2172 25.6359 10.7203 25.6469 13.9961 25.6469C17.2719 25.6469 17.7805 25.6359 17.8516 25.5648C17.9008 25.5211 17.9391 25.4281 17.9391 25.3625C17.9391 25.2914 17.8406 22.9344 17.7148 20.1234C17.5016 15.3602 17.4961 14.9883 17.5727 14.7094C17.6219 14.5453 17.7422 14.2883 17.8406 14.1406C17.9391 13.9875 18.2016 13.7195 18.4203 13.5391C18.6391 13.3531 18.8961 13.0961 18.9836 12.9594C19.0711 12.8227 19.1805 12.593 19.2242 12.4398C19.2898 12.2156 19.3062 11.7672 19.3062 10.05C19.3062 8.68281 19.2844 7.87344 19.2461 7.78047C19.2188 7.69297 19.1258 7.55625 19.0438 7.47422C18.9617 7.38672 18.8305 7.28281 18.743 7.23906C18.6227 7.17891 18.0977 7.1625 15.8063 7.1625C13.1977 7.1625 13.0117 7.16797 12.9789 7.26094ZM14.2477 2.94063C14.1602 3.00078 14.0289 3.10469 13.9633 3.17578C13.8977 3.24687 13.8211 3.37266 13.7883 3.46016C13.75 3.55312 13.7281 4.17656 13.7281 5.11172V6.61562H15.6969C15.6695 3.72266 15.6586 3.50391 15.5711 3.35078C15.5219 3.25234 15.3852 3.10469 15.2758 3.02266C15.1172 2.90234 15.0023 2.86406 14.7453 2.85313C14.4883 2.84219 14.3734 2.85859 14.2477 2.94063ZM11.8141 3.36719C11.7102 3.41094 11.5789 3.49297 11.5188 3.54219C11.4641 3.59141 11.3711 3.72813 11.3164 3.84297C11.218 4.02891 11.2125 4.19297 11.2125 5.98672C11.2125 7.48516 11.2289 7.96641 11.2836 8.10859C11.3273 8.20156 11.4477 8.36562 11.557 8.46406C11.6719 8.55703 11.825 8.65547 11.907 8.67188C11.9945 8.69375 12.175 8.69922 12.3117 8.68828C12.4539 8.67734 12.5797 8.65547 12.6016 8.63906C12.618 8.62266 12.5797 8.45859 12.525 8.27266C12.4539 8.04844 12.4156 7.76953 12.4156 7.49062C12.4156 7.075 12.4266 7.04219 12.5906 6.85625C12.7109 6.72865 12.8404 6.65208 12.9789 6.62656L13.1813 6.58828C13.1758 4.56484 13.1484 4.06172 13.1102 3.94687C13.0719 3.84844 12.957 3.68438 12.8531 3.575C12.7492 3.47109 12.5742 3.36172 12.4703 3.33438C12.3664 3.30156 12.2188 3.27969 12.1422 3.27969C12.0656 3.28516 11.918 3.32344 11.8141 3.36719ZM9.19453 3.87031C9.09063 3.93047 8.94844 4.05078 8.87734 4.14922C8.80625 4.24219 8.74062 4.40078 8.71875 4.49922C8.70234 4.59219 8.69688 5.54922 8.70781 6.62109L8.72422 8.56797C8.98125 8.89062 9.15078 9.03281 9.27109 9.0875C9.39141 9.14219 9.55 9.18594 9.62656 9.18594C9.70312 9.18594 9.85078 9.16406 9.95469 9.13125C10.0586 9.10391 10.2391 8.98906 10.3484 8.87422C10.4688 8.75937 10.5781 8.57344 10.6109 8.44766C10.6492 8.30547 10.6656 7.55625 10.6547 6.34219C10.6383 4.66875 10.6273 4.43359 10.5398 4.28047C10.4906 4.18203 10.3539 4.03438 10.2445 3.95234C10.0859 3.83203 9.97109 3.79375 9.71406 3.78281C9.4625 3.77187 9.33125 3.79375 9.19453 3.87031Z" fill="#2C3041"/>
</svg>
