<svg width="28" height="28" viewBox="0 0 28 28" fill="none" xmlns="http://www.w3.org/2000/svg">
<path fill-rule="evenodd" clip-rule="evenodd" d="M14.4102 1.3125H20.5625L20.9617 1.49297C21.175 1.59141 21.4758 1.78281 21.618 1.91406C21.793 2.07266 21.957 2.30234 22.0828 2.56484C22.2742 2.95313 22.2852 3.00781 22.2852 3.5C22.2852 3.99219 22.2742 4.04688 22.0828 4.43516C21.957 4.69766 21.793 4.92734 21.618 5.08594C21.4758 5.21719 21.1969 5.39766 21 5.49062C20.7266 5.61094 20.5352 5.66016 19.6984 5.71484L19.6766 5.10234C19.6656 4.59375 19.6437 4.46797 19.5508 4.34219C19.4906 4.26562 19.3703 4.14531 19.2883 4.07969C19.1352 3.97031 19.0805 3.96484 17.5 3.96484C15.9523 3.96484 15.8594 3.97031 15.7172 4.07422C15.6406 4.13438 15.5203 4.25469 15.4547 4.33672C15.3563 4.46797 15.3344 4.58281 15.3016 5.71484L14.8313 5.68203C14.4648 5.66016 14.2734 5.61094 14 5.49062C13.8031 5.39766 13.5242 5.21719 13.382 5.08594C13.207 4.92734 13.043 4.69766 12.9172 4.43516C12.7258 4.05234 12.7148 3.99219 12.7148 3.50547C12.7148 3.03516 12.7312 2.94219 12.8789 2.625C12.9719 2.42813 13.1578 2.14922 13.2891 2.00156C13.4586 1.82656 13.6773 1.66797 13.9727 1.52578L14.4102 1.3125ZM14.1805 2.94766C14.1148 3.04063 14.0383 3.19922 14.0219 3.29219C14.0055 3.39062 14.0055 3.57109 14.0273 3.69141C14.0529 3.83724 14.1331 3.97578 14.268 4.10703C14.3828 4.22187 14.5469 4.32578 14.6562 4.34766C14.7602 4.36953 14.9461 4.36953 15.0664 4.34766C15.2122 4.32214 15.3508 4.24193 15.482 4.10703C15.5969 3.99219 15.7008 3.82812 15.7227 3.71875C15.7445 3.61484 15.7445 3.43438 15.7281 3.31953C15.7117 3.21016 15.6297 3.04062 15.5477 2.94219C15.4602 2.84922 15.3125 2.73984 15.2195 2.69609C15.1211 2.65781 14.957 2.625 14.8641 2.625C14.7656 2.625 14.6016 2.66328 14.4977 2.70156C14.3938 2.73984 14.2516 2.84922 14.1805 2.94766ZM19.4305 2.94766C19.3648 3.04063 19.2883 3.19922 19.2719 3.29219C19.2555 3.39062 19.2555 3.57109 19.2773 3.69141C19.3029 3.83724 19.3831 3.97578 19.518 4.10703C19.6328 4.22187 19.7969 4.32578 19.9062 4.34766C20.0102 4.36953 20.1961 4.36953 20.3164 4.34766C20.4622 4.32214 20.6008 4.24193 20.732 4.10703C20.8469 3.99219 20.9508 3.82812 20.9727 3.71875C20.9945 3.61484 20.9945 3.43438 20.9781 3.31953C20.9617 3.21016 20.8797 3.04062 20.7977 2.94219C20.7102 2.84922 20.5625 2.73984 20.4695 2.69609C20.3711 2.65781 20.207 2.625 20.1141 2.625C20.0156 2.625 19.8516 2.66328 19.7477 2.70156C19.6438 2.73984 19.5016 2.84922 19.4305 2.94766ZM16.1875 4.8125H18.8125V26.6875H24.9375V22.3125H25.8125V26.6875H27.5625V27.5625H0.4375V26.6875H3.03516L2.59766 26.4742C2.30234 26.332 2.08359 26.1734 1.91406 25.993C1.78281 25.8508 1.59687 25.5719 1.50391 25.375C1.35625 25.0578 1.33984 24.9648 1.33984 24.5C1.33984 24.0352 1.35625 23.9422 1.50391 23.625C1.59687 23.4281 1.78281 23.1492 1.91406 23.0016C2.07266 22.832 2.30234 22.668 2.975 22.3398H14.5195L14.875 22.5039C15.0719 22.5969 15.3508 22.7828 15.493 22.9141C15.668 23.0727 15.832 23.3023 15.9578 23.5648C16.1492 23.9477 16.1602 24.0078 16.1602 24.4945C16.1602 24.9648 16.1438 25.0578 15.9961 25.375C15.9031 25.5719 15.7172 25.8508 15.5859 25.993C15.4164 26.1734 15.1977 26.332 14.4648 26.6875H16.1602L16.4008 26.3758C16.5266 26.2008 16.6797 25.9711 16.7344 25.8672C16.7836 25.7633 16.8766 25.5391 16.9312 25.375C17.0078 25.1562 17.0352 24.9156 17.0352 24.5C17.0352 24.0844 17.0078 23.8438 16.9312 23.625C16.8766 23.4609 16.7836 23.2367 16.7344 23.1328C16.6797 23.0289 16.5375 22.8047 16.1875 22.3398L16.182 20.4805L16.357 20.3984C16.4555 20.3547 16.625 20.218 16.7289 20.0922C16.8383 19.9719 16.9586 19.7641 16.9969 19.6273C17.0516 19.4578 17.068 19.1406 17.0297 17.7461L16.1875 15.9414V4.8125ZM17.0625 6.5625H17.9375V5.6875H17.0625V6.5625ZM17.0625 8.3125H17.9375V7.4375H17.0625V8.3125ZM17.0625 10.0625H17.9375V9.1875H17.0625V10.0625ZM17.0625 11.8125H17.9375V10.9375H17.0625V11.8125ZM17.0625 13.5625H17.9375V12.6875H17.0625V13.5625ZM17.0625 15.3125H17.9375V14.4375H17.0625V15.3125ZM17.0625 17.0625H17.9375V16.1875H17.0625V17.0625ZM2.80547 23.9477C2.73438 24.0406 2.66328 24.1992 2.64688 24.2922C2.625 24.3906 2.63047 24.5711 2.65234 24.6914C2.67786 24.8372 2.75625 24.9758 2.8875 25.107C3.00234 25.2219 3.17188 25.3258 3.28125 25.3477C3.38516 25.3695 3.57109 25.3695 3.69141 25.3477C3.83724 25.3221 3.97578 25.2419 4.10703 25.107C4.22187 24.9922 4.32578 24.8281 4.34766 24.7188C4.36953 24.6148 4.36953 24.4344 4.35312 24.3195C4.33125 24.2102 4.24922 24.0406 4.16719 23.9422C4.08516 23.8492 3.9375 23.7398 3.83906 23.6961C3.74062 23.6578 3.58203 23.625 3.48359 23.625C3.38516 23.625 3.22109 23.6633 3.12266 23.7016C3.01875 23.7398 2.87656 23.8492 2.80547 23.9477ZM6.30547 23.9477C6.23438 24.0406 6.16328 24.1992 6.14687 24.2922C6.125 24.3906 6.13047 24.5711 6.15234 24.6914C6.17786 24.8372 6.25625 24.9758 6.3875 25.107C6.50234 25.2219 6.67188 25.3258 6.78125 25.3477C6.88516 25.3695 7.07109 25.3695 7.19141 25.3477C7.33724 25.3221 7.47578 25.2419 7.60703 25.107C7.72188 24.9922 7.82578 24.8281 7.84766 24.7188C7.86953 24.6148 7.86953 24.4344 7.85313 24.3195C7.83125 24.2102 7.74922 24.0406 7.66719 23.9422C7.58516 23.8492 7.4375 23.7398 7.33906 23.6961C7.24062 23.6578 7.08203 23.625 6.98359 23.625C6.88516 23.625 6.72109 23.6633 6.62266 23.7016C6.51875 23.7398 6.37656 23.8492 6.30547 23.9477ZM9.80547 23.9477C9.73438 24.0406 9.66328 24.1992 9.64687 24.2922C9.625 24.3906 9.63047 24.5711 9.65234 24.6914C9.67787 24.8372 9.75625 24.9758 9.8875 25.107C10.0023 25.2219 10.1719 25.3258 10.2812 25.3477C10.3852 25.3695 10.5711 25.3695 10.6914 25.3477C10.8372 25.3221 10.9758 25.2419 11.107 25.107C11.2219 24.9922 11.3258 24.8281 11.3477 24.7188C11.3695 24.6148 11.3695 24.4344 11.3531 24.3195C11.3313 24.2102 11.2492 24.0406 11.1672 23.9422C11.0852 23.8492 10.9375 23.7398 10.8391 23.6961C10.7406 23.6578 10.582 23.625 10.4836 23.625C10.3852 23.625 10.2211 23.6633 10.1227 23.7016C10.0188 23.7398 9.87656 23.8492 9.80547 23.9477ZM13.3055 23.9477C13.2344 24.0406 13.1633 24.1992 13.1469 24.2922C13.125 24.3906 13.1305 24.5711 13.1523 24.6914C13.1779 24.8372 13.2563 24.9758 13.3875 25.107C13.5023 25.2219 13.6719 25.3258 13.7812 25.3477C13.8852 25.3695 14.0711 25.3695 14.1914 25.3477C14.3372 25.3221 14.4758 25.2419 14.607 25.107C14.7219 24.9922 14.8258 24.8281 14.8477 24.7188C14.8695 24.6148 14.8695 24.4344 14.8531 24.3195C14.8313 24.2102 14.7492 24.0406 14.6672 23.9422C14.5852 23.8492 14.4375 23.7398 14.3391 23.6961C14.2406 23.6578 14.082 23.625 13.9836 23.625C13.8852 23.625 13.7211 23.6633 13.6227 23.7016C13.5188 23.7398 13.3766 23.8492 13.3055 23.9477ZM21.3938 6.29453C21.4156 6.28906 21.4375 6.93984 21.4375 9.1875H19.6875V6.58984L20.218 6.55156C20.5242 6.52969 20.8797 6.46953 21.0547 6.40391C21.2188 6.34375 21.3719 6.29453 21.3938 6.29453ZM14.4375 6.53516L15.3125 6.5625V7.60156L14.4375 8.03906V6.53516ZM24.9375 8.3125H25.8125V9.1875H24.9375V8.3125ZM15.2961 8.58594C15.307 8.58594 15.3125 8.91953 15.3125 10.0625H13.5625L13.5406 9.46094L14.4102 9.02344C14.8914 8.78828 15.2906 8.59141 15.2961 8.58594ZM19.6875 10.0625H25.8125V10.9375H19.6875V10.0625ZM14.4375 10.9375H15.3125V12.4523C15.3125 13.2891 15.2906 13.9453 15.2688 13.918C15.2414 13.8852 15.0445 13.475 14.4375 12.1406V10.9375ZM24.9375 11.8125H25.8125V13.5625H24.9375V11.8125ZM7.70547 12.6875L13.7266 12.7148L16.182 18.0195L16.1875 18.7141C16.1875 19.3813 16.182 19.4195 15.9195 19.6875H13.5625V18.8125H12.6875V19.6875H11.8125V18.8125H10.9375V19.6875H10.0625V18.8125H9.1875V19.6875H3.9375V16.1875H7.4375L7.44297 12.9555L7.70547 12.6875ZM8.74453 17.5H13.1195V14H8.74453V17.5ZM4.80703 17.9375H6.55703V17.0625H4.80703V17.9375ZM1.30703 13.5625H2.18203V15.3125H1.30703V13.5625ZM24.057 14.4375H26.682V21.4375H24.057V14.4375ZM3.05703 16.1875V19.6875H2.31875C1.60781 19.6875 1.58047 19.682 1.30703 19.4141L1.3125 16.4555L1.44375 16.3242C1.575 16.193 1.60234 16.1875 3.05703 16.1875ZM6.55703 20.5625H9.18203V21.4375H6.55703V20.5625ZM10.057 20.5625H15.307V21.1367C15.307 21.4539 15.3016 21.7109 15.2961 21.7109C15.2906 21.7109 15.132 21.6562 14.9516 21.5906C14.6344 21.4758 14.5469 21.4703 10.057 21.4375V20.5625Z" fill="#2C3041"/>
</svg>
