<svg width="28" height="28" viewBox="0 0 28 28" fill="none" xmlns="http://www.w3.org/2000/svg">
<g clip-path="url(#clip0_113_3560)">
<path fill-rule="evenodd" clip-rule="evenodd" d="M9.20391 -0.000390625C9.24219 0.00507812 9.61953 0.349609 10.0461 0.765234C10.4781 1.18633 10.85 1.53086 10.8828 1.53086C10.9102 1.53086 11.6266 1.18633 14 -0.00585938L18.1016 2.05039V3.69102L21.3828 5.33164V6.67148H24.3633L24.757 7.46445C24.9758 7.90195 25.1562 8.26836 25.1562 8.28477C25.1562 8.30117 19.9445 8.31211 1.99609 8.31211L1.70625 7.73789C1.55313 7.4207 1.43281 7.14727 1.44375 7.11992C1.46016 7.09805 2.25859 6.68789 4.97656 5.33164L4.98203 2.05039L7.03281 1.06602C8.15938 0.524609 9.1 0.0652344 9.11094 0.0433594C9.12734 0.0160156 9.16563 -0.000390625 9.20391 -0.000390625ZM0 9.95273H28V13.234H0V9.95273ZM5.75859 19.802C5.98828 19.7965 6.37109 19.8348 6.60625 19.884C6.83594 19.9332 7.16406 20.0262 7.32812 20.0918C7.49219 20.1574 7.80391 20.327 8.01172 20.4637C8.225 20.6004 8.52578 20.8465 8.68984 21.0051C8.84844 21.1691 9.08906 21.459 9.21484 21.6559C9.34609 21.8527 9.51016 22.159 9.58672 22.3395C9.66328 22.5199 9.76719 22.8754 9.82188 23.1324C9.8875 23.477 9.90391 23.7285 9.88203 24.1168C9.86016 24.4012 9.81094 24.773 9.76719 24.9371C9.72344 25.1012 9.625 25.3746 9.54844 25.5387C9.47734 25.7027 9.33516 25.9652 9.23125 26.1238C9.13281 26.2824 8.90312 26.5613 8.72266 26.7473C8.54219 26.9332 8.23594 27.1902 8.03906 27.3215C7.84219 27.4473 7.57422 27.6004 7.4375 27.6605C7.30078 27.7152 7 27.8191 6.77031 27.8848C6.46406 27.9668 6.18516 27.9996 5.79688 27.9996C5.40312 27.9996 5.12969 27.9668 4.82891 27.8848C4.59375 27.8191 4.29297 27.7152 4.15625 27.6551C4.01953 27.5949 3.75156 27.4418 3.55469 27.316C3.35781 27.1848 3.04609 26.9277 2.86016 26.7363C2.67969 26.5449 2.43906 26.2496 2.33516 26.0855C2.23125 25.9215 2.08359 25.6371 2.00703 25.4566C1.93047 25.2762 1.83203 24.9371 1.78281 24.7074C1.73359 24.4723 1.69531 24.1113 1.69531 23.898C1.69531 23.6848 1.73359 23.3238 1.78281 23.0941C1.83203 22.859 1.93047 22.5199 2.00703 22.3395C2.08359 22.159 2.25312 21.8527 2.37891 21.6559C2.50469 21.459 2.76719 21.1473 2.95859 20.9613C3.15 20.7809 3.44531 20.5402 3.60938 20.4363C3.77344 20.3324 4.05781 20.1848 4.23828 20.1082C4.41875 20.0316 4.74141 19.9332 4.94922 19.8895C5.1625 19.8402 5.52344 19.802 5.75859 19.802ZM1.925 14.8746H26.0859L25.4352 16.8051C24.9813 18.1559 24.768 18.7246 24.7133 18.7191C24.6695 18.7137 24.4781 18.6426 24.2812 18.566C24.0844 18.484 23.7398 18.3691 23.5156 18.309C23.275 18.2488 22.8211 18.1941 22.4219 18.1723C21.9242 18.1504 21.607 18.1668 21.2461 18.227C20.9781 18.2762 20.6063 18.3637 20.4258 18.4184C20.2453 18.4785 19.9609 18.5879 19.7969 18.659C19.6328 18.7355 19.3484 18.8887 19.168 18.998C18.9875 19.1129 18.6703 19.348 18.4625 19.5176C18.2547 19.6871 17.9266 20.0207 17.7352 20.2613C17.5328 20.5074 17.2539 20.9559 17.0844 21.3004C16.9148 21.6504 16.7234 22.1316 16.6414 22.4488C16.5156 22.9191 16.4992 23.1105 16.4883 24.7184H11.5117L11.5062 23.8598C11.5008 23.1707 11.4789 22.9137 11.3914 22.5855C11.3258 22.3613 11.2 21.9785 11.107 21.7379C11.0141 21.4973 10.7898 21.0652 10.6039 20.7809C10.418 20.4965 10.0789 20.0754 9.84922 19.8457C9.61953 19.616 9.19844 19.277 8.91406 19.091C8.62969 18.9051 8.19766 18.6809 7.95703 18.5879C7.71641 18.4949 7.33359 18.3691 7.10938 18.309C6.78672 18.216 6.52422 18.1941 5.85156 18.1887C5.14062 18.1887 4.92734 18.2051 4.51172 18.309C4.23828 18.3801 3.84453 18.5059 3.63672 18.5934C3.42344 18.6863 3.2375 18.7355 3.22109 18.7137C3.19922 18.6918 2.90391 17.8223 2.55391 16.7777L1.925 14.8746ZM22.3398 19.8184C22.7062 19.8348 23.1437 19.884 23.3242 19.9332C23.5047 19.9824 23.7891 20.0863 23.9531 20.1574C24.1172 20.234 24.4125 20.409 24.6094 20.5512C24.8008 20.6879 25.0961 20.9668 25.2547 21.1637C25.4187 21.3551 25.6539 21.7379 25.7852 22.0113C25.9219 22.2793 26.0805 22.7004 26.1516 22.941C26.25 23.2801 26.2773 23.5098 26.2719 23.9801C26.2719 24.3574 26.2391 24.702 26.1789 24.9098C26.1297 25.0902 26.0312 25.3691 25.9547 25.5387C25.8836 25.7027 25.7414 25.9652 25.6375 26.1238C25.5391 26.277 25.3094 26.5613 25.1289 26.7473C24.9484 26.9332 24.6422 27.1902 24.4453 27.316C24.2484 27.4473 23.9805 27.5949 23.8438 27.6551C23.707 27.7152 23.4062 27.8137 23.1766 27.8793C22.8703 27.9613 22.5914 27.9996 22.2031 27.9996C21.8148 27.9996 21.5359 27.9613 21.2352 27.8793C21 27.8137 20.6992 27.7152 20.5625 27.6551C20.4258 27.5949 20.1578 27.4418 19.9609 27.3105C19.7641 27.1848 19.4523 26.9223 19.2719 26.7309C19.0859 26.5395 18.8453 26.2496 18.7414 26.0855C18.6375 25.916 18.4898 25.6371 18.4133 25.4566C18.3367 25.2707 18.2328 24.9152 18.1836 24.6637C18.1125 24.3191 18.0961 24.0566 18.118 23.6793C18.1344 23.3895 18.1891 23.0121 18.2383 22.8316C18.282 22.6457 18.4297 22.2793 18.5609 22.0113C18.7305 21.6613 18.9164 21.3988 19.1789 21.1145C19.3813 20.8902 19.7094 20.6059 19.9062 20.4746C20.1031 20.3434 20.4094 20.1793 20.5898 20.1027C20.7703 20.0262 21.093 19.9277 21.3008 19.8785C21.5797 19.8184 21.8641 19.802 22.3398 19.8184ZM21.3828 24.7129L23.0234 24.7184V23.0777H21.3828V24.7129ZM4.97656 24.7129H6.61719V23.0723H4.97656V24.7129Z" fill="#2C3041"/>
</g>
<defs>
<clipPath id="clip0_113_3560">
<rect width="28" height="28" fill="white"/>
</clipPath>
</defs>
</svg>
