<svg width="28" height="28" viewBox="0 0 28 28" fill="none" xmlns="http://www.w3.org/2000/svg">
<g clip-path="url(#clip0_113_3576)">
<path fill-rule="evenodd" clip-rule="evenodd" d="M15.1429 0.886051C16.2093 0.902458 16.4335 0.918864 16.4772 0.984489C16.5155 1.04464 16.4663 1.15402 16.2749 1.42199C16.1382 1.61886 16.0233 1.81027 16.0233 1.84855C16.0233 1.88136 16.1327 2.0673 16.2694 2.25871C16.4061 2.44464 16.521 2.60871 16.521 2.62511C16.5155 2.64152 16.4882 2.68527 16.4499 2.72355C16.4007 2.77277 16.0999 2.78918 14.2733 2.78918V4.15636H13.7265L13.7155 2.58136C13.7046 1.2798 13.7155 0.995426 13.7811 0.940739C13.8413 0.89152 14.1968 0.875114 15.1429 0.886051ZM13.989 26.4689C22.4929 26.4689 26.9444 26.4853 27.0155 26.5236C27.0921 26.5618 27.1249 26.6329 27.1249 26.7696C27.1249 26.8736 27.114 26.9993 27.0975 27.0431C27.0757 27.1142 25.5718 27.1251 13.9999 27.1251C2.42802 27.1251 0.924112 27.1142 0.902237 27.0431C0.885831 26.9993 0.869424 26.8736 0.863956 26.7696C0.858487 26.6384 0.885831 26.5673 0.962393 26.529C1.03349 26.4907 5.32099 26.4743 13.989 26.4689ZM16.3077 4.73058L16.439 4.87824C16.5538 5.00949 16.5702 5.08605 16.5702 5.85168H11.4296V5.45246C11.4296 5.17902 11.4569 5.02043 11.5171 4.93293C11.5663 4.86183 11.6593 4.78527 11.7249 4.75793C11.785 4.73058 12.846 4.71418 16.3077 4.73058ZM13.9999 6.39855C18.1397 6.39855 18.2436 6.40402 18.4186 6.50793C18.539 6.58449 18.6101 6.68293 18.6483 6.81964C18.6811 6.95636 18.6975 10.1884 18.6757 24.7462L17.1718 24.7736V22.3126C17.1718 20.1962 17.1608 19.8407 17.0897 19.7696C17.0186 19.6986 16.603 19.6876 14.0054 19.6876C11.4077 19.6876 10.9866 19.6986 10.9155 19.7696C10.839 19.8407 10.828 20.147 10.828 24.7736L9.32411 24.7462L9.31317 15.8868C9.30224 10.1884 9.31864 6.95636 9.35146 6.81964C9.38974 6.68293 9.46083 6.58449 9.58661 6.50793C9.75614 6.40402 9.86005 6.39855 13.9999 6.39855ZM10.8171 11.3314C10.828 12.19 10.8335 12.2556 10.9374 12.3048C10.9975 12.3321 11.4241 12.3595 11.889 12.3595C12.5671 12.3595 12.753 12.3431 12.8186 12.2775C12.8897 12.2118 12.9061 12.0423 12.9061 11.304C12.9061 10.6642 12.8897 10.4017 12.8405 10.347C12.7858 10.2978 12.5233 10.2814 11.8671 10.2814C11.2382 10.2814 10.9374 10.3032 10.8827 10.347C10.8225 10.4017 10.8061 10.604 10.8171 11.3314ZM15.0827 11.304C15.0936 12.015 15.1101 12.2118 15.1757 12.2775C15.2413 12.3431 15.4272 12.3595 16.1054 12.3595C16.5702 12.3595 17.0022 12.3321 17.0624 12.3048C17.1663 12.2556 17.1718 12.1954 17.1718 11.3314C17.1718 10.6642 17.1554 10.4017 17.1061 10.347C17.0515 10.2978 16.789 10.2814 16.1327 10.2814C15.5038 10.2814 15.203 10.3032 15.1483 10.347C15.0882 10.4017 15.0718 10.5986 15.0827 11.304ZM10.8171 16.0181C10.8225 16.6689 10.8444 16.9478 10.8936 16.997C10.9483 17.0462 11.2108 17.0626 11.8835 17.0626C12.7421 17.0626 12.8022 17.0571 12.8515 16.9532C12.8843 16.8931 12.9061 16.4611 12.9061 15.9962C12.9061 15.3181 12.8897 15.1321 12.8241 15.0665C12.7585 15.0009 12.5725 14.9845 11.8507 14.9845C11.2382 14.9845 10.9374 15.0064 10.8827 15.0501C10.8225 15.1048 10.8061 15.3017 10.8171 16.0181ZM15.0882 16.0017C15.0936 16.4665 15.121 16.8931 15.1483 16.9532C15.1975 17.0571 15.2577 17.0626 16.1218 17.0626C16.7835 17.0626 17.0569 17.0462 17.1061 16.9915C17.1554 16.9478 17.1718 16.6579 17.1718 16.0236C17.1718 15.3673 17.1554 15.1048 17.1061 15.0501C17.0515 15.0009 16.7944 14.9845 16.1491 14.9845C15.4218 14.9845 15.2522 15.0009 15.1757 15.072C15.0991 15.1431 15.0882 15.2853 15.0882 16.0017ZM3.65302 8.20324H8.74989V24.7736H3.33583L3.34677 8.52043L3.65302 8.20324ZM4.96552 11.304C4.97099 11.9329 4.98739 12.1462 5.05302 12.2392C5.13505 12.3595 5.16239 12.3595 6.03739 12.3595C6.91239 12.3595 6.94521 12.3595 7.02177 12.2392C7.09286 12.1407 7.1038 11.9548 7.09286 11.2548C7.08192 10.5548 7.06005 10.3798 6.99442 10.3361C6.95067 10.3087 6.50224 10.2868 5.99911 10.2868C5.15146 10.2814 5.08036 10.2923 5.02021 10.3907C4.98192 10.4564 4.96552 10.8009 4.96552 11.304ZM4.96552 16.0509C4.96552 16.7673 4.98192 16.8876 5.06396 16.9696C5.15146 17.0517 5.28817 17.0626 6.0538 17.0626C6.91239 17.0626 6.94521 17.0626 7.02177 16.9423C7.08739 16.8439 7.1038 16.6415 7.1038 16.0236C7.1038 15.4111 7.08739 15.2032 7.02177 15.1103C6.94521 14.99 6.91239 14.9845 6.04286 14.9845C5.17333 14.9845 5.13505 14.99 5.05302 15.1103C4.97646 15.2087 4.96005 15.3728 4.96552 16.0509ZM4.97099 20.7431C4.97099 21.3829 4.98739 21.6017 5.04755 21.6837C5.11864 21.7876 5.18974 21.7931 6.03739 21.7931C6.88505 21.7931 6.95614 21.7876 7.02724 21.6837C7.08739 21.6017 7.1038 21.3829 7.1038 20.7431C7.1038 19.9829 7.09286 19.9009 6.99442 19.797C6.89599 19.6986 6.81396 19.6876 6.03739 19.6876C5.26083 19.6876 5.1788 19.6986 5.08036 19.797C4.98192 19.9009 4.97099 19.9829 4.97099 20.7431ZM19.2444 8.20324H24.3304L24.6585 8.53136V24.7736H19.2444V8.20324ZM20.8796 11.3204C20.885 11.9329 20.9015 12.1462 20.9671 12.2392C21.0491 12.3595 21.0765 12.3595 21.9515 12.3595C22.8265 12.3595 22.8593 12.3595 22.9358 12.2392C23.0015 12.1407 23.0179 11.9384 23.0179 11.3095C23.0179 10.8665 22.996 10.4509 22.9632 10.3907C22.914 10.2923 22.8538 10.2814 21.9843 10.2814C21.0874 10.2814 21.0491 10.2868 20.9671 10.4071C20.8905 10.5056 20.8741 10.6642 20.8796 11.3204ZM20.8796 16.0236C20.885 16.6361 20.9015 16.8493 20.9671 16.9423C21.0491 17.0626 21.0765 17.0626 21.946 17.0626C22.6733 17.0626 22.8647 17.0517 22.9304 16.9806C23.0015 16.915 23.0179 16.7509 23.0179 16.04C23.0233 15.2853 23.0124 15.165 22.9249 15.0829C22.8429 15.0009 22.7061 14.99 21.9405 14.99C21.0874 14.9845 21.0491 14.99 20.9671 15.1103C20.8905 15.2087 20.8741 15.3673 20.8796 16.0236ZM20.8905 20.7868C20.9069 21.3993 20.9343 21.6728 20.9835 21.722C21.0382 21.7767 21.2897 21.7931 21.9569 21.7931C22.7991 21.7931 22.8702 21.7876 22.9413 21.6837C23.0015 21.6017 23.0179 21.3829 23.0179 20.7431C23.0179 19.9829 23.0069 19.9009 22.9085 19.797C22.81 19.6986 22.728 19.6876 21.9515 19.6876C21.1694 19.6876 21.0929 19.6986 20.989 19.8025C20.8796 19.9118 20.8741 19.9556 20.8905 20.7868ZM13.9944 25.3204C23.4335 25.3204 25.796 25.3368 25.8507 25.3915C25.889 25.4298 25.9163 25.5665 25.9163 25.922H2.07255L2.06161 25.6868C2.05614 25.5446 2.07802 25.4298 2.12724 25.3861C2.18739 25.3368 4.90536 25.3204 13.9944 25.3204Z" fill="#2C3041"/>
</g>
<defs>
<clipPath id="clip0_113_3576">
<rect width="28" height="28" fill="white"/>
</clipPath>
</defs>
</svg>
