<svg width="19" height="18" viewBox="0 0 19 18" fill="none" xmlns="http://www.w3.org/2000/svg">
<path d="M3.47603 0.629302L0.811103 3.38677C0.570096 3.63615 0.437675 3.97107 0.443591 4.31772L0.543809 10.1896C0.549725 10.5363 0.693498 10.8665 0.942874 11.1075L4.09017 14.1492L0.671732 17.6849L5.59247 17.6009L12.4251 10.5281L4.03082 10.6714L3.91213 3.71725L14.344 3.5392L14.5814 17.4475L18.0592 17.3881L17.8311 4.02096C17.8251 3.67431 17.6814 3.34411 17.432 3.1031L14.6745 0.438174C14.4251 0.197168 14.0902 0.064747 13.7436 0.0706634L4.3953 0.230213C4.04865 0.236129 3.71845 0.379901 3.47744 0.629278L3.47603 0.629302Z" fill="white"/>
</svg>
