<svg width="18" height="18" viewBox="0 0 18 18" fill="none" xmlns="http://www.w3.org/2000/svg">
<path d="M17.6141 6.95624L17.564 4.02098C17.5581 3.67433 17.4143 3.34413 17.165 3.10312L14.4075 0.438198C14.1581 0.197191 13.8232 0.0647709 13.4766 0.0706873L4.12827 0.230237C3.78161 0.236153 3.45141 0.379925 3.21041 0.629302L0.545482 3.38677C0.304475 3.63615 0.17205 3.97107 0.177966 4.31772L0.337516 13.666C0.343432 14.0126 0.487209 14.3428 0.736585 14.5839L3.49406 17.2488C3.74343 17.4898 4.07835 17.6222 4.425 17.6163L13.7733 17.4567C14.1199 17.4508 14.4501 17.3071 14.6911 17.0577L17.3561 14.3002C17.5971 14.0508 17.7295 13.7159 17.7236 13.3693L17.6735 10.434L14.1957 10.4934L14.2551 13.9711L3.82315 14.1492L3.6451 3.71727L14.077 3.53923L14.1364 7.017L17.6141 6.95765L17.6141 6.95624Z" fill="white"/>
</svg>
