<svg width="19" height="18" viewBox="0 0 19 18" fill="none" xmlns="http://www.w3.org/2000/svg">
<path d="M3.88619 0.629302L1.22126 3.38677C0.980252 3.63615 0.847831 3.97107 0.853748 4.31772L1.0133 13.666C1.01921 14.0126 1.16299 14.3429 1.41236 14.5839L4.16983 17.2488C4.41921 17.4898 4.75413 17.6222 5.10078 17.6163L8.93647 17.5508C9.28313 17.5449 9.61333 17.4011 9.85433 17.1518L14.8961 11.9349L14.9902 17.4489L18.468 17.3896L18.2398 4.02098C18.2339 3.67433 18.0901 3.34413 17.8407 3.10312L15.0833 0.438198C14.8339 0.197192 14.499 0.064771 14.1523 0.0706874L4.80404 0.230237C4.45739 0.236153 4.12719 0.379925 3.88619 0.629302ZM14.8121 7.01559L7.97667 14.0884L4.4989 14.1478L4.32088 3.71727L14.7528 3.53923L14.8122 7.017L14.8121 7.01559Z" fill="white"/>
</svg>
