<svg width="19" height="18" viewBox="0 0 19 18" fill="none" xmlns="http://www.w3.org/2000/svg">
<path d="M15.0974 17.0577L17.7623 14.3002C18.0033 14.0508 18.1357 13.7159 18.1298 13.3693L18.0296 7.49735C18.0237 7.1507 17.8799 6.8205 17.6305 6.57949L14.8731 3.91456C14.6237 3.67356 14.2888 3.54114 13.9421 3.54705L10.1064 3.61252C9.75978 3.61843 9.42958 3.76221 9.18857 4.01158L4.14682 9.22842L3.9934 0.239472L0.515625 0.298828L0.743766 13.666C0.749682 14.0126 0.893455 14.3429 1.14283 14.5839L3.9003 17.2488C4.14968 17.4898 4.4846 17.6222 4.83125 17.6163L14.1795 17.4567C14.5262 17.4508 14.8564 17.3071 15.0974 17.0577ZM11.0648 7.07495L14.5426 7.01559L14.6613 13.9697L4.22937 14.1478L11.0648 7.07495Z" fill="white"/>
</svg>
